{"glyphs":{"0":{"ha":833,"x_min":115,"x_max":718,"o":"m 417 -14 q 257 23 325 -14 q 152 127 189 60 q 115 285 115 194 l 115 729 q 152 888 115 821 q 257 991 189 954 q 417 1028 325 1028 q 577 991 510 1028 q 681 888 644 954 q 718 729 718 821 l 718 285 q 681 126 718 193 q 576 23 644 60 q 417 -14 508 -14 m 417 83 q 556 139 504 83 q 608 285 608 194 l 608 729 q 556 875 608 819 q 417 931 504 931 q 277 875 329 931 q 225 729 225 819 l 225 285 q 277 139 225 194 q 417 83 329 83 m 417 429 q 359 452 381 429 q 338 511 338 475 q 359 569 338 547 q 417 590 381 590 q 474 569 453 590 q 496 511 496 547 q 474 452 496 475 q 417 429 453 429 z "},"1":{"ha":833,"x_min":129,"x_max":746,"o":"m 129 0 l 129 100 l 407 100 l 407 921 l 132 717 l 132 839 l 368 1014 l 517 1014 l 517 100 l 746 100 l 746 0 l 129 0 z "},"2":{"ha":833,"x_min":104,"x_max":732,"o":"m 129 0 l 129 114 l 442 442 q 564 600 525 529 q 603 738 603 671 q 552 878 603 826 q 414 931 501 931 q 269 878 322 931 q 215 733 215 825 l 104 733 q 146 890 107 824 q 253 992 185 957 q 414 1028 322 1028 q 573 993 506 1028 q 676 894 640 958 q 713 739 713 829 q 665 564 713 651 q 514 368 618 476 l 250 100 l 732 100 l 732 0 l 129 0 z "},"3":{"ha":833,"x_min":104,"x_max":701,"o":"m 401 -14 q 245 22 313 -14 q 141 123 178 58 q 104 274 104 188 l 215 274 q 265 135 215 185 q 403 85 315 85 q 541 137 492 85 q 590 274 590 189 l 590 354 q 541 494 590 444 q 403 543 492 543 l 307 543 l 307 651 l 563 914 l 144 914 l 144 1014 l 674 1014 l 674 904 l 404 626 l 404 640 q 621 563 540 640 q 701 354 701 486 l 701 274 q 664 123 701 188 q 559 22 626 58 q 401 -14 492 -14 z "},"4":{"ha":833,"x_min":118,"x_max":689,"o":"m 579 0 l 579 226 l 118 226 l 118 407 l 521 1014 l 640 1014 l 229 382 l 229 326 l 579 326 l 579 583 l 689 583 l 689 0 l 579 0 z "},"5":{"ha":833,"x_min":124,"x_max":710,"o":"m 415 -14 q 214 51 292 -14 q 124 225 136 115 l 233 225 q 288 122 240 158 q 415 85 335 85 q 553 135 506 85 q 600 279 600 186 l 600 376 q 553 519 600 468 q 417 569 507 569 q 315 538 358 569 q 254 453 272 507 l 144 453 l 151 1014 l 676 1014 l 676 914 l 258 914 l 254 553 l 290 553 l 253 514 q 307 626 253 585 q 451 667 361 667 q 642 591 575 668 q 710 376 710 514 l 710 279 q 632 65 710 144 q 415 -14 554 -14 z "},"6":{"ha":833,"x_min":101,"x_max":732,"o":"m 418 -14 q 251 27 322 -14 q 140 141 179 68 q 101 311 101 214 q 122 456 101 385 q 185 593 143 526 l 442 1014 l 564 1014 l 275 549 l 281 544 q 353 602 306 579 q 461 625 400 625 q 604 586 543 625 q 699 477 665 547 q 732 311 732 407 q 693 141 732 214 q 583 27 654 68 q 418 -14 513 -14 m 417 85 q 566 147 510 85 q 622 311 622 208 q 566 472 622 411 q 417 533 510 533 q 268 472 325 533 q 211 311 211 411 q 267 147 210 208 q 417 85 324 85 z "},"7":{"ha":833,"x_min":113,"x_max":739,"o":"m 265 0 l 629 911 l 225 911 l 225 746 l 113 746 l 113 1014 l 739 1014 l 739 904 l 386 0 l 265 0 z "},"8":{"ha":833,"x_min":115,"x_max":718,"o":"m 417 -14 q 257 18 325 -14 q 152 110 189 50 q 115 253 115 171 q 165 408 115 343 q 324 525 214 474 l 456 590 q 558 670 524 622 q 592 776 592 718 q 544 889 592 847 q 417 931 497 931 q 291 888 338 931 q 244 775 244 846 q 278 669 244 717 q 374 592 311 622 l 506 528 q 668 408 618 474 q 718 253 718 343 q 637 58 718 131 q 417 -14 556 -14 m 417 85 q 558 131 506 85 q 610 254 610 176 q 575 368 610 317 q 474 451 540 419 l 343 517 q 186 631 236 568 q 136 779 136 693 q 171 910 136 854 q 269 998 206 967 q 417 1029 332 1029 q 565 998 501 1029 q 665 910 629 967 q 700 779 700 854 q 650 632 700 694 q 488 515 600 569 l 357 451 q 258 369 292 419 q 224 256 224 318 q 276 131 224 178 q 417 85 328 85 z "},"9":{"ha":833,"x_min":101,"x_max":732,"o":"m 269 0 l 558 465 l 553 469 q 481 412 528 435 q 372 389 433 389 q 229 428 290 389 q 135 538 168 467 q 101 703 101 608 q 140 874 101 801 q 251 987 179 946 q 415 1028 322 1028 q 583 987 511 1028 q 693 874 654 946 q 732 703 732 801 q 712 559 732 631 q 650 421 692 488 l 392 0 l 269 0 m 417 481 q 566 542 510 481 q 622 704 622 603 q 567 867 624 806 q 417 929 510 929 q 267 867 324 929 q 211 703 211 806 q 267 542 211 603 q 417 481 324 481 z "},"A":{"ha":833,"x_min":76,"x_max":757,"o":"m 76 0 l 344 1014 l 490 1014 l 757 0 l 646 0 l 575 275 l 258 275 l 189 0 l 76 0 m 281 369 l 551 369 l 465 708 q 432 851 444 793 q 417 925 419 908 q 401 851 414 908 q 368 708 389 793 l 281 369 z "},"Á":{"ha":833,"x_min":76,"x_max":757,"o":"m 76 0 l 344 1014 l 490 1014 l 757 0 l 646 0 l 575 275 l 258 275 l 189 0 l 76 0 m 281 369 l 551 369 l 465 708 q 432 851 444 793 q 417 925 419 908 q 401 851 414 908 q 368 708 389 793 l 281 369 m 344 1125 l 492 1319 l 613 1319 l 457 1125 l 344 1125 z "},"Ă":{"ha":833,"x_min":76,"x_max":757,"o":"m 76 0 l 344 1014 l 490 1014 l 757 0 l 646 0 l 575 275 l 258 275 l 189 0 l 76 0 m 281 369 l 551 369 l 465 708 q 432 851 444 793 q 417 925 419 908 q 401 851 414 908 q 368 708 389 793 l 281 369 m 417 1119 q 259 1174 318 1119 q 200 1319 200 1229 l 289 1319 q 323 1228 289 1263 q 415 1193 357 1193 q 510 1228 475 1193 q 544 1319 544 1263 l 633 1319 q 574 1174 633 1229 q 417 1119 515 1119 z "},"Ắ":{"ha":833,"x_min":76,"x_max":757,"o":"m 338 1249 l 481 1417 l 601 1417 l 449 1249 l 338 1249 m 383 1083 q 245 1132 297 1083 q 193 1263 193 1181 l 281 1263 q 309 1188 281 1215 q 383 1160 338 1160 l 449 1160 q 524 1188 496 1160 q 553 1263 553 1215 l 640 1263 q 588 1132 640 1181 q 449 1083 536 1083 l 383 1083 m 76 0 l 344 1014 l 490 1014 l 757 0 l 646 0 l 575 275 l 258 275 l 189 0 l 76 0 m 281 369 l 551 369 l 465 708 q 432 851 444 793 q 417 925 419 908 q 401 851 414 908 q 368 708 389 793 l 281 369 z "},"Ặ":{"ha":833,"x_min":76,"x_max":757,"o":"m 417 1119 q 259 1174 318 1119 q 200 1319 200 1229 l 289 1319 q 323 1228 289 1263 q 415 1193 357 1193 q 510 1228 475 1193 q 544 1319 544 1263 l 633 1319 q 574 1174 633 1229 q 417 1119 515 1119 m 76 0 l 344 1014 l 490 1014 l 757 0 l 646 0 l 575 275 l 258 275 l 189 0 l 76 0 m 281 369 l 551 369 l 465 708 q 432 851 444 793 q 417 925 419 908 q 401 851 414 908 q 368 708 389 793 l 281 369 m 431 -293 q 362 -270 388 -293 q 336 -208 336 -247 q 362 -145 336 -168 q 431 -122 388 -122 q 499 -145 474 -122 q 525 -208 525 -168 q 499 -270 525 -247 q 431 -293 474 -293 z "},"Ằ":{"ha":833,"x_min":76,"x_max":757,"o":"m 383 1083 q 245 1132 297 1083 q 193 1263 193 1181 l 281 1263 q 309 1188 281 1215 q 383 1160 338 1160 l 449 1160 q 524 1188 496 1160 q 553 1263 553 1215 l 640 1263 q 588 1132 640 1181 q 449 1083 536 1083 l 383 1083 m 388 1249 l 247 1417 l 367 1417 l 497 1249 l 388 1249 m 76 0 l 344 1014 l 490 1014 l 757 0 l 646 0 l 575 275 l 258 275 l 189 0 l 76 0 m 281 369 l 551 369 l 465 708 q 432 851 444 793 q 417 925 419 908 q 401 851 414 908 q 368 708 389 793 l 281 369 z "},"Ẳ":{"ha":833,"x_min":76,"x_max":757,"o":"m 358 1222 l 424 1299 q 438 1328 438 1315 q 417 1343 438 1343 l 315 1343 l 315 1417 l 440 1417 q 501 1399 479 1417 q 522 1350 522 1382 q 515 1311 522 1331 q 496 1276 508 1292 l 451 1222 l 358 1222 m 383 1083 q 245 1132 297 1083 q 193 1263 193 1181 l 281 1263 q 309 1188 281 1215 q 383 1160 338 1160 l 449 1160 q 524 1188 496 1160 q 553 1263 553 1215 l 640 1263 q 588 1132 640 1181 q 449 1083 536 1083 l 383 1083 m 76 0 l 344 1014 l 490 1014 l 757 0 l 646 0 l 575 275 l 258 275 l 189 0 l 76 0 m 281 369 l 551 369 l 465 708 q 432 851 444 793 q 417 925 419 908 q 401 851 414 908 q 368 708 389 793 l 281 369 z "},"Ẵ":{"ha":833,"x_min":76,"x_max":757,"o":"m 383 1083 q 245 1126 297 1083 q 193 1250 193 1169 l 281 1250 q 309 1182 281 1204 q 383 1160 338 1160 l 449 1160 q 524 1182 496 1160 q 553 1250 553 1204 l 640 1250 q 588 1126 640 1169 q 449 1083 536 1083 l 383 1083 m 522 1278 q 452 1288 481 1278 q 403 1313 424 1299 q 363 1338 382 1328 q 319 1349 344 1349 q 286 1337 299 1349 q 274 1304 274 1325 l 274 1292 l 193 1292 l 193 1304 q 226 1386 193 1356 q 314 1417 258 1417 q 385 1406 357 1417 q 434 1381 414 1396 q 473 1356 454 1367 q 515 1346 492 1346 q 548 1358 536 1346 q 560 1390 560 1371 l 560 1403 l 640 1403 l 640 1390 q 609 1308 640 1339 q 522 1278 578 1278 m 76 0 l 344 1014 l 490 1014 l 757 0 l 646 0 l 575 275 l 258 275 l 189 0 l 76 0 m 281 369 l 551 369 l 465 708 q 432 851 444 793 q 417 925 419 908 q 401 851 414 908 q 368 708 389 793 l 281 369 z "},"Ǎ":{"ha":833,"x_min":76,"x_max":757,"o":"m 76 0 l 344 1014 l 490 1014 l 757 0 l 646 0 l 575 275 l 258 275 l 189 0 l 76 0 m 281 369 l 551 369 l 465 708 q 432 851 444 793 q 417 925 419 908 q 401 851 414 908 q 368 708 389 793 l 281 369 m 364 1125 l 176 1319 l 296 1319 l 418 1200 l 536 1319 l 657 1319 l 471 1125 l 364 1125 z "},"Â":{"ha":833,"x_min":76,"x_max":757,"o":"m 76 0 l 344 1014 l 490 1014 l 757 0 l 646 0 l 575 275 l 258 275 l 189 0 l 76 0 m 281 369 l 551 369 l 465 708 q 432 851 444 793 q 417 925 419 908 q 401 851 414 908 q 368 708 389 793 l 281 369 m 176 1125 l 363 1319 l 469 1319 l 657 1125 l 538 1125 l 417 1244 l 299 1125 l 176 1125 z "},"Ấ":{"ha":833,"x_min":76,"x_max":838,"o":"m 565 1249 l 711 1417 l 838 1417 l 683 1249 l 565 1249 m 178 1083 l 363 1278 l 471 1278 l 657 1083 l 536 1083 l 417 1203 l 297 1083 l 178 1083 m 76 0 l 344 1014 l 490 1014 l 757 0 l 646 0 l 575 275 l 258 275 l 189 0 l 76 0 m 281 369 l 551 369 l 465 708 q 432 851 444 793 q 417 925 419 908 q 401 851 414 908 q 368 708 389 793 l 281 369 z "},"Ậ":{"ha":833,"x_min":76,"x_max":757,"o":"m 176 1125 l 363 1319 l 469 1319 l 657 1125 l 538 1125 l 417 1244 l 299 1125 l 176 1125 m 76 0 l 344 1014 l 490 1014 l 757 0 l 646 0 l 575 275 l 258 275 l 189 0 l 76 0 m 281 369 l 551 369 l 465 708 q 432 851 444 793 q 417 925 419 908 q 401 851 414 908 q 368 708 389 793 l 281 369 m 431 -293 q 362 -270 388 -293 q 336 -208 336 -247 q 362 -145 336 -168 q 431 -122 388 -122 q 499 -145 474 -122 q 525 -208 525 -168 q 499 -270 525 -247 q 431 -293 474 -293 z "},"Ầ":{"ha":833,"x_min":76,"x_max":757,"o":"m 618 1249 l 451 1417 l 576 1417 l 733 1249 l 618 1249 m 178 1083 l 363 1278 l 471 1278 l 657 1083 l 536 1083 l 417 1203 l 297 1083 l 178 1083 m 76 0 l 344 1014 l 490 1014 l 757 0 l 646 0 l 575 275 l 258 275 l 189 0 l 76 0 m 281 369 l 551 369 l 465 708 q 432 851 444 793 q 417 925 419 908 q 401 851 414 908 q 368 708 389 793 l 281 369 z "},"Ẩ":{"ha":833,"x_min":76,"x_max":760,"o":"m 589 1222 l 654 1290 q 669 1321 669 1306 q 644 1344 669 1344 l 550 1344 l 550 1417 l 663 1417 q 733 1394 707 1417 q 760 1335 760 1372 q 753 1300 760 1317 q 733 1269 746 1283 l 685 1222 l 589 1222 m 178 1083 l 363 1278 l 471 1278 l 657 1083 l 536 1083 l 417 1203 l 297 1083 l 178 1083 m 76 0 l 344 1014 l 490 1014 l 757 0 l 646 0 l 575 275 l 258 275 l 189 0 l 76 0 m 281 369 l 551 369 l 465 708 q 432 851 444 793 q 417 925 419 908 q 401 851 414 908 q 368 708 389 793 l 281 369 z "},"Ẫ":{"ha":833,"x_min":76,"x_max":757,"o":"m 522 1278 q 452 1288 481 1278 q 403 1313 424 1299 q 363 1338 382 1328 q 319 1349 344 1349 q 286 1337 299 1349 q 274 1304 274 1325 l 274 1292 l 193 1292 l 193 1304 q 226 1386 193 1356 q 314 1417 258 1417 q 385 1406 357 1417 q 434 1381 414 1396 q 473 1356 454 1367 q 515 1346 492 1346 q 548 1358 536 1346 q 560 1390 560 1371 l 560 1403 l 640 1403 l 640 1390 q 609 1308 640 1339 q 522 1278 578 1278 m 178 1083 l 340 1240 l 493 1240 l 656 1083 l 535 1083 l 417 1192 l 297 1083 l 178 1083 m 76 0 l 344 1014 l 490 1014 l 757 0 l 646 0 l 575 275 l 258 275 l 189 0 l 76 0 m 281 369 l 551 369 l 465 708 q 432 851 444 793 q 417 925 419 908 q 401 851 414 908 q 368 708 389 793 l 281 369 z "},"Ä":{"ha":833,"x_min":76,"x_max":757,"o":"m 76 0 l 344 1014 l 490 1014 l 757 0 l 646 0 l 575 275 l 258 275 l 189 0 l 76 0 m 281 369 l 551 369 l 465 708 q 432 851 444 793 q 417 925 419 908 q 401 851 414 908 q 368 708 389 793 l 281 369 m 571 1138 q 510 1160 533 1138 q 486 1222 486 1183 q 510 1285 486 1263 q 571 1308 533 1308 q 633 1285 610 1308 q 656 1222 656 1263 q 633 1160 656 1183 q 571 1138 610 1138 m 265 1138 q 204 1160 228 1138 q 181 1222 181 1183 q 204 1285 181 1263 q 265 1308 228 1308 q 326 1285 303 1308 q 350 1222 350 1263 q 326 1160 350 1183 q 265 1138 303 1138 z "},"Ạ":{"ha":833,"x_min":76,"x_max":757,"o":"m 76 0 l 344 1014 l 490 1014 l 757 0 l 646 0 l 575 275 l 258 275 l 189 0 l 76 0 m 281 369 l 551 369 l 465 708 q 432 851 444 793 q 417 925 419 908 q 401 851 414 908 q 368 708 389 793 l 281 369 m 431 -293 q 362 -270 388 -293 q 336 -208 336 -247 q 362 -145 336 -168 q 431 -122 388 -122 q 499 -145 474 -122 q 525 -208 525 -168 q 499 -270 525 -247 q 431 -293 474 -293 z "},"À":{"ha":833,"x_min":76,"x_max":757,"o":"m 76 0 l 344 1014 l 490 1014 l 757 0 l 646 0 l 575 275 l 258 275 l 189 0 l 76 0 m 281 369 l 551 369 l 465 708 q 432 851 444 793 q 417 925 419 908 q 401 851 414 908 q 368 708 389 793 l 281 369 m 376 1125 l 218 1319 l 343 1319 l 494 1125 l 376 1125 z "},"Ả":{"ha":833,"x_min":76,"x_max":757,"o":"m 76 0 l 344 1014 l 490 1014 l 757 0 l 646 0 l 575 275 l 258 275 l 189 0 l 76 0 m 281 369 l 551 369 l 465 708 q 432 851 444 793 q 417 925 419 908 q 401 851 414 908 q 368 708 389 793 l 281 369 m 389 1132 l 461 1224 q 482 1271 482 1253 q 435 1301 482 1301 l 321 1301 l 321 1381 l 461 1381 q 544 1355 513 1381 q 576 1283 576 1329 q 551 1208 576 1240 l 494 1132 l 389 1132 z "},"Ā":{"ha":833,"x_min":76,"x_max":757,"o":"m 76 0 l 344 1014 l 490 1014 l 757 0 l 646 0 l 575 275 l 258 275 l 189 0 l 76 0 m 281 369 l 551 369 l 465 708 q 432 851 444 793 q 417 925 419 908 q 401 851 414 908 q 368 708 389 793 l 281 369 m 201 1172 l 201 1264 l 632 1264 l 632 1172 l 201 1172 z "},"Ą":{"ha":833,"x_min":76,"x_max":808,"o":"m 701 -279 q 588 -244 631 -279 q 544 -154 544 -210 q 572 -72 544 -114 q 661 14 599 -31 l 751 14 l 736 1 q 669 -71 690 -37 q 649 -133 649 -104 q 669 -183 649 -164 q 722 -203 689 -203 l 808 -203 l 808 -279 l 701 -279 m 76 0 l 344 1014 l 490 1014 l 757 0 l 646 0 l 575 275 l 258 275 l 189 0 l 76 0 m 281 369 l 551 369 l 465 708 q 432 851 444 793 q 417 925 419 908 q 401 851 414 908 q 368 708 389 793 l 281 369 z "},"Å":{"ha":833,"x_min":76,"x_max":757,"o":"m 76 0 l 344 1014 l 490 1014 l 757 0 l 646 0 l 575 275 l 258 275 l 189 0 l 76 0 m 281 369 l 551 369 l 465 708 q 432 851 444 793 q 417 925 419 908 q 401 851 414 908 q 368 708 389 793 l 281 369 m 417 1069 q 300 1112 344 1069 q 256 1222 256 1154 q 300 1333 256 1290 q 417 1375 344 1375 q 533 1333 489 1375 q 578 1222 578 1290 q 533 1112 578 1154 q 417 1069 489 1069 m 417 1136 q 478 1160 456 1136 q 501 1222 501 1183 q 478 1285 501 1261 q 417 1310 456 1310 q 355 1285 378 1310 q 332 1222 332 1261 q 355 1160 332 1183 q 417 1136 378 1136 z "},"Ã":{"ha":833,"x_min":76,"x_max":757,"o":"m 76 0 l 344 1014 l 490 1014 l 757 0 l 646 0 l 575 275 l 258 275 l 189 0 l 76 0 m 281 369 l 551 369 l 465 708 q 432 851 444 793 q 417 925 419 908 q 401 851 414 908 q 368 708 389 793 l 281 369 m 515 1132 q 449 1148 475 1132 q 403 1185 422 1164 q 367 1222 385 1206 q 325 1238 349 1238 q 289 1224 303 1238 q 275 1182 275 1210 l 275 1139 l 194 1139 l 194 1182 q 228 1278 194 1244 q 319 1313 263 1313 q 387 1297 360 1313 q 433 1260 414 1281 q 469 1223 451 1239 q 511 1207 486 1207 q 546 1221 533 1207 q 558 1263 558 1235 l 558 1306 l 639 1306 l 639 1263 q 606 1166 639 1200 q 515 1132 572 1132 z "},"Æ":{"ha":833,"x_min":43,"x_max":792,"o":"m 43 0 l 261 1014 l 792 1014 l 792 914 l 529 914 l 529 576 l 753 576 l 753 476 l 529 476 l 529 100 l 792 100 l 792 0 l 422 0 l 422 286 l 215 286 l 154 0 l 43 0 m 235 379 l 422 379 l 422 914 l 346 914 l 235 379 z "},"Ǽ":{"ha":833,"x_min":43,"x_max":792,"o":"m 43 0 l 261 1014 l 792 1014 l 792 914 l 529 914 l 529 576 l 753 576 l 753 476 l 529 476 l 529 100 l 792 100 l 792 0 l 422 0 l 422 286 l 215 286 l 154 0 l 43 0 m 235 379 l 422 379 l 422 914 l 346 914 l 235 379 m 351 1125 l 499 1319 l 619 1319 l 464 1125 l 351 1125 z "},"B":{"ha":833,"x_min":136,"x_max":731,"o":"m 136 0 l 136 1014 l 415 1014 q 629 944 551 1014 q 707 751 707 874 q 678 630 707 682 q 598 549 650 578 q 472 522 546 521 l 472 542 q 609 510 551 542 q 699 420 667 479 q 731 281 731 361 q 694 131 731 194 q 592 34 658 68 q 432 0 525 0 l 136 0 m 243 100 l 422 100 q 569 149 515 100 q 622 283 622 199 q 569 424 622 371 q 422 478 515 478 l 243 478 l 243 100 m 243 574 l 415 574 q 549 619 500 574 q 597 744 597 665 q 549 869 597 824 q 415 914 501 914 l 243 914 l 243 574 z "},"C":{"ha":833,"x_min":129,"x_max":717,"o":"m 424 -14 q 267 21 333 -14 q 165 121 201 56 q 129 274 129 186 l 129 740 q 165 894 129 829 q 267 993 201 958 q 424 1028 333 1028 q 578 992 513 1028 q 681 892 644 957 q 717 736 717 826 l 607 736 q 558 878 607 828 q 424 929 510 929 q 288 880 338 929 q 239 740 239 831 l 239 274 q 288 135 239 185 q 424 85 338 85 q 558 135 510 85 q 607 278 607 186 l 717 278 q 681 123 717 189 q 578 22 644 57 q 424 -14 513 -14 z "},"Ć":{"ha":833,"x_min":129,"x_max":717,"o":"m 424 -14 q 267 21 333 -14 q 165 121 201 56 q 129 274 129 186 l 129 740 q 165 894 129 829 q 267 993 201 958 q 424 1028 333 1028 q 578 992 513 1028 q 681 892 644 957 q 717 736 717 826 l 607 736 q 558 878 607 828 q 424 929 510 929 q 288 880 338 929 q 239 740 239 831 l 239 274 q 288 135 239 185 q 424 85 338 85 q 558 135 510 85 q 607 278 607 186 l 717 278 q 681 123 717 189 q 578 22 644 57 q 424 -14 513 -14 m 351 1125 l 499 1319 l 619 1319 l 464 1125 l 351 1125 z "},"Č":{"ha":833,"x_min":129,"x_max":717,"o":"m 424 -14 q 267 21 333 -14 q 165 121 201 56 q 129 274 129 186 l 129 740 q 165 894 129 829 q 267 993 201 958 q 424 1028 333 1028 q 578 992 513 1028 q 681 892 644 957 q 717 736 717 826 l 607 736 q 558 878 607 828 q 424 929 510 929 q 288 880 338 929 q 239 740 239 831 l 239 274 q 288 135 239 185 q 424 85 338 85 q 558 135 510 85 q 607 278 607 186 l 717 278 q 681 123 717 189 q 578 22 644 57 q 424 -14 513 -14 m 371 1125 l 183 1319 l 303 1319 l 425 1200 l 543 1319 l 664 1319 l 478 1125 l 371 1125 z "},"Ç":{"ha":833,"x_min":129,"x_max":717,"o":"m 303 -279 l 303 -210 l 404 -210 q 454 -193 435 -210 q 474 -158 474 -176 q 433 -113 474 -132 q 324 -94 393 -94 l 372 36 l 446 36 l 415 -49 q 488 -65 450 -51 q 552 -104 526 -79 q 578 -165 578 -129 q 534 -246 578 -212 q 419 -279 490 -279 l 303 -279 m 424 -14 q 267 21 333 -14 q 165 121 201 56 q 129 274 129 186 l 129 740 q 165 894 129 829 q 267 993 201 958 q 424 1028 333 1028 q 578 992 513 1028 q 681 892 644 957 q 717 736 717 826 l 607 736 q 558 878 607 828 q 424 929 510 929 q 288 880 338 929 q 239 740 239 831 l 239 274 q 288 135 239 185 q 424 85 338 85 q 558 135 510 85 q 607 278 607 186 l 717 278 q 681 123 717 189 q 578 22 644 57 q 424 -14 513 -14 z "},"Ĉ":{"ha":833,"x_min":129,"x_max":717,"o":"m 424 -14 q 267 21 333 -14 q 165 121 201 56 q 129 274 129 186 l 129 740 q 165 894 129 829 q 267 993 201 958 q 424 1028 333 1028 q 578 992 513 1028 q 681 892 644 957 q 717 736 717 826 l 607 736 q 558 878 607 828 q 424 929 510 929 q 288 880 338 929 q 239 740 239 831 l 239 274 q 288 135 239 185 q 424 85 338 85 q 558 135 510 85 q 607 278 607 186 l 717 278 q 681 123 717 189 q 578 22 644 57 q 424 -14 513 -14 m 183 1125 l 369 1319 l 476 1319 l 664 1125 l 544 1125 l 424 1244 l 306 1125 l 183 1125 z "},"Ċ":{"ha":833,"x_min":129,"x_max":717,"o":"m 424 -14 q 267 21 333 -14 q 165 121 201 56 q 129 274 129 186 l 129 740 q 165 894 129 829 q 267 993 201 958 q 424 1028 333 1028 q 578 992 513 1028 q 681 892 644 957 q 717 736 717 826 l 607 736 q 558 878 607 828 q 424 929 510 929 q 288 880 338 929 q 239 740 239 831 l 239 274 q 288 135 239 185 q 424 85 338 85 q 558 135 510 85 q 607 278 607 186 l 717 278 q 681 123 717 189 q 578 22 644 57 q 424 -14 513 -14 m 424 1136 q 355 1160 381 1136 q 329 1222 329 1183 q 355 1285 329 1261 q 424 1308 381 1308 q 492 1285 467 1308 q 518 1222 518 1261 q 492 1160 518 1183 q 424 1136 467 1136 z "},"D":{"ha":833,"x_min":135,"x_max":704,"o":"m 135 0 l 135 1014 l 386 1014 q 555 976 483 1014 q 665 870 626 939 q 704 710 704 801 l 704 306 q 665 144 704 213 q 555 38 626 75 q 386 0 483 0 l 135 0 m 244 99 l 386 99 q 539 154 483 99 q 594 306 594 210 l 594 710 q 538 860 594 804 q 386 915 482 915 l 244 915 l 244 99 z "},"Ð":{"ha":833,"x_min":14,"x_max":704,"o":"m 14 471 l 14 564 l 403 564 l 403 471 l 14 471 m 135 0 l 135 1014 l 386 1014 q 555 976 483 1014 q 665 870 626 939 q 704 710 704 801 l 704 306 q 665 144 704 213 q 555 38 626 75 q 386 0 483 0 l 135 0 m 244 99 l 386 99 q 539 154 483 99 q 594 306 594 210 l 594 710 q 538 860 594 804 q 386 915 482 915 l 244 915 l 244 99 z "},"Ď":{"ha":833,"x_min":135,"x_max":704,"o":"m 135 0 l 135 1014 l 386 1014 q 555 976 483 1014 q 665 870 626 939 q 704 710 704 801 l 704 306 q 665 144 704 213 q 555 38 626 75 q 386 0 483 0 l 135 0 m 244 99 l 386 99 q 539 154 483 99 q 594 306 594 210 l 594 710 q 538 860 594 804 q 386 915 482 915 l 244 915 l 244 99 m 364 1125 l 176 1319 l 296 1319 l 418 1200 l 536 1319 l 657 1319 l 471 1125 l 364 1125 z "},"Đ":{"ha":833,"x_min":14,"x_max":704,"o":"m 14 471 l 14 564 l 403 564 l 403 471 l 14 471 m 135 0 l 135 1014 l 386 1014 q 555 976 483 1014 q 665 870 626 939 q 704 710 704 801 l 704 306 q 665 144 704 213 q 555 38 626 75 q 386 0 483 0 l 135 0 m 244 99 l 386 99 q 539 154 483 99 q 594 306 594 210 l 594 710 q 538 860 594 804 q 386 915 482 915 l 244 915 l 244 99 z "},"E":{"ha":833,"x_min":146,"x_max":718,"o":"m 146 0 l 146 1014 l 718 1014 l 718 914 l 256 914 l 256 579 l 669 579 l 669 481 l 256 481 l 256 100 l 718 100 l 718 0 l 146 0 z "},"É":{"ha":833,"x_min":146,"x_max":718,"o":"m 146 0 l 146 1014 l 718 1014 l 718 914 l 256 914 l 256 579 l 669 579 l 669 481 l 256 481 l 256 100 l 718 100 l 718 0 l 146 0 m 372 1125 l 519 1319 l 640 1319 l 485 1125 l 372 1125 z "},"Ĕ":{"ha":833,"x_min":146,"x_max":718,"o":"m 146 0 l 146 1014 l 718 1014 l 718 914 l 256 914 l 256 579 l 669 579 l 669 481 l 256 481 l 256 100 l 718 100 l 718 0 l 146 0 m 444 1119 q 287 1174 346 1119 q 228 1319 228 1229 l 317 1319 q 351 1228 317 1263 q 443 1193 385 1193 q 538 1228 503 1193 q 572 1319 572 1263 l 661 1319 q 602 1174 661 1229 q 444 1119 543 1119 z "},"Ě":{"ha":833,"x_min":146,"x_max":718,"o":"m 146 0 l 146 1014 l 718 1014 l 718 914 l 256 914 l 256 579 l 669 579 l 669 481 l 256 481 l 256 100 l 718 100 l 718 0 l 146 0 m 392 1125 l 204 1319 l 324 1319 l 446 1200 l 564 1319 l 685 1319 l 499 1125 l 392 1125 z "},"Ê":{"ha":833,"x_min":146,"x_max":718,"o":"m 146 0 l 146 1014 l 718 1014 l 718 914 l 256 914 l 256 579 l 669 579 l 669 481 l 256 481 l 256 100 l 718 100 l 718 0 l 146 0 m 204 1125 l 390 1319 l 497 1319 l 685 1125 l 565 1125 l 444 1244 l 326 1125 l 204 1125 z "},"Ế":{"ha":833,"x_min":146,"x_max":838,"o":"m 146 0 l 146 1014 l 718 1014 l 718 914 l 256 914 l 256 579 l 669 579 l 669 481 l 256 481 l 256 100 l 718 100 l 718 0 l 146 0 m 565 1249 l 711 1417 l 838 1417 l 683 1249 l 565 1249 m 178 1083 l 363 1278 l 471 1278 l 657 1083 l 536 1083 l 417 1203 l 297 1083 l 178 1083 z "},"Ệ":{"ha":833,"x_min":146,"x_max":718,"o":"m 176 1125 l 363 1319 l 469 1319 l 657 1125 l 538 1125 l 417 1244 l 299 1125 l 176 1125 m 146 0 l 146 1014 l 718 1014 l 718 914 l 256 914 l 256 579 l 669 579 l 669 481 l 256 481 l 256 100 l 718 100 l 718 0 l 146 0 m 444 -293 q 376 -270 401 -293 q 350 -208 350 -247 q 376 -145 350 -168 q 444 -122 401 -122 q 513 -145 488 -122 q 539 -208 539 -168 q 513 -270 539 -247 q 444 -293 488 -293 z "},"Ề":{"ha":833,"x_min":146,"x_max":733,"o":"m 146 0 l 146 1014 l 718 1014 l 718 914 l 256 914 l 256 579 l 669 579 l 669 481 l 256 481 l 256 100 l 718 100 l 718 0 l 146 0 m 618 1249 l 451 1417 l 576 1417 l 733 1249 l 618 1249 m 178 1083 l 363 1278 l 471 1278 l 657 1083 l 536 1083 l 417 1203 l 297 1083 l 178 1083 z "},"Ể":{"ha":833,"x_min":146,"x_max":760,"o":"m 146 0 l 146 1014 l 718 1014 l 718 914 l 256 914 l 256 579 l 669 579 l 669 481 l 256 481 l 256 100 l 718 100 l 718 0 l 146 0 m 589 1222 l 654 1290 q 669 1321 669 1306 q 644 1344 669 1344 l 550 1344 l 550 1417 l 663 1417 q 733 1394 707 1417 q 760 1335 760 1372 q 753 1300 760 1317 q 733 1269 746 1283 l 685 1222 l 589 1222 m 178 1083 l 363 1278 l 471 1278 l 657 1083 l 536 1083 l 417 1203 l 297 1083 l 178 1083 z "},"Ễ":{"ha":833,"x_min":146,"x_max":718,"o":"m 146 0 l 146 1014 l 718 1014 l 718 914 l 256 914 l 256 579 l 669 579 l 669 481 l 256 481 l 256 100 l 718 100 l 718 0 l 146 0 m 522 1278 q 452 1288 481 1278 q 403 1313 424 1299 q 363 1338 382 1328 q 319 1349 344 1349 q 286 1337 299 1349 q 274 1304 274 1325 l 274 1292 l 193 1292 l 193 1304 q 226 1386 193 1356 q 314 1417 258 1417 q 385 1406 357 1417 q 434 1381 414 1396 q 473 1356 454 1367 q 515 1346 492 1346 q 548 1358 536 1346 q 560 1390 560 1371 l 560 1403 l 640 1403 l 640 1390 q 609 1308 640 1339 q 522 1278 578 1278 m 178 1083 l 340 1240 l 493 1240 l 656 1083 l 535 1083 l 417 1192 l 297 1083 l 178 1083 z "},"Ë":{"ha":833,"x_min":146,"x_max":718,"o":"m 146 0 l 146 1014 l 718 1014 l 718 914 l 256 914 l 256 579 l 669 579 l 669 481 l 256 481 l 256 100 l 718 100 l 718 0 l 146 0 m 599 1138 q 538 1160 561 1138 q 514 1222 514 1183 q 538 1285 514 1263 q 599 1308 561 1308 q 660 1285 638 1308 q 683 1222 683 1263 q 660 1160 683 1183 q 599 1138 638 1138 m 293 1138 q 232 1160 256 1138 q 208 1222 208 1183 q 232 1285 208 1263 q 293 1308 256 1308 q 354 1285 331 1308 q 378 1222 378 1263 q 354 1160 378 1183 q 293 1138 331 1138 z "},"Ė":{"ha":833,"x_min":146,"x_max":718,"o":"m 146 0 l 146 1014 l 718 1014 l 718 914 l 256 914 l 256 579 l 669 579 l 669 481 l 256 481 l 256 100 l 718 100 l 718 0 l 146 0 m 444 1136 q 376 1160 401 1136 q 350 1222 350 1183 q 376 1285 350 1261 q 444 1308 401 1308 q 513 1285 488 1308 q 539 1222 539 1261 q 513 1160 539 1183 q 444 1136 488 1136 z "},"Ẹ":{"ha":833,"x_min":146,"x_max":718,"o":"m 146 0 l 146 1014 l 718 1014 l 718 914 l 256 914 l 256 579 l 669 579 l 669 481 l 256 481 l 256 100 l 718 100 l 718 0 l 146 0 m 444 -293 q 376 -270 401 -293 q 350 -208 350 -247 q 376 -145 350 -168 q 444 -122 401 -122 q 513 -145 488 -122 q 539 -208 539 -168 q 513 -270 539 -247 q 444 -293 488 -293 z "},"È":{"ha":833,"x_min":146,"x_max":718,"o":"m 146 0 l 146 1014 l 718 1014 l 718 914 l 256 914 l 256 579 l 669 579 l 669 481 l 256 481 l 256 100 l 718 100 l 718 0 l 146 0 m 404 1125 l 246 1319 l 371 1319 l 522 1125 l 404 1125 z "},"Ẻ":{"ha":833,"x_min":146,"x_max":718,"o":"m 146 0 l 146 1014 l 718 1014 l 718 914 l 256 914 l 256 579 l 669 579 l 669 481 l 256 481 l 256 100 l 718 100 l 718 0 l 146 0 m 364 1111 l 431 1203 q 451 1250 451 1233 q 406 1281 451 1281 l 296 1281 l 296 1360 l 410 1360 q 508 1333 471 1360 q 546 1261 546 1306 q 521 1188 546 1222 l 469 1111 l 364 1111 z "},"Ē":{"ha":833,"x_min":146,"x_max":718,"o":"m 146 0 l 146 1014 l 718 1014 l 718 914 l 256 914 l 256 579 l 669 579 l 669 481 l 256 481 l 256 100 l 718 100 l 718 0 l 146 0 m 229 1172 l 229 1264 l 660 1264 l 660 1172 l 229 1172 z "},"Ę":{"ha":833,"x_min":146,"x_max":725,"o":"m 619 -279 q 504 -244 547 -279 q 461 -154 461 -210 q 489 -72 461 -114 q 579 14 517 -31 l 669 14 l 654 1 q 587 -71 608 -37 q 565 -133 565 -104 q 586 -183 565 -164 q 640 -203 607 -203 l 725 -203 l 725 -279 l 619 -279 m 146 0 l 146 1014 l 718 1014 l 718 914 l 256 914 l 256 579 l 669 579 l 669 481 l 256 481 l 256 100 l 718 100 l 718 0 l 146 0 z "},"Ẽ":{"ha":833,"x_min":146,"x_max":718,"o":"m 146 0 l 146 1014 l 718 1014 l 718 914 l 256 914 l 256 579 l 669 579 l 669 481 l 256 481 l 256 100 l 718 100 l 718 0 l 146 0 m 543 1132 q 476 1148 503 1132 q 431 1185 450 1164 q 394 1222 413 1206 q 353 1238 376 1238 q 317 1224 331 1238 q 303 1182 303 1210 l 303 1139 l 222 1139 l 222 1182 q 256 1278 222 1244 q 347 1313 290 1313 q 415 1297 388 1313 q 460 1260 442 1281 q 497 1223 479 1239 q 539 1207 514 1207 q 574 1221 561 1207 q 586 1263 586 1235 l 586 1306 l 667 1306 l 667 1263 q 633 1166 667 1200 q 543 1132 600 1132 z "},"F":{"ha":833,"x_min":139,"x_max":729,"o":"m 139 0 l 139 1015 l 729 1015 l 729 914 l 247 914 l 247 558 l 690 558 l 690 458 l 250 458 l 250 0 l 139 0 z "},"G":{"ha":833,"x_min":129,"x_max":717,"o":"m 424 -14 q 267 21 333 -14 q 165 121 201 56 q 129 274 129 186 l 129 740 q 165 894 129 829 q 267 993 201 958 q 424 1028 333 1028 q 578 992 513 1028 q 681 892 644 957 q 717 736 717 826 l 607 736 q 558 878 607 828 q 424 929 510 929 q 288 880 338 929 q 239 740 239 831 l 239 274 q 288 135 239 185 q 424 85 338 85 q 558 135 510 85 q 607 278 607 186 l 607 410 l 392 410 l 392 511 l 717 511 l 717 278 q 681 123 717 189 q 578 22 644 57 q 424 -14 513 -14 z "},"Ǵ":{"ha":833,"x_min":129,"x_max":717,"o":"m 424 -14 q 267 21 333 -14 q 165 121 201 56 q 129 274 129 186 l 129 740 q 165 894 129 829 q 267 993 201 958 q 424 1028 333 1028 q 578 992 513 1028 q 681 892 644 957 q 717 736 717 826 l 607 736 q 558 878 607 828 q 424 929 510 929 q 288 880 338 929 q 239 740 239 831 l 239 274 q 288 135 239 185 q 424 85 338 85 q 558 135 510 85 q 607 278 607 186 l 607 410 l 392 410 l 392 511 l 717 511 l 717 278 q 681 123 717 189 q 578 22 644 57 q 424 -14 513 -14 m 347 1125 l 494 1319 l 615 1319 l 460 1125 l 347 1125 z "},"Ğ":{"ha":833,"x_min":129,"x_max":717,"o":"m 424 -14 q 267 21 333 -14 q 165 121 201 56 q 129 274 129 186 l 129 740 q 165 894 129 829 q 267 993 201 958 q 424 1028 333 1028 q 578 992 513 1028 q 681 892 644 957 q 717 736 717 826 l 607 736 q 558 878 607 828 q 424 929 510 929 q 288 880 338 929 q 239 740 239 831 l 239 274 q 288 135 239 185 q 424 85 338 85 q 558 135 510 85 q 607 278 607 186 l 607 410 l 392 410 l 392 511 l 717 511 l 717 278 q 681 123 717 189 q 578 22 644 57 q 424 -14 513 -14 m 419 1119 q 262 1174 321 1119 q 203 1319 203 1229 l 292 1319 q 326 1228 292 1263 q 418 1193 360 1193 q 513 1228 478 1193 q 547 1319 547 1263 l 636 1319 q 577 1174 636 1229 q 419 1119 518 1119 z "},"Ǧ":{"ha":833,"x_min":129,"x_max":717,"o":"m 424 -14 q 267 21 333 -14 q 165 121 201 56 q 129 274 129 186 l 129 740 q 165 894 129 829 q 267 993 201 958 q 424 1028 333 1028 q 578 992 513 1028 q 681 892 644 957 q 717 736 717 826 l 607 736 q 558 878 607 828 q 424 929 510 929 q 288 880 338 929 q 239 740 239 831 l 239 274 q 288 135 239 185 q 424 85 338 85 q 558 135 510 85 q 607 278 607 186 l 607 410 l 392 410 l 392 511 l 717 511 l 717 278 q 681 123 717 189 q 578 22 644 57 q 424 -14 513 -14 m 367 1125 l 179 1319 l 299 1319 l 421 1200 l 539 1319 l 660 1319 l 474 1125 l 367 1125 z "},"Ĝ":{"ha":833,"x_min":129,"x_max":717,"o":"m 424 -14 q 267 21 333 -14 q 165 121 201 56 q 129 274 129 186 l 129 740 q 165 894 129 829 q 267 993 201 958 q 424 1028 333 1028 q 578 992 513 1028 q 681 892 644 957 q 717 736 717 826 l 607 736 q 558 878 607 828 q 424 929 510 929 q 288 880 338 929 q 239 740 239 831 l 239 274 q 288 135 239 185 q 424 85 338 85 q 558 135 510 85 q 607 278 607 186 l 607 410 l 392 410 l 392 511 l 717 511 l 717 278 q 681 123 717 189 q 578 22 644 57 q 424 -14 513 -14 m 179 1125 l 365 1319 l 472 1319 l 660 1125 l 540 1125 l 419 1244 l 301 1125 l 179 1125 z "},"Ģ":{"ha":833,"x_min":129,"x_max":717,"o":"m 424 -14 q 267 21 333 -14 q 165 121 201 56 q 129 274 129 186 l 129 740 q 165 894 129 829 q 267 993 201 958 q 424 1028 333 1028 q 578 992 513 1028 q 681 892 644 957 q 717 736 717 826 l 607 736 q 558 878 607 828 q 424 929 510 929 q 288 880 338 929 q 239 740 239 831 l 239 274 q 288 135 239 185 q 424 85 338 85 q 558 135 510 85 q 607 278 607 186 l 607 410 l 392 410 l 392 511 l 717 511 l 717 278 q 681 123 717 189 q 578 22 644 57 q 424 -14 513 -14 m 281 -333 l 410 -132 l 542 -132 l 396 -333 l 281 -333 z "},"Ġ":{"ha":833,"x_min":129,"x_max":717,"o":"m 424 -14 q 267 21 333 -14 q 165 121 201 56 q 129 274 129 186 l 129 740 q 165 894 129 829 q 267 993 201 958 q 424 1028 333 1028 q 578 992 513 1028 q 681 892 644 957 q 717 736 717 826 l 607 736 q 558 878 607 828 q 424 929 510 929 q 288 880 338 929 q 239 740 239 831 l 239 274 q 288 135 239 185 q 424 85 338 85 q 558 135 510 85 q 607 278 607 186 l 607 410 l 392 410 l 392 511 l 717 511 l 717 278 q 681 123 717 189 q 578 22 644 57 q 424 -14 513 -14 m 419 1136 q 351 1160 376 1136 q 325 1222 325 1183 q 351 1285 325 1261 q 419 1308 376 1308 q 488 1285 463 1308 q 514 1222 514 1261 q 488 1160 514 1183 q 419 1136 463 1136 z "},"H":{"ha":833,"x_min":136,"x_max":697,"o":"m 136 0 l 136 1014 l 246 1014 l 246 575 l 588 575 l 588 1014 l 697 1014 l 697 0 l 588 0 l 588 474 l 246 474 l 246 0 l 136 0 z "},"Ħ":{"ha":833,"x_min":14,"x_max":819,"o":"m 14 735 l 14 828 l 819 828 l 819 735 l 14 735 m 136 0 l 136 1014 l 246 1014 l 246 575 l 588 575 l 588 1014 l 697 1014 l 697 0 l 588 0 l 588 474 l 246 474 l 246 0 l 136 0 z "},"Ĥ":{"ha":833,"x_min":136,"x_max":697,"o":"m 136 0 l 136 1014 l 246 1014 l 246 575 l 588 575 l 588 1014 l 697 1014 l 697 0 l 588 0 l 588 474 l 246 474 l 246 0 l 136 0 m 176 1125 l 363 1319 l 469 1319 l 657 1125 l 538 1125 l 417 1244 l 299 1125 l 176 1125 z "},"I":{"ha":833,"x_min":151,"x_max":682,"o":"m 151 0 l 151 100 l 361 100 l 361 914 l 151 914 l 151 1014 l 682 1014 l 682 914 l 474 914 l 474 100 l 682 100 l 682 0 l 151 0 z "},"Í":{"ha":833,"x_min":151,"x_max":682,"o":"m 151 0 l 151 100 l 361 100 l 361 914 l 151 914 l 151 1014 l 682 1014 l 682 914 l 474 914 l 474 100 l 682 100 l 682 0 l 151 0 m 344 1125 l 492 1319 l 613 1319 l 457 1125 l 344 1125 z "},"Ĭ":{"ha":833,"x_min":151,"x_max":682,"o":"m 151 0 l 151 100 l 361 100 l 361 914 l 151 914 l 151 1014 l 682 1014 l 682 914 l 474 914 l 474 100 l 682 100 l 682 0 l 151 0 m 417 1119 q 259 1174 318 1119 q 200 1319 200 1229 l 289 1319 q 323 1228 289 1263 q 415 1193 357 1193 q 510 1228 475 1193 q 544 1319 544 1263 l 633 1319 q 574 1174 633 1229 q 417 1119 515 1119 z "},"Î":{"ha":833,"x_min":151,"x_max":682,"o":"m 151 0 l 151 100 l 361 100 l 361 914 l 151 914 l 151 1014 l 682 1014 l 682 914 l 474 914 l 474 100 l 682 100 l 682 0 l 151 0 m 176 1125 l 363 1319 l 469 1319 l 657 1125 l 538 1125 l 417 1244 l 299 1125 l 176 1125 z "},"Ï":{"ha":833,"x_min":151,"x_max":682,"o":"m 151 0 l 151 100 l 361 100 l 361 914 l 151 914 l 151 1014 l 682 1014 l 682 914 l 474 914 l 474 100 l 682 100 l 682 0 l 151 0 m 571 1138 q 510 1160 533 1138 q 486 1222 486 1183 q 510 1285 486 1263 q 571 1308 533 1308 q 633 1285 610 1308 q 656 1222 656 1263 q 633 1160 656 1183 q 571 1138 610 1138 m 265 1138 q 204 1160 228 1138 q 181 1222 181 1183 q 204 1285 181 1263 q 265 1308 228 1308 q 326 1285 303 1308 q 350 1222 350 1263 q 326 1160 350 1183 q 265 1138 303 1138 z "},"İ":{"ha":833,"x_min":151,"x_max":682,"o":"m 151 0 l 151 100 l 361 100 l 361 914 l 151 914 l 151 1014 l 682 1014 l 682 914 l 474 914 l 474 100 l 682 100 l 682 0 l 151 0 m 417 1136 q 348 1160 374 1136 q 322 1222 322 1183 q 348 1285 322 1261 q 417 1308 374 1308 q 485 1285 460 1308 q 511 1222 511 1261 q 485 1160 511 1183 q 417 1136 460 1136 z "},"Ị":{"ha":833,"x_min":151,"x_max":682,"o":"m 151 0 l 151 100 l 361 100 l 361 914 l 151 914 l 151 1014 l 682 1014 l 682 914 l 474 914 l 474 100 l 682 100 l 682 0 l 151 0 m 417 -293 q 348 -270 374 -293 q 322 -208 322 -247 q 348 -145 322 -168 q 417 -122 374 -122 q 485 -145 460 -122 q 511 -208 511 -168 q 485 -270 511 -247 q 417 -293 460 -293 z "},"Ì":{"ha":833,"x_min":151,"x_max":682,"o":"m 151 0 l 151 100 l 361 100 l 361 914 l 151 914 l 151 1014 l 682 1014 l 682 914 l 474 914 l 474 100 l 682 100 l 682 0 l 151 0 m 376 1125 l 218 1319 l 343 1319 l 494 1125 l 376 1125 z "},"Ỉ":{"ha":833,"x_min":151,"x_max":682,"o":"m 151 0 l 151 100 l 361 100 l 361 914 l 151 914 l 151 1014 l 682 1014 l 682 914 l 474 914 l 474 100 l 682 100 l 682 0 l 151 0 m 389 1111 l 456 1203 q 476 1250 476 1233 q 431 1281 476 1281 l 321 1281 l 321 1360 l 435 1360 q 533 1333 496 1360 q 571 1261 571 1306 q 546 1188 571 1222 l 494 1111 l 389 1111 z "},"Ī":{"ha":833,"x_min":151,"x_max":682,"o":"m 151 0 l 151 100 l 361 100 l 361 914 l 151 914 l 151 1014 l 682 1014 l 682 914 l 474 914 l 474 100 l 682 100 l 682 0 l 151 0 m 201 1172 l 201 1264 l 632 1264 l 632 1172 l 201 1172 z "},"Į":{"ha":833,"x_min":151,"x_max":682,"o":"m 425 -279 q 310 -244 353 -279 q 267 -154 267 -210 q 294 -72 267 -114 q 385 14 322 -31 l 475 14 l 460 1 q 392 -71 414 -37 q 371 -133 371 -104 q 392 -183 371 -164 q 446 -203 413 -203 l 531 -203 l 531 -279 l 425 -279 m 151 0 l 151 100 l 361 100 l 361 914 l 151 914 l 151 1014 l 682 1014 l 682 914 l 474 914 l 474 100 l 682 100 l 682 0 l 151 0 z "},"Ĩ":{"ha":833,"x_min":151,"x_max":682,"o":"m 151 0 l 151 100 l 361 100 l 361 914 l 151 914 l 151 1014 l 682 1014 l 682 914 l 474 914 l 474 100 l 682 100 l 682 0 l 151 0 m 515 1132 q 449 1148 475 1132 q 403 1185 422 1164 q 367 1222 385 1206 q 325 1238 349 1238 q 289 1224 303 1238 q 275 1182 275 1210 l 275 1139 l 194 1139 l 194 1182 q 228 1278 194 1244 q 319 1313 263 1313 q 387 1297 360 1313 q 433 1260 414 1281 q 469 1223 451 1239 q 511 1207 486 1207 q 546 1221 533 1207 q 558 1263 558 1235 l 558 1306 l 639 1306 l 639 1263 q 606 1166 639 1200 q 515 1132 572 1132 z "},"J":{"ha":833,"x_min":72,"x_max":682,"o":"m 376 -14 q 153 67 235 -14 q 72 288 72 147 l 182 288 q 233 138 182 192 q 376 85 285 85 q 520 138 468 85 q 572 288 572 192 l 572 913 l 324 913 l 324 1014 l 682 1014 l 682 288 q 600 67 682 147 q 376 -14 518 -14 z "},"Ĵ":{"ha":833,"x_min":72,"x_max":740,"o":"m 376 -14 q 153 67 235 -14 q 72 288 72 147 l 182 288 q 233 138 182 192 q 376 85 285 85 q 520 138 468 85 q 572 288 572 192 l 572 913 l 324 913 l 324 1014 l 682 1014 l 682 288 q 600 67 682 147 q 376 -14 518 -14 m 260 1125 l 446 1319 l 553 1319 l 740 1125 l 621 1125 l 500 1244 l 382 1125 l 260 1125 z "},"K":{"ha":833,"x_min":135,"x_max":771,"o":"m 135 0 l 135 1014 l 244 1014 l 244 574 l 411 574 l 636 1014 l 757 1014 l 508 528 l 771 0 l 643 0 l 408 476 l 244 476 l 244 0 l 135 0 z "},"Ķ":{"ha":833,"x_min":135,"x_max":771,"o":"m 135 0 l 135 1014 l 244 1014 l 244 574 l 411 574 l 636 1014 l 757 1014 l 508 528 l 771 0 l 643 0 l 408 476 l 244 476 l 244 0 l 135 0 m 274 -333 l 403 -132 l 535 -132 l 389 -333 l 274 -333 z "},"L":{"ha":833,"x_min":161,"x_max":739,"o":"m 161 0 l 161 1014 l 272 1014 l 272 100 l 739 100 l 739 0 l 161 0 z "},"Ĺ":{"ha":833,"x_min":146,"x_max":739,"o":"m 161 0 l 161 1014 l 272 1014 l 272 100 l 739 100 l 739 0 l 161 0 m 146 1125 l 293 1319 l 414 1319 l 258 1125 l 146 1125 z "},"Ľ":{"ha":833,"x_min":161,"x_max":739,"o":"m 161 0 l 161 1014 l 272 1014 l 272 100 l 739 100 l 739 0 l 161 0 m 496 764 l 510 1014 l 615 1014 l 588 764 l 496 764 z "},"Ļ":{"ha":833,"x_min":161,"x_max":739,"o":"m 161 0 l 161 1014 l 272 1014 l 272 100 l 739 100 l 739 0 l 161 0 m 301 -333 l 431 -132 l 563 -132 l 417 -333 l 301 -333 z "},"Ŀ":{"ha":833,"x_min":161,"x_max":739,"o":"m 161 0 l 161 1014 l 272 1014 l 272 100 l 739 100 l 739 0 l 161 0 z "},"Ł":{"ha":833,"x_min":28,"x_max":743,"o":"m 28 324 l 28 425 l 542 774 l 542 672 l 28 324 m 165 0 l 165 1014 l 275 1014 l 275 100 l 743 100 l 743 0 l 165 0 z "},"M":{"ha":833,"x_min":111,"x_max":722,"o":"m 111 0 l 111 1014 l 260 1014 l 375 669 q 401 588 389 629 q 419 522 414 546 q 438 588 426 546 q 464 671 450 629 l 574 1014 l 722 1014 l 722 0 l 614 0 l 614 433 q 617 563 614 492 q 626 707 621 635 q 638 845 632 779 q 647 958 643 911 l 476 446 l 360 446 l 188 958 q 199 848 193 911 q 208 713 204 785 q 216 569 213 642 q 219 433 219 497 l 219 0 l 111 0 z "},"N":{"ha":833,"x_min":132,"x_max":701,"o":"m 132 0 l 132 1014 l 279 1014 l 606 128 q 601 206 604 160 q 597 301 599 253 q 594 389 594 350 l 594 1014 l 701 1014 l 701 0 l 553 0 l 229 886 q 233 815 232 858 q 237 722 235 771 q 239 625 239 672 l 239 0 l 132 0 z "},"Ń":{"ha":833,"x_min":132,"x_max":701,"o":"m 132 0 l 132 1014 l 279 1014 l 606 128 q 601 206 604 160 q 597 301 599 253 q 594 389 594 350 l 594 1014 l 701 1014 l 701 0 l 553 0 l 229 886 q 233 815 232 858 q 237 722 235 771 q 239 625 239 672 l 239 0 l 132 0 m 344 1125 l 492 1319 l 613 1319 l 457 1125 l 344 1125 z "},"Ň":{"ha":833,"x_min":132,"x_max":701,"o":"m 132 0 l 132 1014 l 279 1014 l 606 128 q 601 206 604 160 q 597 301 599 253 q 594 389 594 350 l 594 1014 l 701 1014 l 701 0 l 553 0 l 229 886 q 233 815 232 858 q 237 722 235 771 q 239 625 239 672 l 239 0 l 132 0 m 364 1125 l 176 1319 l 296 1319 l 418 1200 l 536 1319 l 657 1319 l 471 1125 l 364 1125 z "},"Ņ":{"ha":833,"x_min":132,"x_max":701,"o":"m 132 0 l 132 1014 l 279 1014 l 606 128 q 601 206 604 160 q 597 301 599 253 q 594 389 594 350 l 594 1014 l 701 1014 l 701 0 l 553 0 l 229 886 q 233 815 232 858 q 237 722 235 771 q 239 625 239 672 l 239 0 l 132 0 m 274 -333 l 403 -132 l 535 -132 l 389 -333 l 274 -333 z "},"Ŋ":{"ha":833,"x_min":132,"x_max":701,"o":"m 329 -250 l 329 -150 l 425 -150 q 547 -106 503 -150 q 592 15 592 -62 l 229 886 q 233 815 231 858 q 237 722 235 771 q 239 625 239 672 l 239 0 l 132 0 l 132 1014 l 279 1014 l 607 219 q 601 293 604 249 q 597 388 599 338 q 594 486 594 439 l 594 1014 l 701 1014 l 701 15 q 667 -126 701 -65 q 572 -218 633 -186 q 425 -250 510 -250 l 329 -250 z "},"Ñ":{"ha":833,"x_min":132,"x_max":701,"o":"m 132 0 l 132 1014 l 279 1014 l 606 128 q 601 206 604 160 q 597 301 599 253 q 594 389 594 350 l 594 1014 l 701 1014 l 701 0 l 553 0 l 229 886 q 233 815 232 858 q 237 722 235 771 q 239 625 239 672 l 239 0 l 132 0 m 515 1132 q 449 1148 475 1132 q 403 1185 422 1164 q 367 1222 385 1206 q 325 1238 349 1238 q 289 1224 303 1238 q 275 1182 275 1210 l 275 1139 l 194 1139 l 194 1182 q 228 1278 194 1244 q 319 1313 263 1313 q 387 1297 360 1313 q 433 1260 414 1281 q 469 1223 451 1239 q 511 1207 486 1207 q 546 1221 533 1207 q 558 1263 558 1235 l 558 1306 l 639 1306 l 639 1263 q 606 1166 639 1200 q 515 1132 572 1132 z "},"O":{"ha":833,"x_min":129,"x_max":704,"o":"m 417 -14 q 263 21 328 -14 q 164 120 199 56 q 129 274 129 185 l 129 740 q 164 894 129 829 q 263 993 199 958 q 417 1028 328 1028 q 570 993 506 1028 q 669 894 635 958 q 704 740 704 829 l 704 274 q 669 120 704 185 q 570 21 635 56 q 417 -14 506 -14 m 417 85 q 549 134 503 85 q 594 274 594 183 l 594 740 q 548 880 594 831 q 417 929 501 929 q 285 880 332 929 q 239 740 239 831 l 239 274 q 285 134 239 183 q 417 85 332 85 z "},"Ó":{"ha":833,"x_min":129,"x_max":704,"o":"m 417 -14 q 263 21 328 -14 q 164 120 199 56 q 129 274 129 185 l 129 740 q 164 894 129 829 q 263 993 199 958 q 417 1028 328 1028 q 570 993 506 1028 q 669 894 635 958 q 704 740 704 829 l 704 274 q 669 120 704 185 q 570 21 635 56 q 417 -14 506 -14 m 417 85 q 549 134 503 85 q 594 274 594 183 l 594 740 q 548 880 594 831 q 417 929 501 929 q 285 880 332 929 q 239 740 239 831 l 239 274 q 285 134 239 183 q 417 85 332 85 m 344 1125 l 492 1319 l 613 1319 l 457 1125 l 344 1125 z "},"Ŏ":{"ha":833,"x_min":129,"x_max":704,"o":"m 417 -14 q 263 21 328 -14 q 164 120 199 56 q 129 274 129 185 l 129 740 q 164 894 129 829 q 263 993 199 958 q 417 1028 328 1028 q 570 993 506 1028 q 669 894 635 958 q 704 740 704 829 l 704 274 q 669 120 704 185 q 570 21 635 56 q 417 -14 506 -14 m 417 85 q 549 134 503 85 q 594 274 594 183 l 594 740 q 548 880 594 831 q 417 929 501 929 q 285 880 332 929 q 239 740 239 831 l 239 274 q 285 134 239 183 q 417 85 332 85 m 417 1119 q 259 1174 318 1119 q 200 1319 200 1229 l 289 1319 q 323 1228 289 1263 q 415 1193 357 1193 q 510 1228 475 1193 q 544 1319 544 1263 l 633 1319 q 574 1174 633 1229 q 417 1119 515 1119 z "},"Ô":{"ha":833,"x_min":129,"x_max":704,"o":"m 417 -14 q 263 21 328 -14 q 164 120 199 56 q 129 274 129 185 l 129 740 q 164 894 129 829 q 263 993 199 958 q 417 1028 328 1028 q 570 993 506 1028 q 669 894 635 958 q 704 740 704 829 l 704 274 q 669 120 704 185 q 570 21 635 56 q 417 -14 506 -14 m 417 85 q 549 134 503 85 q 594 274 594 183 l 594 740 q 548 880 594 831 q 417 929 501 929 q 285 880 332 929 q 239 740 239 831 l 239 274 q 285 134 239 183 q 417 85 332 85 m 176 1125 l 363 1319 l 469 1319 l 657 1125 l 538 1125 l 417 1244 l 299 1125 l 176 1125 z "},"Ố":{"ha":833,"x_min":129,"x_max":838,"o":"m 417 -14 q 263 21 328 -14 q 164 120 199 56 q 129 274 129 185 l 129 740 q 164 894 129 829 q 263 993 199 958 q 417 1028 328 1028 q 570 993 506 1028 q 669 894 635 958 q 704 740 704 829 l 704 274 q 669 120 704 185 q 570 21 635 56 q 417 -14 506 -14 m 417 85 q 549 134 503 85 q 594 274 594 183 l 594 740 q 548 880 594 831 q 417 929 501 929 q 285 880 332 929 q 239 740 239 831 l 239 274 q 285 134 239 183 q 417 85 332 85 m 565 1249 l 711 1417 l 838 1417 l 683 1249 l 565 1249 m 178 1083 l 363 1278 l 471 1278 l 657 1083 l 536 1083 l 417 1203 l 297 1083 l 178 1083 z "},"Ộ":{"ha":833,"x_min":129,"x_max":704,"o":"m 176 1125 l 363 1319 l 469 1319 l 657 1125 l 538 1125 l 417 1244 l 299 1125 l 176 1125 m 417 -14 q 263 21 328 -14 q 164 120 199 56 q 129 274 129 185 l 129 740 q 164 894 129 829 q 263 993 199 958 q 417 1028 328 1028 q 570 993 506 1028 q 669 894 635 958 q 704 740 704 829 l 704 274 q 669 120 704 185 q 570 21 635 56 q 417 -14 506 -14 m 417 85 q 549 134 503 85 q 594 274 594 183 l 594 740 q 548 880 594 831 q 417 929 501 929 q 285 880 332 929 q 239 740 239 831 l 239 274 q 285 134 239 183 q 417 85 332 85 m 417 -293 q 348 -270 374 -293 q 322 -208 322 -247 q 348 -145 322 -168 q 417 -122 374 -122 q 485 -145 460 -122 q 511 -208 511 -168 q 485 -270 511 -247 q 417 -293 460 -293 z "},"Ồ":{"ha":833,"x_min":129,"x_max":733,"o":"m 417 -14 q 263 21 328 -14 q 164 120 199 56 q 129 274 129 185 l 129 740 q 164 894 129 829 q 263 993 199 958 q 417 1028 328 1028 q 570 993 506 1028 q 669 894 635 958 q 704 740 704 829 l 704 274 q 669 120 704 185 q 570 21 635 56 q 417 -14 506 -14 m 417 85 q 549 134 503 85 q 594 274 594 183 l 594 740 q 548 880 594 831 q 417 929 501 929 q 285 880 332 929 q 239 740 239 831 l 239 274 q 285 134 239 183 q 417 85 332 85 m 618 1249 l 451 1417 l 576 1417 l 733 1249 l 618 1249 m 178 1083 l 363 1278 l 471 1278 l 657 1083 l 536 1083 l 417 1203 l 297 1083 l 178 1083 z "},"Ổ":{"ha":833,"x_min":129,"x_max":760,"o":"m 417 -14 q 263 21 328 -14 q 164 120 199 56 q 129 274 129 185 l 129 740 q 164 894 129 829 q 263 993 199 958 q 417 1028 328 1028 q 570 993 506 1028 q 669 894 635 958 q 704 740 704 829 l 704 274 q 669 120 704 185 q 570 21 635 56 q 417 -14 506 -14 m 417 85 q 549 134 503 85 q 594 274 594 183 l 594 740 q 548 880 594 831 q 417 929 501 929 q 285 880 332 929 q 239 740 239 831 l 239 274 q 285 134 239 183 q 417 85 332 85 m 589 1222 l 654 1290 q 669 1321 669 1306 q 644 1344 669 1344 l 550 1344 l 550 1417 l 663 1417 q 733 1394 707 1417 q 760 1335 760 1372 q 753 1300 760 1317 q 733 1269 746 1283 l 685 1222 l 589 1222 m 178 1083 l 363 1278 l 471 1278 l 657 1083 l 536 1083 l 417 1203 l 297 1083 l 178 1083 z "},"Ỗ":{"ha":833,"x_min":129,"x_max":704,"o":"m 417 -14 q 263 21 328 -14 q 164 120 199 56 q 129 274 129 185 l 129 740 q 164 894 129 829 q 263 993 199 958 q 417 1028 328 1028 q 570 993 506 1028 q 669 894 635 958 q 704 740 704 829 l 704 274 q 669 120 704 185 q 570 21 635 56 q 417 -14 506 -14 m 417 85 q 549 134 503 85 q 594 274 594 183 l 594 740 q 548 880 594 831 q 417 929 501 929 q 285 880 332 929 q 239 740 239 831 l 239 274 q 285 134 239 183 q 417 85 332 85 m 522 1278 q 452 1288 481 1278 q 403 1313 424 1299 q 363 1338 382 1328 q 319 1349 344 1349 q 286 1337 299 1349 q 274 1304 274 1325 l 274 1292 l 193 1292 l 193 1304 q 226 1386 193 1356 q 314 1417 258 1417 q 385 1406 357 1417 q 434 1381 414 1396 q 473 1356 454 1367 q 515 1346 492 1346 q 548 1358 536 1346 q 560 1390 560 1371 l 560 1403 l 640 1403 l 640 1390 q 609 1308 640 1339 q 522 1278 578 1278 m 178 1083 l 340 1240 l 493 1240 l 656 1083 l 535 1083 l 417 1192 l 297 1083 l 178 1083 z "},"Ö":{"ha":833,"x_min":129,"x_max":704,"o":"m 417 -14 q 263 21 328 -14 q 164 120 199 56 q 129 274 129 185 l 129 740 q 164 894 129 829 q 263 993 199 958 q 417 1028 328 1028 q 570 993 506 1028 q 669 894 635 958 q 704 740 704 829 l 704 274 q 669 120 704 185 q 570 21 635 56 q 417 -14 506 -14 m 417 85 q 549 134 503 85 q 594 274 594 183 l 594 740 q 548 880 594 831 q 417 929 501 929 q 285 880 332 929 q 239 740 239 831 l 239 274 q 285 134 239 183 q 417 85 332 85 m 571 1138 q 510 1160 533 1138 q 486 1222 486 1183 q 510 1285 486 1263 q 571 1308 533 1308 q 633 1285 610 1308 q 656 1222 656 1263 q 633 1160 656 1183 q 571 1138 610 1138 m 265 1138 q 204 1160 228 1138 q 181 1222 181 1183 q 204 1285 181 1263 q 265 1308 228 1308 q 326 1285 303 1308 q 350 1222 350 1263 q 326 1160 350 1183 q 265 1138 303 1138 z "},"Ọ":{"ha":833,"x_min":129,"x_max":704,"o":"m 417 -14 q 263 21 328 -14 q 164 120 199 56 q 129 274 129 185 l 129 740 q 164 894 129 829 q 263 993 199 958 q 417 1028 328 1028 q 570 993 506 1028 q 669 894 635 958 q 704 740 704 829 l 704 274 q 669 120 704 185 q 570 21 635 56 q 417 -14 506 -14 m 417 85 q 549 134 503 85 q 594 274 594 183 l 594 740 q 548 880 594 831 q 417 929 501 929 q 285 880 332 929 q 239 740 239 831 l 239 274 q 285 134 239 183 q 417 85 332 85 m 431 -293 q 362 -270 388 -293 q 336 -208 336 -247 q 362 -145 336 -168 q 431 -122 388 -122 q 499 -145 474 -122 q 525 -208 525 -168 q 499 -270 525 -247 q 431 -293 474 -293 z "},"Ò":{"ha":833,"x_min":129,"x_max":704,"o":"m 417 -14 q 263 21 328 -14 q 164 120 199 56 q 129 274 129 185 l 129 740 q 164 894 129 829 q 263 993 199 958 q 417 1028 328 1028 q 570 993 506 1028 q 669 894 635 958 q 704 740 704 829 l 704 274 q 669 120 704 185 q 570 21 635 56 q 417 -14 506 -14 m 417 85 q 549 134 503 85 q 594 274 594 183 l 594 740 q 548 880 594 831 q 417 929 501 929 q 285 880 332 929 q 239 740 239 831 l 239 274 q 285 134 239 183 q 417 85 332 85 m 376 1125 l 218 1319 l 343 1319 l 494 1125 l 376 1125 z "},"Ỏ":{"ha":833,"x_min":129,"x_max":704,"o":"m 417 -14 q 263 21 328 -14 q 164 120 199 56 q 129 274 129 185 l 129 740 q 164 894 129 829 q 263 993 199 958 q 417 1028 328 1028 q 570 993 506 1028 q 669 894 635 958 q 704 740 704 829 l 704 274 q 669 120 704 185 q 570 21 635 56 q 417 -14 506 -14 m 417 85 q 549 134 503 85 q 594 274 594 183 l 594 740 q 548 880 594 831 q 417 929 501 929 q 285 880 332 929 q 239 740 239 831 l 239 274 q 285 134 239 183 q 417 85 332 85 m 389 1111 l 456 1203 q 476 1250 476 1233 q 431 1281 476 1281 l 321 1281 l 321 1360 l 435 1360 q 533 1333 496 1360 q 571 1261 571 1306 q 546 1188 571 1222 l 494 1111 l 389 1111 z "},"Ơ":{"ha":833,"x_min":129,"x_max":740,"o":"m 560 893 l 560 972 l 596 972 q 634 987 619 972 q 649 1026 649 1001 l 649 1125 l 740 1125 l 740 1021 q 702 928 740 964 q 601 893 664 893 l 560 893 m 417 -14 q 263 21 328 -14 q 164 120 199 56 q 129 274 129 185 l 129 740 q 164 894 129 829 q 263 993 199 958 q 417 1028 328 1028 q 570 993 506 1028 q 669 894 635 958 q 704 740 704 829 l 704 274 q 669 120 704 185 q 570 21 635 56 q 417 -14 506 -14 m 417 85 q 549 134 503 85 q 594 274 594 183 l 594 740 q 548 880 594 831 q 417 929 501 929 q 285 880 332 929 q 239 740 239 831 l 239 274 q 285 134 239 183 q 417 85 332 85 z "},"Ớ":{"ha":833,"x_min":129,"x_max":740,"o":"m 560 893 l 560 972 l 596 972 q 634 987 619 972 q 649 1026 649 1001 l 649 1125 l 740 1125 l 740 1021 q 702 928 740 964 q 601 893 664 893 l 560 893 m 417 -14 q 263 21 328 -14 q 164 120 199 56 q 129 274 129 185 l 129 740 q 164 894 129 829 q 263 993 199 958 q 417 1028 328 1028 q 570 993 506 1028 q 669 894 635 958 q 704 740 704 829 l 704 274 q 669 120 704 185 q 570 21 635 56 q 417 -14 506 -14 m 417 85 q 549 134 503 85 q 594 274 594 183 l 594 740 q 548 880 594 831 q 417 929 501 929 q 285 880 332 929 q 239 740 239 831 l 239 274 q 285 134 239 183 q 417 85 332 85 m 331 1125 l 478 1319 l 599 1319 l 443 1125 l 331 1125 z "},"Ợ":{"ha":833,"x_min":129,"x_max":740,"o":"m 560 893 l 560 972 l 596 972 q 634 987 619 972 q 649 1026 649 1001 l 649 1125 l 740 1125 l 740 1021 q 702 928 740 964 q 601 893 664 893 l 560 893 m 417 -14 q 263 21 328 -14 q 164 120 199 56 q 129 274 129 185 l 129 740 q 164 894 129 829 q 263 993 199 958 q 417 1028 328 1028 q 570 993 506 1028 q 669 894 635 958 q 704 740 704 829 l 704 274 q 669 120 704 185 q 570 21 635 56 q 417 -14 506 -14 m 417 85 q 549 134 503 85 q 594 274 594 183 l 594 740 q 548 880 594 831 q 417 929 501 929 q 285 880 332 929 q 239 740 239 831 l 239 274 q 285 134 239 183 q 417 85 332 85 m 431 -293 q 362 -270 388 -293 q 336 -208 336 -247 q 362 -145 336 -168 q 431 -122 388 -122 q 499 -145 474 -122 q 525 -208 525 -168 q 499 -270 525 -247 q 431 -293 474 -293 z "},"Ờ":{"ha":833,"x_min":129,"x_max":740,"o":"m 560 893 l 560 972 l 596 972 q 634 987 619 972 q 649 1026 649 1001 l 649 1125 l 740 1125 l 740 1021 q 702 928 740 964 q 601 893 664 893 l 560 893 m 417 -14 q 263 21 328 -14 q 164 120 199 56 q 129 274 129 185 l 129 740 q 164 894 129 829 q 263 993 199 958 q 417 1028 328 1028 q 570 993 506 1028 q 669 894 635 958 q 704 740 704 829 l 704 274 q 669 120 704 185 q 570 21 635 56 q 417 -14 506 -14 m 417 85 q 549 134 503 85 q 594 274 594 183 l 594 740 q 548 880 594 831 q 417 929 501 929 q 285 880 332 929 q 239 740 239 831 l 239 274 q 285 134 239 183 q 417 85 332 85 m 363 1125 l 204 1319 l 329 1319 l 481 1125 l 363 1125 z "},"Ở":{"ha":833,"x_min":129,"x_max":740,"o":"m 560 893 l 560 972 l 596 972 q 634 987 619 972 q 649 1026 649 1001 l 649 1125 l 740 1125 l 740 1021 q 702 928 740 964 q 601 893 664 893 l 560 893 m 417 -14 q 263 21 328 -14 q 164 120 199 56 q 129 274 129 185 l 129 740 q 164 894 129 829 q 263 993 199 958 q 417 1028 328 1028 q 570 993 506 1028 q 669 894 635 958 q 704 740 704 829 l 704 274 q 669 120 704 185 q 570 21 635 56 q 417 -14 506 -14 m 417 85 q 549 134 503 85 q 594 274 594 183 l 594 740 q 548 880 594 831 q 417 929 501 929 q 285 880 332 929 q 239 740 239 831 l 239 274 q 285 134 239 183 q 417 85 332 85 m 364 1111 l 431 1203 q 451 1250 451 1233 q 406 1281 451 1281 l 296 1281 l 296 1360 l 410 1360 q 508 1333 471 1360 q 546 1261 546 1306 q 521 1188 546 1222 l 469 1111 l 364 1111 z "},"Ỡ":{"ha":833,"x_min":129,"x_max":740,"o":"m 560 893 l 560 972 l 596 972 q 634 987 619 972 q 649 1026 649 1001 l 649 1125 l 740 1125 l 740 1021 q 702 928 740 964 q 601 893 664 893 l 560 893 m 417 -14 q 263 21 328 -14 q 164 120 199 56 q 129 274 129 185 l 129 740 q 164 894 129 829 q 263 993 199 958 q 417 1028 328 1028 q 570 993 506 1028 q 669 894 635 958 q 704 740 704 829 l 704 274 q 669 120 704 185 q 570 21 635 56 q 417 -14 506 -14 m 417 85 q 549 134 503 85 q 594 274 594 183 l 594 740 q 548 880 594 831 q 417 929 501 929 q 285 880 332 929 q 239 740 239 831 l 239 274 q 285 134 239 183 q 417 85 332 85 m 501 1132 q 435 1148 461 1132 q 390 1185 408 1164 q 353 1222 371 1206 q 311 1238 335 1238 q 275 1224 289 1238 q 261 1182 261 1210 l 261 1139 l 181 1139 l 181 1182 q 215 1278 181 1244 q 306 1313 249 1313 q 373 1297 346 1313 q 419 1260 400 1281 q 455 1223 438 1239 q 497 1207 472 1207 q 532 1221 519 1207 q 544 1263 544 1235 l 544 1306 l 625 1306 l 625 1263 q 592 1166 625 1200 q 501 1132 558 1132 z "},"Ő":{"ha":833,"x_min":129,"x_max":722,"o":"m 417 -14 q 263 21 328 -14 q 164 120 199 56 q 129 274 129 185 l 129 740 q 164 894 129 829 q 263 993 199 958 q 417 1028 328 1028 q 570 993 506 1028 q 669 894 635 958 q 704 740 704 829 l 704 274 q 669 120 704 185 q 570 21 635 56 q 417 -14 506 -14 m 417 85 q 549 134 503 85 q 594 274 594 183 l 594 740 q 548 880 594 831 q 417 929 501 929 q 285 880 332 929 q 239 740 239 831 l 239 274 q 285 134 239 183 q 417 85 332 85 m 456 1125 l 607 1319 l 722 1319 l 564 1125 l 456 1125 m 215 1125 l 367 1319 l 482 1319 l 322 1125 l 215 1125 z "},"Ō":{"ha":833,"x_min":129,"x_max":704,"o":"m 417 -14 q 263 21 328 -14 q 164 120 199 56 q 129 274 129 185 l 129 740 q 164 894 129 829 q 263 993 199 958 q 417 1028 328 1028 q 570 993 506 1028 q 669 894 635 958 q 704 740 704 829 l 704 274 q 669 120 704 185 q 570 21 635 56 q 417 -14 506 -14 m 417 85 q 549 134 503 85 q 594 274 594 183 l 594 740 q 548 880 594 831 q 417 929 501 929 q 285 880 332 929 q 239 740 239 831 l 239 274 q 285 134 239 183 q 417 85 332 85 m 201 1172 l 201 1264 l 632 1264 l 632 1172 l 201 1172 z "},"Ǫ":{"ha":833,"x_min":129,"x_max":704,"o":"m 522 -279 q 408 -244 451 -279 q 365 -154 365 -210 q 374 -110 365 -133 q 401 -61 383 -86 q 444 -12 419 -36 q 431 -13 439 -12 q 417 -14 422 -14 q 263 21 328 -14 q 164 120 199 56 q 129 274 129 185 l 129 740 q 164 894 129 829 q 263 993 199 958 q 417 1028 328 1028 q 570 993 506 1028 q 669 894 635 958 q 704 740 704 829 l 704 274 q 673 128 704 190 q 585 29 642 65 l 553 1 q 489 -70 508 -36 q 469 -133 469 -104 q 490 -183 469 -164 q 544 -203 510 -203 l 629 -203 l 629 -279 l 522 -279 m 417 85 q 549 134 503 85 q 594 274 594 183 l 594 740 q 548 880 594 831 q 417 929 501 929 q 285 880 332 929 q 239 740 239 831 l 239 274 q 285 134 239 183 q 417 85 332 85 z "},"Ø":{"ha":833,"x_min":54,"x_max":779,"o":"m 54 -56 l 676 1042 l 779 1042 l 157 -56 l 54 -56 m 417 -14 q 263 21 328 -14 q 164 120 199 56 q 129 274 129 185 l 129 740 q 164 894 129 829 q 263 993 199 958 q 417 1028 328 1028 q 570 993 506 1028 q 669 894 635 958 q 704 740 704 829 l 704 274 q 669 120 704 185 q 570 21 635 56 q 417 -14 506 -14 m 417 85 q 549 134 503 85 q 594 274 594 183 l 594 740 q 548 880 594 831 q 417 929 501 929 q 285 880 332 929 q 239 740 239 831 l 239 274 q 285 134 239 183 q 417 85 332 85 z "},"Ǿ":{"ha":833,"x_min":54,"x_max":779,"o":"m 54 -56 l 676 1042 l 779 1042 l 157 -56 l 54 -56 m 417 -14 q 263 21 328 -14 q 164 120 199 56 q 129 274 129 185 l 129 740 q 164 894 129 829 q 263 993 199 958 q 417 1028 328 1028 q 570 993 506 1028 q 669 894 635 958 q 704 740 704 829 l 704 274 q 669 120 704 185 q 570 21 635 56 q 417 -14 506 -14 m 417 85 q 549 134 503 85 q 594 274 594 183 l 594 740 q 548 880 594 831 q 417 929 501 929 q 285 880 332 929 q 239 740 239 831 l 239 274 q 285 134 239 183 q 417 85 332 85 m 344 1125 l 492 1319 l 613 1319 l 457 1125 l 344 1125 z "},"Õ":{"ha":833,"x_min":129,"x_max":704,"o":"m 417 -14 q 263 21 328 -14 q 164 120 199 56 q 129 274 129 185 l 129 740 q 164 894 129 829 q 263 993 199 958 q 417 1028 328 1028 q 570 993 506 1028 q 669 894 635 958 q 704 740 704 829 l 704 274 q 669 120 704 185 q 570 21 635 56 q 417 -14 506 -14 m 417 85 q 549 134 503 85 q 594 274 594 183 l 594 740 q 548 880 594 831 q 417 929 501 929 q 285 880 332 929 q 239 740 239 831 l 239 274 q 285 134 239 183 q 417 85 332 85 m 515 1132 q 449 1148 475 1132 q 403 1185 422 1164 q 367 1222 385 1206 q 325 1238 349 1238 q 289 1224 303 1238 q 275 1182 275 1210 l 275 1139 l 194 1139 l 194 1182 q 228 1278 194 1244 q 319 1313 263 1313 q 387 1297 360 1313 q 433 1260 414 1281 q 469 1223 451 1239 q 511 1207 486 1207 q 546 1221 533 1207 q 558 1263 558 1235 l 558 1306 l 639 1306 l 639 1263 q 606 1166 639 1200 q 515 1132 572 1132 z "},"Œ":{"ha":833,"x_min":56,"x_max":796,"o":"m 271 -14 q 157 18 206 -14 q 82 109 108 50 q 56 247 56 168 l 56 767 q 82 906 56 847 q 157 996 108 964 q 271 1028 206 1028 q 352 1008 319 1028 q 403 959 385 988 q 428 903 422 931 l 435 903 l 435 1014 l 796 1014 l 796 913 l 544 913 l 544 575 l 757 575 l 757 472 l 544 472 l 544 101 l 796 101 l 796 0 l 435 0 l 435 111 l 428 111 q 403 56 422 85 q 352 6 385 26 q 271 -14 319 -14 m 301 86 q 399 129 363 86 q 435 247 435 172 l 435 767 q 399 885 435 842 q 301 928 363 928 q 203 884 239 928 q 168 767 168 840 l 168 247 q 203 130 168 174 q 301 86 239 86 z "},"P":{"ha":833,"x_min":135,"x_max":758,"o":"m 135 0 l 135 1014 l 453 1014 q 615 978 546 1014 q 721 876 683 942 q 758 719 758 810 q 721 565 758 631 q 615 462 683 499 q 453 425 546 425 l 244 425 l 244 0 l 135 0 m 244 525 l 453 525 q 592 578 540 525 q 644 719 644 631 q 592 862 644 810 q 453 914 540 914 l 244 914 l 244 525 z "},"Þ":{"ha":833,"x_min":131,"x_max":757,"o":"m 131 0 l 131 1014 l 240 1014 l 240 800 l 463 800 q 618 766 553 800 q 720 671 683 732 q 757 528 757 610 q 677 330 757 404 q 463 256 597 256 l 240 256 l 240 0 l 131 0 m 240 354 l 463 354 q 595 401 547 354 q 643 528 643 449 q 594 655 643 608 q 463 701 546 701 l 240 701 l 240 354 z "},"Q":{"ha":833,"x_min":121,"x_max":725,"o":"m 596 -250 l 446 -3 l 463 -11 q 443 -12 456 -11 q 417 -14 431 -14 q 260 22 326 -14 q 157 124 193 58 q 121 279 121 190 l 121 735 q 157 890 121 825 q 260 992 193 956 q 417 1028 326 1028 q 574 991 508 1028 q 676 889 640 954 q 713 735 713 824 l 713 279 q 674 119 713 188 q 563 17 635 51 l 725 -250 l 596 -250 m 417 85 q 553 138 503 85 q 603 279 603 190 l 603 735 q 553 877 603 825 q 417 929 503 929 q 281 877 332 929 q 231 735 231 825 l 231 279 q 281 138 231 190 q 417 85 332 85 z "},"R":{"ha":833,"x_min":135,"x_max":751,"o":"m 135 0 l 135 1014 l 440 1014 q 598 978 531 1014 q 702 877 665 942 q 739 725 739 813 q 683 547 739 621 q 532 449 628 474 l 751 0 l 621 0 l 418 438 l 244 438 l 244 0 l 135 0 m 244 538 l 440 538 q 576 589 525 538 q 626 726 626 640 q 576 863 626 813 q 440 914 525 914 l 244 914 l 244 538 z "},"Ŕ":{"ha":833,"x_min":135,"x_max":751,"o":"m 135 0 l 135 1014 l 440 1014 q 598 978 531 1014 q 702 877 665 942 q 739 725 739 813 q 683 547 739 621 q 532 449 628 474 l 751 0 l 621 0 l 418 438 l 244 438 l 244 0 l 135 0 m 244 538 l 440 538 q 576 589 525 538 q 626 726 626 640 q 576 863 626 813 q 440 914 525 914 l 244 914 l 244 538 m 344 1125 l 492 1319 l 613 1319 l 457 1125 l 344 1125 z "},"Ř":{"ha":833,"x_min":135,"x_max":751,"o":"m 135 0 l 135 1014 l 440 1014 q 598 978 531 1014 q 702 877 665 942 q 739 725 739 813 q 683 547 739 621 q 532 449 628 474 l 751 0 l 621 0 l 418 438 l 244 438 l 244 0 l 135 0 m 244 538 l 440 538 q 576 589 525 538 q 626 726 626 640 q 576 863 626 813 q 440 914 525 914 l 244 914 l 244 538 m 364 1125 l 176 1319 l 296 1319 l 418 1200 l 536 1319 l 657 1319 l 471 1125 l 364 1125 z "},"Ŗ":{"ha":833,"x_min":135,"x_max":751,"o":"m 135 0 l 135 1014 l 440 1014 q 598 978 531 1014 q 702 877 665 942 q 739 725 739 813 q 683 547 739 621 q 532 449 628 474 l 751 0 l 621 0 l 418 438 l 244 438 l 244 0 l 135 0 m 244 538 l 440 538 q 576 589 525 538 q 626 726 626 640 q 576 863 626 813 q 440 914 525 914 l 244 914 l 244 538 m 274 -333 l 403 -132 l 535 -132 l 389 -333 l 274 -333 z "},"S":{"ha":833,"x_min":104,"x_max":729,"o":"m 422 -14 q 254 19 325 -14 q 144 115 183 53 q 104 263 106 176 l 215 263 q 271 133 215 181 q 422 85 326 85 q 566 131 514 85 q 618 257 618 176 q 582 373 618 324 q 481 442 546 422 l 349 483 q 188 588 244 514 q 132 763 132 663 q 168 903 132 844 q 270 996 204 963 q 425 1029 336 1029 q 636 956 557 1029 q 715 758 715 882 l 606 758 q 557 883 606 838 q 424 929 508 929 q 291 888 339 929 q 243 772 243 847 q 279 658 243 707 q 381 589 315 610 l 513 547 q 672 439 615 515 q 729 260 729 363 q 691 116 729 178 q 584 20 653 54 q 422 -14 515 -14 z "},"Ś":{"ha":833,"x_min":104,"x_max":729,"o":"m 422 -14 q 254 19 325 -14 q 144 115 183 53 q 104 263 106 176 l 215 263 q 271 133 215 181 q 422 85 326 85 q 566 131 514 85 q 618 257 618 176 q 582 373 618 324 q 481 442 546 422 l 349 483 q 188 588 244 514 q 132 763 132 663 q 168 903 132 844 q 270 996 204 963 q 425 1029 336 1029 q 636 956 557 1029 q 715 758 715 882 l 606 758 q 557 883 606 838 q 424 929 508 929 q 291 888 339 929 q 243 772 243 847 q 279 658 243 707 q 381 589 315 610 l 513 547 q 672 439 615 515 q 729 260 729 363 q 691 116 729 178 q 584 20 653 54 q 422 -14 515 -14 m 344 1125 l 492 1319 l 613 1319 l 457 1125 l 344 1125 z "},"Š":{"ha":833,"x_min":104,"x_max":729,"o":"m 422 -14 q 254 19 325 -14 q 144 115 183 53 q 104 263 106 176 l 215 263 q 271 133 215 181 q 422 85 326 85 q 566 131 514 85 q 618 257 618 176 q 582 373 618 324 q 481 442 546 422 l 349 483 q 188 588 244 514 q 132 763 132 663 q 168 903 132 844 q 270 996 204 963 q 425 1029 336 1029 q 636 956 557 1029 q 715 758 715 882 l 606 758 q 557 883 606 838 q 424 929 508 929 q 291 888 339 929 q 243 772 243 847 q 279 658 243 707 q 381 589 315 610 l 513 547 q 672 439 615 515 q 729 260 729 363 q 691 116 729 178 q 584 20 653 54 q 422 -14 515 -14 m 364 1125 l 176 1319 l 296 1319 l 418 1200 l 536 1319 l 657 1319 l 471 1125 l 364 1125 z "},"Ş":{"ha":833,"x_min":104,"x_max":729,"o":"m 296 -279 l 296 -210 l 397 -210 q 447 -193 428 -210 q 467 -158 467 -176 q 426 -113 467 -132 q 317 -94 386 -94 l 365 36 l 439 36 l 408 -49 q 481 -65 443 -51 q 545 -104 519 -79 q 571 -165 571 -129 q 527 -246 571 -212 q 413 -279 483 -279 l 296 -279 m 422 -14 q 254 19 325 -14 q 144 115 183 53 q 104 263 106 176 l 215 263 q 271 133 215 181 q 422 85 326 85 q 566 131 514 85 q 618 257 618 176 q 582 373 618 324 q 481 442 546 422 l 349 483 q 188 588 244 514 q 132 763 132 663 q 168 903 132 844 q 270 996 204 963 q 425 1029 336 1029 q 636 956 557 1029 q 715 758 715 882 l 606 758 q 557 883 606 838 q 424 929 508 929 q 291 888 339 929 q 243 772 243 847 q 279 658 243 707 q 381 589 315 610 l 513 547 q 672 439 615 515 q 729 260 729 363 q 691 116 729 178 q 584 20 653 54 q 422 -14 515 -14 z "},"Ŝ":{"ha":833,"x_min":104,"x_max":729,"o":"m 422 -14 q 254 19 325 -14 q 144 115 183 53 q 104 263 106 176 l 215 263 q 271 133 215 181 q 422 85 326 85 q 566 131 514 85 q 618 257 618 176 q 582 373 618 324 q 481 442 546 422 l 349 483 q 188 588 244 514 q 132 763 132 663 q 168 903 132 844 q 270 996 204 963 q 425 1029 336 1029 q 636 956 557 1029 q 715 758 715 882 l 606 758 q 557 883 606 838 q 424 929 508 929 q 291 888 339 929 q 243 772 243 847 q 279 658 243 707 q 381 589 315 610 l 513 547 q 672 439 615 515 q 729 260 729 363 q 691 116 729 178 q 584 20 653 54 q 422 -14 515 -14 m 176 1125 l 363 1319 l 469 1319 l 657 1125 l 538 1125 l 417 1244 l 299 1125 l 176 1125 z "},"Ș":{"ha":833,"x_min":104,"x_max":729,"o":"m 422 -14 q 254 19 325 -14 q 144 115 183 53 q 104 263 106 176 l 215 263 q 271 133 215 181 q 422 85 326 85 q 566 131 514 85 q 618 257 618 176 q 582 373 618 324 q 481 442 546 422 l 349 483 q 188 588 244 514 q 132 763 132 663 q 168 903 132 844 q 270 996 204 963 q 425 1029 336 1029 q 636 956 557 1029 q 715 758 715 882 l 606 758 q 557 883 606 838 q 424 929 508 929 q 291 888 339 929 q 243 772 243 847 q 279 658 243 707 q 381 589 315 610 l 513 547 q 672 439 615 515 q 729 260 729 363 q 691 116 729 178 q 584 20 653 54 q 422 -14 515 -14 m 274 -333 l 403 -132 l 535 -132 l 389 -333 l 274 -333 z "},"ẞ":{"ha":833,"x_min":135,"x_max":743,"o":"m 135 0 l 135 735 q 170 882 135 819 q 270 979 206 944 q 421 1014 335 1014 l 731 1014 l 731 907 l 471 554 l 471 582 q 614 547 553 582 q 709 449 675 513 q 743 297 743 385 q 706 141 743 208 q 602 37 668 74 q 446 0 536 0 l 354 0 l 354 100 l 436 100 q 576 153 524 100 q 628 296 628 207 q 576 436 628 385 q 436 488 524 488 l 375 488 l 375 583 l 615 914 l 421 914 q 292 866 340 914 q 244 735 244 818 l 244 0 l 135 0 z "},"Ə":{"ha":833,"x_min":131,"x_max":703,"o":"m 417 -14 q 264 22 328 -14 q 165 122 200 57 q 131 274 131 188 l 131 547 l 593 547 l 593 740 q 548 880 593 831 q 417 929 503 929 q 285 878 331 929 q 240 736 240 828 l 131 736 q 165 892 131 826 q 263 992 199 957 q 417 1028 326 1028 q 571 993 507 1028 q 669 894 635 958 q 703 740 703 829 l 703 274 q 668 122 703 188 q 569 22 633 57 q 417 -14 506 -14 m 417 79 q 549 130 506 79 q 593 274 593 181 l 593 460 l 229 460 l 240 472 l 240 274 q 285 130 240 181 q 417 79 329 79 z "},"T":{"ha":833,"x_min":78,"x_max":756,"o":"m 363 0 l 363 914 l 78 914 l 78 1015 l 756 1015 l 756 914 l 472 914 l 472 0 l 363 0 z "},"Ŧ":{"ha":833,"x_min":78,"x_max":756,"o":"m 157 415 l 157 508 l 676 508 l 676 415 l 157 415 m 363 0 l 363 914 l 78 914 l 78 1015 l 756 1015 l 756 914 l 472 914 l 472 0 l 363 0 z "},"Ť":{"ha":833,"x_min":78,"x_max":756,"o":"m 363 0 l 363 914 l 78 914 l 78 1015 l 756 1015 l 756 914 l 472 914 l 472 0 l 363 0 m 364 1125 l 176 1319 l 296 1319 l 418 1200 l 536 1319 l 657 1319 l 471 1125 l 364 1125 z "},"Ţ":{"ha":833,"x_min":78,"x_max":756,"o":"m 343 -279 l 343 -210 l 443 -210 q 494 -193 475 -210 q 514 -158 514 -176 q 474 -113 514 -132 q 363 -94 433 -94 l 411 36 l 472 0 l 456 -49 q 528 -65 490 -51 q 592 -104 567 -79 q 618 -165 618 -129 q 574 -246 618 -212 q 458 -279 531 -279 l 343 -279 m 363 0 l 363 914 l 78 914 l 78 1015 l 756 1015 l 756 914 l 472 914 l 472 0 l 363 0 z "},"Ț":{"ha":833,"x_min":78,"x_max":756,"o":"m 363 0 l 363 914 l 78 914 l 78 1015 l 756 1015 l 756 914 l 472 914 l 472 0 l 363 0 m 225 -333 l 354 -132 l 486 -132 l 340 -333 l 225 -333 z "},"U":{"ha":833,"x_min":132,"x_max":701,"o":"m 417 -14 q 206 64 281 -14 q 132 274 132 142 l 132 1014 l 242 1014 l 242 274 q 286 135 242 186 q 417 85 331 85 q 547 135 503 85 q 592 274 592 186 l 592 1014 l 701 1014 l 701 274 q 628 63 701 140 q 417 -14 554 -14 z "},"Ú":{"ha":833,"x_min":132,"x_max":701,"o":"m 417 -14 q 206 64 281 -14 q 132 274 132 142 l 132 1014 l 242 1014 l 242 274 q 286 135 242 186 q 417 85 331 85 q 547 135 503 85 q 592 274 592 186 l 592 1014 l 701 1014 l 701 274 q 628 63 701 140 q 417 -14 554 -14 m 344 1125 l 492 1319 l 613 1319 l 457 1125 l 344 1125 z "},"Ŭ":{"ha":833,"x_min":132,"x_max":701,"o":"m 417 -14 q 206 64 281 -14 q 132 274 132 142 l 132 1014 l 242 1014 l 242 274 q 286 135 242 186 q 417 85 331 85 q 547 135 503 85 q 592 274 592 186 l 592 1014 l 701 1014 l 701 274 q 628 63 701 140 q 417 -14 554 -14 m 417 1119 q 259 1174 318 1119 q 200 1319 200 1229 l 289 1319 q 323 1228 289 1263 q 415 1193 357 1193 q 510 1228 475 1193 q 544 1319 544 1263 l 633 1319 q 574 1174 633 1229 q 417 1119 515 1119 z "},"Û":{"ha":833,"x_min":132,"x_max":701,"o":"m 417 -14 q 206 64 281 -14 q 132 274 132 142 l 132 1014 l 242 1014 l 242 274 q 286 135 242 186 q 417 85 331 85 q 547 135 503 85 q 592 274 592 186 l 592 1014 l 701 1014 l 701 274 q 628 63 701 140 q 417 -14 554 -14 m 176 1125 l 363 1319 l 469 1319 l 657 1125 l 538 1125 l 417 1244 l 299 1125 l 176 1125 z "},"Ü":{"ha":833,"x_min":132,"x_max":701,"o":"m 417 -14 q 206 64 281 -14 q 132 274 132 142 l 132 1014 l 242 1014 l 242 274 q 286 135 242 186 q 417 85 331 85 q 547 135 503 85 q 592 274 592 186 l 592 1014 l 701 1014 l 701 274 q 628 63 701 140 q 417 -14 554 -14 m 571 1138 q 510 1160 533 1138 q 486 1222 486 1183 q 510 1285 486 1263 q 571 1308 533 1308 q 633 1285 610 1308 q 656 1222 656 1263 q 633 1160 656 1183 q 571 1138 610 1138 m 265 1138 q 204 1160 228 1138 q 181 1222 181 1183 q 204 1285 181 1263 q 265 1308 228 1308 q 326 1285 303 1308 q 350 1222 350 1263 q 326 1160 350 1183 q 265 1138 303 1138 z "},"Ụ":{"ha":833,"x_min":132,"x_max":701,"o":"m 417 -14 q 206 64 281 -14 q 132 274 132 142 l 132 1014 l 242 1014 l 242 274 q 286 135 242 186 q 417 85 331 85 q 547 135 503 85 q 592 274 592 186 l 592 1014 l 701 1014 l 701 274 q 628 63 701 140 q 417 -14 554 -14 m 417 -293 q 348 -270 374 -293 q 322 -208 322 -247 q 348 -145 322 -168 q 417 -122 374 -122 q 485 -145 460 -122 q 511 -208 511 -168 q 485 -270 511 -247 q 417 -293 460 -293 z "},"Ù":{"ha":833,"x_min":132,"x_max":701,"o":"m 417 -14 q 206 64 281 -14 q 132 274 132 142 l 132 1014 l 242 1014 l 242 274 q 286 135 242 186 q 417 85 331 85 q 547 135 503 85 q 592 274 592 186 l 592 1014 l 701 1014 l 701 274 q 628 63 701 140 q 417 -14 554 -14 m 376 1125 l 218 1319 l 343 1319 l 494 1125 l 376 1125 z "},"Ủ":{"ha":833,"x_min":132,"x_max":701,"o":"m 417 -14 q 206 64 281 -14 q 132 274 132 142 l 132 1014 l 242 1014 l 242 274 q 286 135 242 186 q 417 85 331 85 q 547 135 503 85 q 592 274 592 186 l 592 1014 l 701 1014 l 701 274 q 628 63 701 140 q 417 -14 554 -14 m 364 1111 l 431 1203 q 451 1250 451 1233 q 406 1281 451 1281 l 296 1281 l 296 1360 l 410 1360 q 508 1333 471 1360 q 546 1261 546 1306 q 521 1188 546 1222 l 469 1111 l 364 1111 z "},"Ư":{"ha":833,"x_min":132,"x_max":833,"o":"m 607 935 l 607 1014 l 689 1014 q 727 1028 713 1014 q 742 1068 742 1043 l 742 1167 l 833 1167 l 833 1063 q 795 970 833 1006 q 694 935 757 935 l 607 935 m 417 -14 q 206 64 281 -14 q 132 274 132 142 l 132 1014 l 242 1014 l 242 274 q 286 135 242 186 q 417 85 331 85 q 547 135 503 85 q 592 274 592 186 l 592 1014 l 701 1014 l 701 274 q 628 63 701 140 q 417 -14 554 -14 z "},"Ứ":{"ha":833,"x_min":132,"x_max":833,"o":"m 607 935 l 607 1014 l 689 1014 q 727 1028 713 1014 q 742 1068 742 1043 l 742 1167 l 833 1167 l 833 1063 q 795 970 833 1006 q 694 935 757 935 l 607 935 m 417 -14 q 206 64 281 -14 q 132 274 132 142 l 132 1014 l 242 1014 l 242 274 q 286 135 242 186 q 417 85 331 85 q 547 135 503 85 q 592 274 592 186 l 592 1014 l 701 1014 l 701 274 q 628 63 701 140 q 417 -14 554 -14 m 344 1125 l 492 1319 l 613 1319 l 457 1125 l 344 1125 z "},"Ự":{"ha":833,"x_min":132,"x_max":833,"o":"m 431 -293 q 362 -270 388 -293 q 336 -208 336 -247 q 362 -145 336 -168 q 431 -122 388 -122 q 499 -145 474 -122 q 525 -208 525 -168 q 499 -270 525 -247 q 431 -293 474 -293 m 607 935 l 607 1014 l 689 1014 q 727 1028 713 1014 q 742 1068 742 1043 l 742 1167 l 833 1167 l 833 1063 q 795 970 833 1006 q 694 935 757 935 l 607 935 m 417 -14 q 206 64 281 -14 q 132 274 132 142 l 132 1014 l 242 1014 l 242 274 q 286 135 242 186 q 417 85 331 85 q 547 135 503 85 q 592 274 592 186 l 592 1014 l 701 1014 l 701 274 q 628 63 701 140 q 417 -14 554 -14 z "},"Ừ":{"ha":833,"x_min":132,"x_max":833,"o":"m 607 935 l 607 1014 l 689 1014 q 727 1028 713 1014 q 742 1068 742 1043 l 742 1167 l 833 1167 l 833 1063 q 795 970 833 1006 q 694 935 757 935 l 607 935 m 417 -14 q 206 64 281 -14 q 132 274 132 142 l 132 1014 l 242 1014 l 242 274 q 286 135 242 186 q 417 85 331 85 q 547 135 503 85 q 592 274 592 186 l 592 1014 l 701 1014 l 701 274 q 628 63 701 140 q 417 -14 554 -14 m 376 1125 l 218 1319 l 343 1319 l 494 1125 l 376 1125 z "},"Ử":{"ha":833,"x_min":132,"x_max":833,"o":"m 607 935 l 607 1014 l 689 1014 q 727 1028 713 1014 q 742 1068 742 1043 l 742 1167 l 833 1167 l 833 1063 q 795 970 833 1006 q 694 935 757 935 l 607 935 m 417 -14 q 206 64 281 -14 q 132 274 132 142 l 132 1014 l 242 1014 l 242 274 q 286 135 242 186 q 417 85 331 85 q 547 135 503 85 q 592 274 592 186 l 592 1014 l 701 1014 l 701 274 q 628 63 701 140 q 417 -14 554 -14 m 364 1111 l 431 1203 q 451 1250 451 1233 q 406 1281 451 1281 l 296 1281 l 296 1360 l 410 1360 q 508 1333 471 1360 q 546 1261 546 1306 q 521 1188 546 1222 l 469 1111 l 364 1111 z "},"Ữ":{"ha":833,"x_min":132,"x_max":833,"o":"m 607 935 l 607 1014 l 689 1014 q 727 1028 713 1014 q 742 1068 742 1043 l 742 1167 l 833 1167 l 833 1063 q 795 970 833 1006 q 694 935 757 935 l 607 935 m 417 -14 q 206 64 281 -14 q 132 274 132 142 l 132 1014 l 242 1014 l 242 274 q 286 135 242 186 q 417 85 331 85 q 547 135 503 85 q 592 274 592 186 l 592 1014 l 701 1014 l 701 274 q 628 63 701 140 q 417 -14 554 -14 m 515 1132 q 449 1148 475 1132 q 403 1185 422 1164 q 367 1222 385 1206 q 325 1238 349 1238 q 289 1224 303 1238 q 275 1182 275 1210 l 275 1139 l 194 1139 l 194 1182 q 228 1278 194 1244 q 319 1313 263 1313 q 387 1297 360 1313 q 433 1260 414 1281 q 469 1223 451 1239 q 511 1207 486 1207 q 546 1221 533 1207 q 558 1263 558 1235 l 558 1306 l 639 1306 l 639 1263 q 606 1166 639 1200 q 515 1132 572 1132 z "},"Ű":{"ha":833,"x_min":132,"x_max":722,"o":"m 417 -14 q 206 64 281 -14 q 132 274 132 142 l 132 1014 l 242 1014 l 242 274 q 286 135 242 186 q 417 85 331 85 q 547 135 503 85 q 592 274 592 186 l 592 1014 l 701 1014 l 701 274 q 628 63 701 140 q 417 -14 554 -14 m 456 1125 l 607 1319 l 722 1319 l 564 1125 l 456 1125 m 215 1125 l 367 1319 l 482 1319 l 322 1125 l 215 1125 z "},"Ū":{"ha":833,"x_min":132,"x_max":701,"o":"m 417 -14 q 206 64 281 -14 q 132 274 132 142 l 132 1014 l 242 1014 l 242 274 q 286 135 242 186 q 417 85 331 85 q 547 135 503 85 q 592 274 592 186 l 592 1014 l 701 1014 l 701 274 q 628 63 701 140 q 417 -14 554 -14 m 201 1172 l 201 1264 l 632 1264 l 632 1172 l 201 1172 z "},"Ų":{"ha":833,"x_min":132,"x_max":701,"o":"m 522 -279 q 408 -244 451 -279 q 365 -154 365 -210 q 374 -110 365 -133 q 401 -61 383 -86 q 444 -12 419 -36 q 431 -13 439 -12 q 417 -14 422 -14 q 264 21 328 -14 q 166 120 200 56 q 132 274 132 185 l 132 1014 l 242 1014 l 242 274 q 287 134 242 183 q 417 85 332 85 q 547 134 503 85 q 592 274 592 183 l 592 1014 l 701 1014 l 701 274 q 672 128 701 190 q 585 29 642 65 l 553 1 q 489 -70 508 -36 q 469 -133 469 -104 q 490 -183 469 -164 q 544 -203 510 -203 l 629 -203 l 629 -279 l 522 -279 z "},"Ů":{"ha":833,"x_min":132,"x_max":701,"o":"m 417 -14 q 206 64 281 -14 q 132 274 132 142 l 132 1014 l 242 1014 l 242 274 q 286 135 242 186 q 417 85 331 85 q 547 135 503 85 q 592 274 592 186 l 592 1014 l 701 1014 l 701 274 q 628 63 701 140 q 417 -14 554 -14 m 417 1069 q 300 1112 344 1069 q 256 1222 256 1154 q 300 1333 256 1290 q 417 1375 344 1375 q 533 1333 489 1375 q 578 1222 578 1290 q 533 1112 578 1154 q 417 1069 489 1069 m 417 1136 q 478 1160 456 1136 q 501 1222 501 1183 q 478 1285 501 1261 q 417 1310 456 1310 q 355 1285 378 1310 q 332 1222 332 1261 q 355 1160 332 1183 q 417 1136 378 1136 z "},"Ũ":{"ha":833,"x_min":132,"x_max":701,"o":"m 417 -14 q 206 64 281 -14 q 132 274 132 142 l 132 1014 l 242 1014 l 242 274 q 286 135 242 186 q 417 85 331 85 q 547 135 503 85 q 592 274 592 186 l 592 1014 l 701 1014 l 701 274 q 628 63 701 140 q 417 -14 554 -14 m 515 1132 q 449 1148 475 1132 q 403 1185 422 1164 q 367 1222 385 1206 q 325 1238 349 1238 q 289 1224 303 1238 q 275 1182 275 1210 l 275 1139 l 194 1139 l 194 1182 q 228 1278 194 1244 q 319 1313 263 1313 q 387 1297 360 1313 q 433 1260 414 1281 q 469 1223 451 1239 q 511 1207 486 1207 q 546 1221 533 1207 q 558 1263 558 1235 l 558 1306 l 639 1306 l 639 1263 q 606 1166 639 1200 q 515 1132 572 1132 z "},"V":{"ha":833,"x_min":76,"x_max":757,"o":"m 342 0 l 76 1014 l 190 1014 l 372 306 q 401 176 389 236 q 419 86 414 117 q 437 176 425 117 q 465 306 449 236 l 646 1014 l 757 1014 l 490 0 l 342 0 z "},"W":{"ha":833,"x_min":40,"x_max":793,"o":"m 160 0 l 40 1014 l 144 1014 l 226 264 q 233 201 229 235 q 239 134 236 167 q 242 79 242 101 q 248 134 244 101 q 256 201 251 167 q 264 264 260 235 l 361 1014 l 479 1014 l 569 264 q 578 201 574 235 q 586 134 582 167 q 592 79 590 101 q 597 134 594 101 q 604 201 600 167 q 611 264 608 235 l 692 1014 l 793 1014 l 672 0 l 531 0 l 440 757 q 433 822 436 789 q 426 885 429 856 q 419 935 422 915 q 414 886 418 915 q 406 823 410 857 q 399 757 403 789 l 300 0 l 160 0 z "},"Ẃ":{"ha":833,"x_min":40,"x_max":793,"o":"m 160 0 l 40 1014 l 144 1014 l 226 264 q 233 201 229 235 q 239 134 236 167 q 242 79 242 101 q 248 134 244 101 q 256 201 251 167 q 264 264 260 235 l 361 1014 l 479 1014 l 569 264 q 578 201 574 235 q 586 134 582 167 q 592 79 590 101 q 597 134 594 101 q 604 201 600 167 q 611 264 608 235 l 692 1014 l 793 1014 l 672 0 l 531 0 l 440 757 q 433 822 436 789 q 426 885 429 856 q 419 935 422 915 q 414 886 418 915 q 406 823 410 857 q 399 757 403 789 l 300 0 l 160 0 m 344 1125 l 492 1319 l 613 1319 l 457 1125 l 344 1125 z "},"Ŵ":{"ha":833,"x_min":40,"x_max":793,"o":"m 160 0 l 40 1014 l 144 1014 l 226 264 q 233 201 229 235 q 239 134 236 167 q 242 79 242 101 q 248 134 244 101 q 256 201 251 167 q 264 264 260 235 l 361 1014 l 479 1014 l 569 264 q 578 201 574 235 q 586 134 582 167 q 592 79 590 101 q 597 134 594 101 q 604 201 600 167 q 611 264 608 235 l 692 1014 l 793 1014 l 672 0 l 531 0 l 440 757 q 433 822 436 789 q 426 885 429 856 q 419 935 422 915 q 414 886 418 915 q 406 823 410 857 q 399 757 403 789 l 300 0 l 160 0 m 176 1125 l 363 1319 l 469 1319 l 657 1125 l 538 1125 l 417 1244 l 299 1125 l 176 1125 z "},"Ẅ":{"ha":833,"x_min":40,"x_max":793,"o":"m 160 0 l 40 1014 l 144 1014 l 226 264 q 233 201 229 235 q 239 134 236 167 q 242 79 242 101 q 248 134 244 101 q 256 201 251 167 q 264 264 260 235 l 361 1014 l 479 1014 l 569 264 q 578 201 574 235 q 586 134 582 167 q 592 79 590 101 q 597 134 594 101 q 604 201 600 167 q 611 264 608 235 l 692 1014 l 793 1014 l 672 0 l 531 0 l 440 757 q 433 822 436 789 q 426 885 429 856 q 419 935 422 915 q 414 886 418 915 q 406 823 410 857 q 399 757 403 789 l 300 0 l 160 0 m 571 1138 q 510 1160 533 1138 q 486 1222 486 1183 q 510 1285 486 1263 q 571 1308 533 1308 q 633 1285 610 1308 q 656 1222 656 1263 q 633 1160 656 1183 q 571 1138 610 1138 m 265 1138 q 204 1160 228 1138 q 181 1222 181 1183 q 204 1285 181 1263 q 265 1308 228 1308 q 326 1285 303 1308 q 350 1222 350 1263 q 326 1160 350 1183 q 265 1138 303 1138 z "},"Ẁ":{"ha":833,"x_min":40,"x_max":793,"o":"m 160 0 l 40 1014 l 144 1014 l 226 264 q 233 201 229 235 q 239 134 236 167 q 242 79 242 101 q 248 134 244 101 q 256 201 251 167 q 264 264 260 235 l 361 1014 l 479 1014 l 569 264 q 578 201 574 235 q 586 134 582 167 q 592 79 590 101 q 597 134 594 101 q 604 201 600 167 q 611 264 608 235 l 692 1014 l 793 1014 l 672 0 l 531 0 l 440 757 q 433 822 436 789 q 426 885 429 856 q 419 935 422 915 q 414 886 418 915 q 406 823 410 857 q 399 757 403 789 l 300 0 l 160 0 m 376 1125 l 218 1319 l 343 1319 l 494 1125 l 376 1125 z "},"X":{"ha":833,"x_min":60,"x_max":774,"o":"m 60 0 l 354 518 l 78 1014 l 204 1014 l 364 711 q 392 658 376 688 q 418 608 408 628 q 444 658 428 628 q 472 711 460 688 l 635 1014 l 756 1014 l 479 525 l 774 0 l 647 0 l 469 329 q 441 383 457 353 q 417 433 425 414 q 391 384 407 414 q 363 331 375 354 l 182 0 l 60 0 z "},"Y":{"ha":833,"x_min":54,"x_max":779,"o":"m 361 0 l 361 382 l 54 1014 l 168 1014 l 376 586 q 403 528 393 553 q 418 490 414 503 q 433 528 422 503 q 460 586 444 553 l 665 1014 l 779 1014 l 472 382 l 472 0 l 361 0 z "},"Ý":{"ha":833,"x_min":54,"x_max":779,"o":"m 361 0 l 361 382 l 54 1014 l 168 1014 l 376 586 q 403 528 393 553 q 418 490 414 503 q 433 528 422 503 q 460 586 444 553 l 665 1014 l 779 1014 l 472 382 l 472 0 l 361 0 m 344 1125 l 492 1319 l 613 1319 l 457 1125 l 344 1125 z "},"Ŷ":{"ha":833,"x_min":54,"x_max":779,"o":"m 361 0 l 361 382 l 54 1014 l 168 1014 l 376 586 q 403 528 393 553 q 418 490 414 503 q 433 528 422 503 q 460 586 444 553 l 665 1014 l 779 1014 l 472 382 l 472 0 l 361 0 m 176 1125 l 363 1319 l 469 1319 l 657 1125 l 538 1125 l 417 1244 l 299 1125 l 176 1125 z "},"Ÿ":{"ha":833,"x_min":54,"x_max":779,"o":"m 361 0 l 361 382 l 54 1014 l 168 1014 l 376 586 q 403 528 393 553 q 418 490 414 503 q 433 528 422 503 q 460 586 444 553 l 665 1014 l 779 1014 l 472 382 l 472 0 l 361 0 m 571 1138 q 510 1160 533 1138 q 486 1222 486 1183 q 510 1285 486 1263 q 571 1308 533 1308 q 633 1285 610 1308 q 656 1222 656 1263 q 633 1160 656 1183 q 571 1138 610 1138 m 265 1138 q 204 1160 228 1138 q 181 1222 181 1183 q 204 1285 181 1263 q 265 1308 228 1308 q 326 1285 303 1308 q 350 1222 350 1263 q 326 1160 350 1183 q 265 1138 303 1138 z "},"Ỵ":{"ha":833,"x_min":54,"x_max":779,"o":"m 361 0 l 361 382 l 54 1014 l 168 1014 l 376 586 q 403 528 393 553 q 418 490 414 503 q 433 528 422 503 q 460 586 444 553 l 665 1014 l 779 1014 l 472 382 l 472 0 l 361 0 m 431 -293 q 362 -270 388 -293 q 336 -208 336 -247 q 362 -145 336 -168 q 431 -122 388 -122 q 499 -145 474 -122 q 525 -208 525 -168 q 499 -270 525 -247 q 431 -293 474 -293 z "},"Ỳ":{"ha":833,"x_min":54,"x_max":779,"o":"m 361 0 l 361 382 l 54 1014 l 168 1014 l 376 586 q 403 528 393 553 q 418 490 414 503 q 433 528 422 503 q 460 586 444 553 l 665 1014 l 779 1014 l 472 382 l 472 0 l 361 0 m 376 1125 l 218 1319 l 343 1319 l 494 1125 l 376 1125 z "},"Ỷ":{"ha":833,"x_min":54,"x_max":779,"o":"m 361 0 l 361 382 l 54 1014 l 168 1014 l 376 586 q 403 528 393 553 q 418 490 414 503 q 433 528 422 503 q 460 586 444 553 l 665 1014 l 779 1014 l 472 382 l 472 0 l 361 0 m 364 1111 l 431 1203 q 451 1250 451 1233 q 406 1281 451 1281 l 296 1281 l 296 1360 l 410 1360 q 508 1333 471 1360 q 546 1261 546 1306 q 521 1188 546 1222 l 469 1111 l 364 1111 z "},"Ȳ":{"ha":833,"x_min":54,"x_max":779,"o":"m 361 0 l 361 382 l 54 1014 l 168 1014 l 376 586 q 403 528 393 553 q 418 490 414 503 q 433 528 422 503 q 460 586 444 553 l 665 1014 l 779 1014 l 472 382 l 472 0 l 361 0 m 201 1172 l 201 1264 l 632 1264 l 632 1172 l 201 1172 z "},"Ỹ":{"ha":833,"x_min":54,"x_max":779,"o":"m 361 0 l 361 382 l 54 1014 l 168 1014 l 376 586 q 403 528 393 553 q 418 490 414 503 q 433 528 422 503 q 460 586 444 553 l 665 1014 l 779 1014 l 472 382 l 472 0 l 361 0 m 515 1132 q 449 1148 475 1132 q 403 1185 422 1164 q 367 1222 385 1206 q 325 1238 349 1238 q 289 1224 303 1238 q 275 1182 275 1210 l 275 1139 l 194 1139 l 194 1182 q 228 1278 194 1244 q 319 1313 263 1313 q 387 1297 360 1313 q 433 1260 414 1281 q 469 1223 451 1239 q 511 1207 486 1207 q 546 1221 533 1207 q 558 1263 558 1235 l 558 1306 l 639 1306 l 639 1263 q 606 1166 639 1200 q 515 1132 572 1132 z "},"Z":{"ha":833,"x_min":121,"x_max":713,"o":"m 121 0 l 121 110 l 588 914 l 126 914 l 126 1014 l 697 1014 l 697 901 l 232 100 l 713 100 l 713 0 l 121 0 z "},"Ź":{"ha":833,"x_min":121,"x_max":713,"o":"m 121 0 l 121 110 l 588 914 l 126 914 l 126 1014 l 697 1014 l 697 901 l 232 100 l 713 100 l 713 0 l 121 0 m 344 1125 l 492 1319 l 613 1319 l 457 1125 l 344 1125 z "},"Ž":{"ha":833,"x_min":121,"x_max":713,"o":"m 121 0 l 121 110 l 588 914 l 126 914 l 126 1014 l 697 1014 l 697 901 l 232 100 l 713 100 l 713 0 l 121 0 m 364 1125 l 176 1319 l 296 1319 l 418 1200 l 536 1319 l 657 1319 l 471 1125 l 364 1125 z "},"Ż":{"ha":833,"x_min":121,"x_max":713,"o":"m 121 0 l 121 110 l 588 914 l 126 914 l 126 1014 l 697 1014 l 697 901 l 232 100 l 713 100 l 713 0 l 121 0 m 417 1136 q 348 1160 374 1136 q 322 1222 322 1183 q 348 1285 322 1261 q 417 1308 374 1308 q 485 1285 460 1308 q 511 1222 511 1261 q 485 1160 511 1183 q 417 1136 460 1136 z "},"a":{"ha":833,"x_min":97,"x_max":701,"o":"m 357 -14 q 167 48 236 -14 q 97 215 97 110 q 165 380 97 319 q 349 440 233 440 l 592 440 l 592 521 q 547 639 592 597 q 421 681 503 681 q 301 649 349 681 q 246 563 253 617 l 135 563 q 227 719 149 661 q 424 778 306 778 q 626 709 551 778 q 701 524 701 640 l 701 0 l 593 0 l 593 149 l 575 149 l 596 171 q 531 36 596 86 q 357 -14 465 -14 m 383 75 q 533 121 475 75 q 592 240 592 167 l 592 356 l 350 356 q 246 319 285 356 q 207 221 207 283 q 254 115 207 154 q 383 75 301 75 z "},"á":{"ha":833,"x_min":97,"x_max":701,"o":"m 357 -14 q 167 48 236 -14 q 97 215 97 110 q 165 380 97 319 q 349 440 233 440 l 592 440 l 592 521 q 547 639 592 597 q 421 681 503 681 q 301 649 349 681 q 246 563 253 617 l 135 563 q 227 719 149 661 q 424 778 306 778 q 626 709 551 778 q 701 524 701 640 l 701 0 l 593 0 l 593 149 l 575 149 l 596 171 q 531 36 596 86 q 357 -14 465 -14 m 383 75 q 533 121 475 75 q 592 240 592 167 l 592 356 l 350 356 q 246 319 285 356 q 207 221 207 283 q 254 115 207 154 q 383 75 301 75 m 356 896 l 503 1090 l 624 1090 l 468 896 l 356 896 z "},"ă":{"ha":833,"x_min":97,"x_max":701,"o":"m 357 -14 q 167 48 236 -14 q 97 215 97 110 q 165 380 97 319 q 349 440 233 440 l 592 440 l 592 521 q 547 639 592 597 q 421 681 503 681 q 301 649 349 681 q 246 563 253 617 l 135 563 q 227 719 149 661 q 424 778 306 778 q 626 709 551 778 q 701 524 701 640 l 701 0 l 593 0 l 593 149 l 575 149 l 596 171 q 531 36 596 86 q 357 -14 465 -14 m 383 75 q 533 121 475 75 q 592 240 592 167 l 592 356 l 350 356 q 246 319 285 356 q 207 221 207 283 q 254 115 207 154 q 383 75 301 75 m 424 890 q 266 945 325 890 q 207 1090 207 1000 l 296 1090 q 330 999 296 1033 q 422 964 364 964 q 517 999 482 964 q 551 1090 551 1033 l 640 1090 q 581 945 640 1000 q 424 890 522 890 z "},"ắ":{"ha":833,"x_min":97,"x_max":701,"o":"m 357 -14 q 167 48 236 -14 q 97 215 97 110 q 165 380 97 319 q 349 440 233 440 l 592 440 l 592 521 q 547 639 592 597 q 421 681 503 681 q 301 649 349 681 q 246 563 253 617 l 135 563 q 227 719 149 661 q 424 778 306 778 q 626 709 551 778 q 701 524 701 640 l 701 0 l 593 0 l 593 149 l 575 149 l 596 171 q 531 36 596 86 q 357 -14 465 -14 m 383 75 q 533 121 475 75 q 592 240 592 167 l 592 356 l 350 356 q 246 319 285 356 q 207 221 207 283 q 254 115 207 154 q 383 75 301 75 m 417 890 q 251 940 314 890 q 188 1069 188 990 l 276 1069 q 315 995 276 1024 q 417 967 353 967 q 519 995 481 967 q 557 1069 557 1024 l 646 1069 q 583 940 646 990 q 417 890 521 890 m 338 1056 l 494 1236 l 615 1236 l 449 1056 l 338 1056 z "},"ặ":{"ha":833,"x_min":97,"x_max":701,"o":"m 424 890 q 266 945 325 890 q 207 1090 207 1000 l 296 1090 q 330 999 296 1033 q 422 964 364 964 q 517 999 482 964 q 551 1090 551 1033 l 640 1090 q 581 945 640 1000 q 424 890 522 890 m 357 -14 q 167 48 236 -14 q 97 215 97 110 q 165 380 97 319 q 349 440 233 440 l 592 440 l 592 521 q 547 639 592 597 q 421 681 503 681 q 301 649 349 681 q 246 563 253 617 l 135 563 q 227 719 149 661 q 424 778 306 778 q 626 709 551 778 q 701 524 701 640 l 701 0 l 593 0 l 593 149 l 575 149 l 596 171 q 531 36 596 86 q 357 -14 465 -14 m 383 75 q 533 121 475 75 q 592 240 592 167 l 592 356 l 350 356 q 246 319 285 356 q 207 221 207 283 q 254 115 207 154 q 383 75 301 75 m 424 -293 q 355 -270 381 -293 q 329 -208 329 -247 q 355 -145 329 -168 q 424 -122 381 -122 q 492 -145 467 -122 q 518 -208 518 -168 q 492 -270 518 -247 q 424 -293 467 -293 z "},"ằ":{"ha":833,"x_min":97,"x_max":701,"o":"m 357 -14 q 167 48 236 -14 q 97 215 97 110 q 165 380 97 319 q 349 440 233 440 l 592 440 l 592 521 q 547 639 592 597 q 421 681 503 681 q 301 649 349 681 q 246 563 253 617 l 135 563 q 227 719 149 661 q 424 778 306 778 q 626 709 551 778 q 701 524 701 640 l 701 0 l 593 0 l 593 149 l 575 149 l 596 171 q 531 36 596 86 q 357 -14 465 -14 m 383 75 q 533 121 475 75 q 592 240 592 167 l 592 356 l 350 356 q 246 319 285 356 q 207 221 207 283 q 254 115 207 154 q 383 75 301 75 m 417 890 q 251 940 314 890 q 188 1069 188 990 l 276 1069 q 315 995 276 1024 q 417 967 353 967 q 519 995 481 967 q 557 1069 557 1024 l 646 1069 q 583 940 646 990 q 417 890 521 890 m 386 1056 l 219 1236 l 339 1236 l 497 1056 l 386 1056 z "},"ẳ":{"ha":833,"x_min":97,"x_max":701,"o":"m 357 -14 q 167 48 236 -14 q 97 215 97 110 q 165 380 97 319 q 349 440 233 440 l 592 440 l 592 521 q 547 639 592 597 q 421 681 503 681 q 301 649 349 681 q 246 563 253 617 l 135 563 q 227 719 149 661 q 424 778 306 778 q 626 709 551 778 q 701 524 701 640 l 701 0 l 593 0 l 593 149 l 575 149 l 596 171 q 531 36 596 86 q 357 -14 465 -14 m 383 75 q 533 121 475 75 q 592 240 592 167 l 592 356 l 350 356 q 246 319 285 356 q 207 221 207 283 q 254 115 207 154 q 383 75 301 75 m 417 890 q 251 940 314 890 q 188 1069 188 990 l 276 1069 q 315 995 276 1024 q 417 967 353 967 q 519 995 481 967 q 557 1069 557 1024 l 646 1069 q 583 940 646 990 q 417 890 521 890 m 357 1056 l 422 1142 q 438 1182 438 1163 q 427 1207 438 1197 q 397 1217 417 1217 l 314 1217 l 314 1290 l 407 1290 q 497 1265 464 1290 q 531 1197 531 1239 q 524 1159 531 1178 q 504 1124 517 1140 l 454 1056 l 357 1056 z "},"ẵ":{"ha":833,"x_min":97,"x_max":701,"o":"m 357 -14 q 167 48 236 -14 q 97 215 97 110 q 165 380 97 319 q 349 440 233 440 l 592 440 l 592 521 q 547 639 592 597 q 421 681 503 681 q 301 649 349 681 q 246 563 253 617 l 135 563 q 227 719 149 661 q 424 778 306 778 q 626 709 551 778 q 701 524 701 640 l 701 0 l 593 0 l 593 149 l 575 149 l 596 171 q 531 36 596 86 q 357 -14 465 -14 m 383 75 q 533 121 475 75 q 592 240 592 167 l 592 356 l 350 356 q 246 319 285 356 q 207 221 207 283 q 254 115 207 154 q 383 75 301 75 m 417 896 q 258 945 318 896 q 199 1075 199 994 l 281 1075 q 318 1000 281 1029 q 415 971 356 971 q 515 1000 476 971 q 553 1075 553 1029 l 635 1075 q 575 945 635 994 q 417 896 515 896 m 510 1129 q 442 1142 468 1129 q 400 1174 417 1156 q 367 1206 383 1192 q 326 1219 351 1219 q 292 1208 304 1219 q 281 1174 281 1196 l 281 1139 l 200 1139 l 200 1168 q 234 1256 200 1224 q 325 1288 268 1288 q 394 1274 368 1288 q 436 1243 419 1261 q 469 1211 453 1225 q 508 1197 485 1197 q 553 1243 553 1197 l 553 1278 l 633 1278 l 633 1249 q 600 1161 633 1193 q 510 1129 567 1129 z "},"ǎ":{"ha":833,"x_min":97,"x_max":701,"o":"m 357 -14 q 167 48 236 -14 q 97 215 97 110 q 165 380 97 319 q 349 440 233 440 l 592 440 l 592 521 q 547 639 592 597 q 421 681 503 681 q 301 649 349 681 q 246 563 253 617 l 135 563 q 227 719 149 661 q 424 778 306 778 q 626 709 551 778 q 701 524 701 640 l 701 0 l 593 0 l 593 149 l 575 149 l 596 171 q 531 36 596 86 q 357 -14 465 -14 m 383 75 q 533 121 475 75 q 592 240 592 167 l 592 356 l 350 356 q 246 319 285 356 q 207 221 207 283 q 254 115 207 154 q 383 75 301 75 m 371 896 l 183 1090 l 303 1090 l 425 971 l 543 1090 l 664 1090 l 478 896 l 371 896 z "},"â":{"ha":833,"x_min":97,"x_max":701,"o":"m 357 -14 q 167 48 236 -14 q 97 215 97 110 q 165 380 97 319 q 349 440 233 440 l 592 440 l 592 521 q 547 639 592 597 q 421 681 503 681 q 301 649 349 681 q 246 563 253 617 l 135 563 q 227 719 149 661 q 424 778 306 778 q 626 709 551 778 q 701 524 701 640 l 701 0 l 593 0 l 593 149 l 575 149 l 596 171 q 531 36 596 86 q 357 -14 465 -14 m 383 75 q 533 121 475 75 q 592 240 592 167 l 592 356 l 350 356 q 246 319 285 356 q 207 221 207 283 q 254 115 207 154 q 383 75 301 75 m 183 896 l 369 1090 l 476 1090 l 664 896 l 544 896 l 424 1015 l 306 896 l 183 896 z "},"ấ":{"ha":833,"x_min":97,"x_max":851,"o":"m 357 -14 q 167 48 236 -14 q 97 215 97 110 q 165 380 97 319 q 349 440 233 440 l 592 440 l 592 521 q 547 639 592 597 q 421 681 503 681 q 301 649 349 681 q 246 563 253 617 l 135 563 q 227 719 149 661 q 424 778 306 778 q 626 709 551 778 q 701 524 701 640 l 701 0 l 593 0 l 593 149 l 575 149 l 596 171 q 531 36 596 86 q 357 -14 465 -14 m 383 75 q 533 121 475 75 q 592 240 592 167 l 592 356 l 350 356 q 246 319 285 356 q 207 221 207 283 q 254 115 207 154 q 383 75 301 75 m 568 1056 l 728 1250 l 851 1250 l 683 1056 l 568 1056 m 178 896 l 363 1090 l 471 1090 l 657 896 l 536 896 l 417 1015 l 297 896 l 178 896 z "},"ậ":{"ha":833,"x_min":97,"x_max":701,"o":"m 183 896 l 369 1090 l 476 1090 l 664 896 l 544 896 l 424 1015 l 306 896 l 183 896 m 357 -14 q 167 48 236 -14 q 97 215 97 110 q 165 380 97 319 q 349 440 233 440 l 592 440 l 592 521 q 547 639 592 597 q 421 681 503 681 q 301 649 349 681 q 246 563 253 617 l 135 563 q 227 719 149 661 q 424 778 306 778 q 626 709 551 778 q 701 524 701 640 l 701 0 l 593 0 l 593 149 l 575 149 l 596 171 q 531 36 596 86 q 357 -14 465 -14 m 383 75 q 533 121 475 75 q 592 240 592 167 l 592 356 l 350 356 q 246 319 285 356 q 207 221 207 283 q 254 115 207 154 q 383 75 301 75 m 424 -293 q 355 -270 381 -293 q 329 -208 329 -247 q 355 -145 329 -168 q 424 -122 381 -122 q 492 -145 467 -122 q 518 -208 518 -168 q 492 -270 518 -247 q 424 -293 467 -293 z "},"ầ":{"ha":833,"x_min":97,"x_max":742,"o":"m 357 -14 q 167 48 236 -14 q 97 215 97 110 q 165 380 97 319 q 349 440 233 440 l 592 440 l 592 521 q 547 639 592 597 q 421 681 503 681 q 301 649 349 681 q 246 563 253 617 l 135 563 q 227 719 149 661 q 424 778 306 778 q 626 709 551 778 q 701 524 701 640 l 701 0 l 593 0 l 593 149 l 575 149 l 596 171 q 531 36 596 86 q 357 -14 465 -14 m 383 75 q 533 121 475 75 q 592 240 592 167 l 592 356 l 350 356 q 246 319 285 356 q 207 221 207 283 q 254 115 207 154 q 383 75 301 75 m 626 1056 l 447 1250 l 571 1250 l 742 1056 l 626 1056 m 178 896 l 363 1090 l 471 1090 l 657 896 l 536 896 l 417 1015 l 297 896 l 178 896 z "},"ẩ":{"ha":833,"x_min":97,"x_max":757,"o":"m 357 -14 q 167 48 236 -14 q 97 215 97 110 q 165 380 97 319 q 349 440 233 440 l 592 440 l 592 521 q 547 639 592 597 q 421 681 503 681 q 301 649 349 681 q 246 563 253 617 l 135 563 q 227 719 149 661 q 424 778 306 778 q 626 709 551 778 q 701 524 701 640 l 701 0 l 593 0 l 593 149 l 575 149 l 596 171 q 531 36 596 86 q 357 -14 465 -14 m 383 75 q 533 121 475 75 q 592 240 592 167 l 592 356 l 350 356 q 246 319 285 356 q 207 221 207 283 q 254 115 207 154 q 383 75 301 75 m 588 1056 l 651 1142 q 668 1181 668 1165 q 656 1207 668 1197 q 622 1217 643 1217 l 543 1217 l 543 1290 l 626 1290 q 722 1264 686 1290 q 757 1193 757 1238 q 750 1160 757 1176 q 729 1124 743 1143 l 681 1056 l 588 1056 m 178 896 l 363 1090 l 471 1090 l 657 896 l 536 896 l 417 1015 l 297 896 l 178 896 z "},"ẫ":{"ha":833,"x_min":97,"x_max":701,"o":"m 357 -14 q 167 48 236 -14 q 97 215 97 110 q 165 380 97 319 q 349 440 233 440 l 592 440 l 592 521 q 547 639 592 597 q 421 681 503 681 q 301 649 349 681 q 246 563 253 617 l 135 563 q 227 719 149 661 q 424 778 306 778 q 626 709 551 778 q 701 524 701 640 l 701 0 l 593 0 l 593 149 l 575 149 l 596 171 q 531 36 596 86 q 357 -14 465 -14 m 383 75 q 533 121 475 75 q 592 240 592 167 l 592 356 l 350 356 q 246 319 285 356 q 207 221 207 283 q 254 115 207 154 q 383 75 301 75 m 510 1129 q 442 1142 468 1129 q 400 1174 417 1156 q 367 1206 383 1192 q 326 1219 351 1219 q 292 1208 304 1219 q 281 1174 281 1196 l 281 1139 l 200 1139 l 200 1168 q 234 1256 200 1224 q 325 1288 268 1288 q 394 1274 368 1288 q 436 1243 419 1261 q 469 1211 453 1225 q 508 1197 485 1197 q 553 1243 553 1197 l 553 1278 l 633 1278 l 633 1249 q 600 1161 633 1193 q 510 1129 567 1129 m 178 896 l 363 1090 l 471 1090 l 657 896 l 536 896 l 417 1015 l 297 896 l 178 896 z "},"ä":{"ha":833,"x_min":97,"x_max":701,"o":"m 357 -14 q 167 48 236 -14 q 97 215 97 110 q 165 380 97 319 q 349 440 233 440 l 592 440 l 592 521 q 547 639 592 597 q 421 681 503 681 q 301 649 349 681 q 246 563 253 617 l 135 563 q 227 719 149 661 q 424 778 306 778 q 626 709 551 778 q 701 524 701 640 l 701 0 l 593 0 l 593 149 l 575 149 l 596 171 q 531 36 596 86 q 357 -14 465 -14 m 383 75 q 533 121 475 75 q 592 240 592 167 l 592 356 l 350 356 q 246 319 285 356 q 207 221 207 283 q 254 115 207 154 q 383 75 301 75 m 576 904 q 515 926 539 904 q 492 988 492 949 q 515 1051 492 1028 q 576 1075 539 1075 q 638 1051 615 1075 q 661 988 661 1028 q 638 927 661 950 q 576 904 615 904 m 271 904 q 210 926 233 904 q 186 988 186 949 q 210 1051 186 1028 q 271 1075 233 1075 q 332 1051 308 1075 q 356 988 356 1028 q 332 927 356 950 q 271 904 308 904 z "},"ạ":{"ha":833,"x_min":97,"x_max":701,"o":"m 357 -14 q 167 48 236 -14 q 97 215 97 110 q 165 380 97 319 q 349 440 233 440 l 592 440 l 592 521 q 547 639 592 597 q 421 681 503 681 q 301 649 349 681 q 246 563 253 617 l 135 563 q 227 719 149 661 q 424 778 306 778 q 626 709 551 778 q 701 524 701 640 l 701 0 l 593 0 l 593 149 l 575 149 l 596 171 q 531 36 596 86 q 357 -14 465 -14 m 383 75 q 533 121 475 75 q 592 240 592 167 l 592 356 l 350 356 q 246 319 285 356 q 207 221 207 283 q 254 115 207 154 q 383 75 301 75 m 424 -293 q 355 -270 381 -293 q 329 -208 329 -247 q 355 -145 329 -168 q 424 -122 381 -122 q 492 -145 467 -122 q 518 -208 518 -168 q 492 -270 518 -247 q 424 -293 467 -293 z "},"à":{"ha":833,"x_min":97,"x_max":701,"o":"m 357 -14 q 167 48 236 -14 q 97 215 97 110 q 165 380 97 319 q 349 440 233 440 l 592 440 l 592 521 q 547 639 592 597 q 421 681 503 681 q 301 649 349 681 q 246 563 253 617 l 135 563 q 227 719 149 661 q 424 778 306 778 q 626 709 551 778 q 701 524 701 640 l 701 0 l 593 0 l 593 149 l 575 149 l 596 171 q 531 36 596 86 q 357 -14 465 -14 m 383 75 q 533 121 475 75 q 592 240 592 167 l 592 356 l 350 356 q 246 319 285 356 q 207 221 207 283 q 254 115 207 154 q 383 75 301 75 m 383 896 l 225 1090 l 350 1090 l 501 896 l 383 896 z "},"ả":{"ha":833,"x_min":97,"x_max":701,"o":"m 357 -14 q 167 48 236 -14 q 97 215 97 110 q 165 380 97 319 q 349 440 233 440 l 592 440 l 592 521 q 547 639 592 597 q 421 681 503 681 q 301 649 349 681 q 246 563 253 617 l 135 563 q 227 719 149 661 q 424 778 306 778 q 626 709 551 778 q 701 524 701 640 l 701 0 l 593 0 l 593 149 l 575 149 l 596 171 q 531 36 596 86 q 357 -14 465 -14 m 383 75 q 533 121 475 75 q 592 240 592 167 l 592 356 l 350 356 q 246 319 285 356 q 207 221 207 283 q 254 115 207 154 q 383 75 301 75 m 375 896 l 447 988 q 468 1035 468 1017 q 421 1065 468 1065 l 307 1065 l 307 1144 l 447 1144 q 531 1119 499 1144 q 563 1047 563 1093 q 538 972 563 1004 l 481 896 l 375 896 z "},"ā":{"ha":833,"x_min":97,"x_max":701,"o":"m 357 -14 q 167 48 236 -14 q 97 215 97 110 q 165 380 97 319 q 349 440 233 440 l 592 440 l 592 521 q 547 639 592 597 q 421 681 503 681 q 301 649 349 681 q 246 563 253 617 l 135 563 q 227 719 149 661 q 424 778 306 778 q 626 709 551 778 q 701 524 701 640 l 701 0 l 593 0 l 593 149 l 575 149 l 596 171 q 531 36 596 86 q 357 -14 465 -14 m 383 75 q 533 121 475 75 q 592 240 592 167 l 592 356 l 350 356 q 246 319 285 356 q 207 221 207 283 q 254 115 207 154 q 383 75 301 75 m 208 936 l 208 1028 l 639 1028 l 639 936 l 208 936 z "},"ą":{"ha":833,"x_min":97,"x_max":774,"o":"m 667 -279 q 553 -244 596 -279 q 510 -154 510 -210 q 538 -72 510 -114 q 626 14 565 -31 l 701 0 q 635 -72 657 -39 q 614 -133 614 -104 q 634 -183 614 -164 q 689 -203 654 -203 l 774 -203 l 774 -279 l 667 -279 m 357 -14 q 167 48 236 -14 q 97 215 97 110 q 165 380 97 319 q 349 440 233 440 l 592 440 l 592 521 q 547 639 592 597 q 421 681 503 681 q 301 649 349 681 q 246 563 253 617 l 135 563 q 227 719 149 661 q 424 778 306 778 q 626 709 551 778 q 701 524 701 640 l 701 0 l 593 0 l 593 149 l 575 149 l 596 171 q 531 36 596 86 q 357 -14 465 -14 m 383 75 q 533 121 475 75 q 592 240 592 167 l 592 356 l 350 356 q 246 319 285 356 q 207 221 207 283 q 254 115 207 154 q 383 75 301 75 z "},"å":{"ha":833,"x_min":97,"x_max":701,"o":"m 357 -14 q 167 48 236 -14 q 97 215 97 110 q 165 380 97 319 q 349 440 233 440 l 592 440 l 592 521 q 547 639 592 597 q 421 681 503 681 q 301 649 349 681 q 246 563 253 617 l 135 563 q 227 719 149 661 q 424 778 306 778 q 626 709 551 778 q 701 524 701 640 l 701 0 l 593 0 l 593 149 l 575 149 l 596 171 q 531 36 596 86 q 357 -14 465 -14 m 383 75 q 533 121 475 75 q 592 240 592 167 l 592 356 l 350 356 q 246 319 285 356 q 207 221 207 283 q 254 115 207 154 q 383 75 301 75 m 424 847 q 307 890 351 847 q 263 1000 263 932 q 307 1111 263 1069 q 424 1153 351 1153 q 540 1110 496 1153 q 585 1000 585 1068 q 540 890 585 932 q 424 847 496 847 m 424 914 q 485 938 463 914 q 508 1000 508 961 q 485 1064 508 1040 q 424 1088 463 1088 q 362 1064 385 1088 q 339 1000 339 1040 q 362 938 339 961 q 424 914 385 914 z "},"ã":{"ha":833,"x_min":97,"x_max":701,"o":"m 357 -14 q 167 48 236 -14 q 97 215 97 110 q 165 380 97 319 q 349 440 233 440 l 592 440 l 592 521 q 547 639 592 597 q 421 681 503 681 q 301 649 349 681 q 246 563 253 617 l 135 563 q 227 719 149 661 q 424 778 306 778 q 626 709 551 778 q 701 524 701 640 l 701 0 l 593 0 l 593 149 l 575 149 l 596 171 q 531 36 596 86 q 357 -14 465 -14 m 383 75 q 533 121 475 75 q 592 240 592 167 l 592 356 l 350 356 q 246 319 285 356 q 207 221 207 283 q 254 115 207 154 q 383 75 301 75 m 522 903 q 456 919 482 903 q 410 956 429 935 q 374 992 392 976 q 332 1008 356 1008 q 296 994 310 1008 q 282 953 282 981 l 282 910 l 201 910 l 201 953 q 235 1049 201 1015 q 326 1083 269 1083 q 394 1067 367 1083 q 440 1031 421 1051 q 476 994 458 1010 q 518 978 493 978 q 553 992 540 978 q 565 1033 565 1006 l 565 1076 l 646 1076 l 646 1033 q 613 937 646 971 q 522 903 579 903 z "},"æ":{"ha":833,"x_min":50,"x_max":783,"o":"m 238 -14 q 101 40 151 -14 q 50 183 50 94 l 50 263 q 106 397 50 347 q 254 447 161 447 l 369 447 l 369 558 q 344 651 369 619 q 267 683 318 683 q 197 656 224 683 q 168 585 169 629 l 63 585 q 115 725 64 672 q 250 778 167 778 q 340 759 304 778 q 395 715 376 740 q 418 664 414 689 l 424 664 q 447 715 428 689 q 499 759 465 740 q 585 778 533 778 q 730 719 676 778 q 783 560 783 660 l 783 358 l 471 358 l 471 204 q 499 115 471 150 q 574 81 528 81 q 649 108 621 81 q 678 179 676 135 l 783 179 q 728 39 782 92 q 586 -14 675 -14 q 499 4 533 -14 q 446 49 464 22 q 424 99 428 75 l 418 99 q 393 49 414 75 q 335 4 372 22 q 238 -14 297 -14 m 261 81 q 340 115 310 81 q 369 204 369 150 l 369 358 l 257 358 q 187 333 213 358 q 161 263 161 307 l 161 183 q 188 109 161 138 q 261 81 215 81 m 471 447 l 678 447 l 678 560 q 650 649 678 615 q 574 683 622 683 q 499 649 526 683 q 471 560 471 615 l 471 447 z "},"ǽ":{"ha":833,"x_min":50,"x_max":783,"o":"m 238 -14 q 101 40 151 -14 q 50 183 50 94 l 50 263 q 106 397 50 347 q 254 447 161 447 l 369 447 l 369 558 q 344 651 369 619 q 267 683 318 683 q 197 656 224 683 q 168 585 169 629 l 63 585 q 115 725 64 672 q 250 778 167 778 q 340 759 304 778 q 395 715 376 740 q 418 664 414 689 l 424 664 q 447 715 428 689 q 499 759 465 740 q 585 778 533 778 q 730 719 676 778 q 783 560 783 660 l 783 358 l 471 358 l 471 204 q 499 115 471 150 q 574 81 528 81 q 649 108 621 81 q 678 179 676 135 l 783 179 q 728 39 782 92 q 586 -14 675 -14 q 499 4 533 -14 q 446 49 464 22 q 424 99 428 75 l 418 99 q 393 49 414 75 q 335 4 372 22 q 238 -14 297 -14 m 261 81 q 340 115 310 81 q 369 204 369 150 l 369 358 l 257 358 q 187 333 213 358 q 161 263 161 307 l 161 183 q 188 109 161 138 q 261 81 215 81 m 471 447 l 678 447 l 678 560 q 650 649 678 615 q 574 683 622 683 q 499 649 526 683 q 471 560 471 615 l 471 447 m 349 896 l 496 1090 l 617 1090 l 461 896 l 349 896 z "},"b":{"ha":833,"x_min":135,"x_max":708,"o":"m 454 -14 q 299 38 358 -14 q 240 181 240 90 l 274 135 l 244 135 l 244 0 l 135 0 l 135 1014 l 244 1014 l 244 796 l 243 629 l 269 629 l 240 583 q 300 725 240 672 q 454 778 360 778 q 639 701 569 778 q 708 494 708 625 l 708 268 q 639 63 708 139 q 454 -14 569 -14 m 419 82 q 550 132 503 82 q 597 274 597 182 l 597 490 q 550 632 597 582 q 419 682 503 682 q 292 631 339 682 q 244 490 244 581 l 244 274 q 292 133 244 183 q 419 82 339 82 z "},"c":{"ha":833,"x_min":125,"x_max":713,"o":"m 421 -14 q 265 21 332 -14 q 162 120 199 56 q 125 274 125 185 l 125 490 q 162 644 125 579 q 265 743 199 708 q 421 778 332 778 q 631 707 551 778 q 713 514 710 636 l 603 514 q 552 636 600 593 q 421 679 504 679 q 286 630 336 679 q 236 490 236 581 l 236 274 q 286 135 236 185 q 421 85 336 85 q 552 128 504 85 q 603 250 600 172 l 713 250 q 631 57 710 128 q 421 -14 551 -14 z "},"ć":{"ha":833,"x_min":125,"x_max":713,"o":"m 421 -14 q 265 21 332 -14 q 162 120 199 56 q 125 274 125 185 l 125 490 q 162 644 125 579 q 265 743 199 708 q 421 778 332 778 q 631 707 551 778 q 713 514 710 636 l 603 514 q 552 636 600 593 q 421 679 504 679 q 286 630 336 679 q 236 490 236 581 l 236 274 q 286 135 236 185 q 421 85 336 85 q 552 128 504 85 q 603 250 600 172 l 713 250 q 631 57 710 128 q 421 -14 551 -14 m 353 896 l 500 1090 l 621 1090 l 465 896 l 353 896 z "},"č":{"ha":833,"x_min":125,"x_max":713,"o":"m 421 -14 q 265 21 332 -14 q 162 120 199 56 q 125 274 125 185 l 125 490 q 162 644 125 579 q 265 743 199 708 q 421 778 332 778 q 631 707 551 778 q 713 514 710 636 l 603 514 q 552 636 600 593 q 421 679 504 679 q 286 630 336 679 q 236 490 236 581 l 236 274 q 286 135 236 185 q 421 85 336 85 q 552 128 504 85 q 603 250 600 172 l 713 250 q 631 57 710 128 q 421 -14 551 -14 m 368 896 l 181 1090 l 300 1090 l 422 971 l 540 1090 l 661 1090 l 475 896 l 368 896 z "},"ç":{"ha":833,"x_min":125,"x_max":713,"o":"m 292 -279 l 292 -210 l 392 -210 q 443 -193 424 -210 q 463 -158 463 -176 q 422 -113 463 -132 q 311 -94 382 -94 l 360 36 l 433 36 l 404 -49 q 477 -65 439 -51 q 541 -104 515 -79 q 567 -165 567 -129 q 523 -246 567 -212 q 407 -279 479 -279 l 292 -279 m 421 -14 q 265 21 332 -14 q 162 120 199 56 q 125 274 125 185 l 125 490 q 162 644 125 579 q 265 743 199 708 q 421 778 332 778 q 631 707 551 778 q 713 514 710 636 l 603 514 q 552 636 600 593 q 421 679 504 679 q 286 630 336 679 q 236 490 236 581 l 236 274 q 286 135 236 185 q 421 85 336 85 q 552 128 504 85 q 603 250 600 172 l 713 250 q 631 57 710 128 q 421 -14 551 -14 z "},"ĉ":{"ha":833,"x_min":125,"x_max":713,"o":"m 421 -14 q 265 21 332 -14 q 162 120 199 56 q 125 274 125 185 l 125 490 q 162 644 125 579 q 265 743 199 708 q 421 778 332 778 q 631 707 551 778 q 713 514 710 636 l 603 514 q 552 636 600 593 q 421 679 504 679 q 286 630 336 679 q 236 490 236 581 l 236 274 q 286 135 236 185 q 421 85 336 85 q 552 128 504 85 q 603 250 600 172 l 713 250 q 631 57 710 128 q 421 -14 551 -14 m 176 896 l 363 1090 l 469 1090 l 657 896 l 538 896 l 417 1015 l 299 896 l 176 896 z "},"ċ":{"ha":833,"x_min":125,"x_max":713,"o":"m 421 -14 q 265 21 332 -14 q 162 120 199 56 q 125 274 125 185 l 125 490 q 162 644 125 579 q 265 743 199 708 q 421 778 332 778 q 631 707 551 778 q 713 514 710 636 l 603 514 q 552 636 600 593 q 421 679 504 679 q 286 630 336 679 q 236 490 236 581 l 236 274 q 286 135 236 185 q 421 85 336 85 q 552 128 504 85 q 603 250 600 172 l 713 250 q 631 57 710 128 q 421 -14 551 -14 m 417 904 q 348 926 374 904 q 322 988 322 949 q 348 1051 322 1028 q 417 1075 374 1075 q 485 1051 460 1075 q 511 988 511 1028 q 485 927 511 950 q 417 904 460 904 z "},"d":{"ha":833,"x_min":125,"x_max":699,"o":"m 379 -14 q 195 63 265 -14 q 125 268 125 139 l 125 494 q 194 701 125 625 q 379 778 264 778 q 534 725 475 778 q 593 583 593 672 l 564 629 l 590 629 l 589 796 l 589 1014 l 699 1014 l 699 0 l 589 0 l 589 135 l 560 135 l 593 181 q 534 38 593 90 q 379 -14 475 -14 m 414 82 q 542 133 496 82 q 589 274 589 183 l 589 490 q 542 631 589 581 q 414 682 496 682 q 283 632 331 682 q 236 490 236 582 l 236 274 q 283 132 236 182 q 414 82 331 82 z "},"ð":{"ha":833,"x_min":101,"x_max":732,"o":"m 415 -14 q 251 25 322 -14 q 140 135 179 64 q 101 299 101 206 q 138 460 101 392 q 240 567 174 529 q 393 606 306 606 q 472 591 438 606 q 530 556 506 576 q 567 515 554 535 l 582 515 q 552 572 576 531 q 483 671 528 613 l 390 801 l 163 694 l 163 792 l 339 874 l 236 1014 l 367 1014 l 433 917 l 640 1014 l 640 917 l 485 844 l 589 693 q 694 497 657 597 q 732 306 732 396 q 692 138 732 210 q 582 26 653 65 q 415 -14 511 -14 m 415 86 q 565 144 508 86 q 621 299 621 203 q 595 410 621 363 q 524 485 569 458 q 415 511 478 511 q 269 453 325 511 q 213 299 213 394 q 269 144 213 203 q 415 86 325 86 z "},"ď":{"ha":833,"x_min":97,"x_max":822,"o":"m 708 764 l 713 1014 l 822 1014 l 807 764 l 708 764 m 329 -14 q 160 61 222 -14 q 97 263 97 136 l 97 500 q 160 703 97 628 q 329 778 222 778 q 471 725 418 778 q 524 583 524 672 l 494 629 l 522 629 l 519 796 l 519 1014 l 631 1014 l 631 0 l 519 0 l 519 135 l 492 135 l 524 181 q 471 39 524 92 q 329 -14 418 -14 m 364 82 q 478 131 438 82 q 519 268 519 181 l 519 494 q 478 633 519 583 q 364 682 438 682 q 250 633 292 682 q 208 494 208 583 l 208 268 q 250 131 208 181 q 364 82 292 82 z "},"đ":{"ha":833,"x_min":131,"x_max":829,"o":"m 379 -14 q 198 63 265 -14 q 131 268 131 139 l 131 411 q 197 618 131 542 q 379 694 264 694 q 533 642 475 694 q 590 500 590 589 l 561 546 l 589 546 l 586 713 l 586 1014 l 697 1014 l 697 0 l 586 0 l 586 135 l 558 135 l 590 181 q 533 38 590 90 q 379 -14 475 -14 m 414 82 q 541 133 496 82 q 586 274 586 183 l 586 407 q 541 548 586 497 q 414 599 496 599 q 285 549 331 599 q 240 407 240 499 l 240 274 q 285 132 240 182 q 414 82 331 82 m 351 797 l 351 890 l 829 890 l 829 797 l 351 797 z "},"e":{"ha":833,"x_min":125,"x_max":708,"o":"m 417 -14 q 263 22 328 -14 q 161 122 197 57 q 125 274 125 188 l 125 490 q 161 642 125 578 q 263 742 197 707 q 417 778 328 778 q 571 742 506 778 q 672 642 636 707 q 708 490 708 578 l 708 356 l 233 356 l 233 274 q 281 130 233 181 q 417 79 329 79 q 537 108 490 79 q 596 193 583 138 l 706 193 q 613 42 690 97 q 417 -14 535 -14 m 600 429 l 600 490 q 553 634 600 583 q 417 685 506 685 q 281 634 329 685 q 233 490 233 583 l 233 442 l 611 442 l 600 429 z "},"é":{"ha":833,"x_min":125,"x_max":708,"o":"m 417 -14 q 263 22 328 -14 q 161 122 197 57 q 125 274 125 188 l 125 490 q 161 642 125 578 q 263 742 197 707 q 417 778 328 778 q 571 742 506 778 q 672 642 636 707 q 708 490 708 578 l 708 356 l 233 356 l 233 274 q 281 130 233 181 q 417 79 329 79 q 537 108 490 79 q 596 193 583 138 l 706 193 q 613 42 690 97 q 417 -14 535 -14 m 600 429 l 600 490 q 553 634 600 583 q 417 685 506 685 q 281 634 329 685 q 233 490 233 583 l 233 442 l 611 442 l 600 429 m 349 896 l 496 1090 l 617 1090 l 461 896 l 349 896 z "},"ĕ":{"ha":833,"x_min":125,"x_max":708,"o":"m 417 -14 q 263 22 328 -14 q 161 122 197 57 q 125 274 125 188 l 125 490 q 161 642 125 578 q 263 742 197 707 q 417 778 328 778 q 571 742 506 778 q 672 642 636 707 q 708 490 708 578 l 708 356 l 233 356 l 233 274 q 281 130 233 181 q 417 79 329 79 q 537 108 490 79 q 596 193 583 138 l 706 193 q 613 42 690 97 q 417 -14 535 -14 m 600 429 l 600 490 q 553 634 600 583 q 417 685 506 685 q 281 634 329 685 q 233 490 233 583 l 233 442 l 611 442 l 600 429 m 417 890 q 259 945 318 890 q 200 1090 200 1000 l 289 1090 q 323 999 289 1033 q 415 964 357 964 q 510 999 475 964 q 544 1090 544 1033 l 633 1090 q 574 945 633 1000 q 417 890 515 890 z "},"ě":{"ha":833,"x_min":125,"x_max":708,"o":"m 417 -14 q 263 22 328 -14 q 161 122 197 57 q 125 274 125 188 l 125 490 q 161 642 125 578 q 263 742 197 707 q 417 778 328 778 q 571 742 506 778 q 672 642 636 707 q 708 490 708 578 l 708 356 l 233 356 l 233 274 q 281 130 233 181 q 417 79 329 79 q 537 108 490 79 q 596 193 583 138 l 706 193 q 613 42 690 97 q 417 -14 535 -14 m 600 429 l 600 490 q 553 634 600 583 q 417 685 506 685 q 281 634 329 685 q 233 490 233 583 l 233 442 l 611 442 l 600 429 m 364 896 l 176 1090 l 296 1090 l 418 971 l 536 1090 l 657 1090 l 471 896 l 364 896 z "},"ê":{"ha":833,"x_min":125,"x_max":708,"o":"m 417 -14 q 263 22 328 -14 q 161 122 197 57 q 125 274 125 188 l 125 490 q 161 642 125 578 q 263 742 197 707 q 417 778 328 778 q 571 742 506 778 q 672 642 636 707 q 708 490 708 578 l 708 356 l 233 356 l 233 274 q 281 130 233 181 q 417 79 329 79 q 537 108 490 79 q 596 193 583 138 l 706 193 q 613 42 690 97 q 417 -14 535 -14 m 600 429 l 600 490 q 553 634 600 583 q 417 685 506 685 q 281 634 329 685 q 233 490 233 583 l 233 442 l 611 442 l 600 429 m 176 896 l 363 1090 l 469 1090 l 657 896 l 538 896 l 417 1015 l 299 896 l 176 896 z "},"ế":{"ha":833,"x_min":125,"x_max":851,"o":"m 417 -14 q 263 22 328 -14 q 161 122 197 57 q 125 274 125 188 l 125 490 q 161 642 125 578 q 263 742 197 707 q 417 778 328 778 q 571 742 506 778 q 672 642 636 707 q 708 490 708 578 l 708 356 l 233 356 l 233 274 q 281 130 233 181 q 417 79 329 79 q 537 108 490 79 q 596 193 583 138 l 706 193 q 613 42 690 97 q 417 -14 535 -14 m 600 429 l 600 490 q 553 634 600 583 q 417 685 506 685 q 281 634 329 685 q 233 490 233 583 l 233 442 l 611 442 l 600 429 m 568 1056 l 728 1250 l 851 1250 l 683 1056 l 568 1056 m 178 896 l 363 1090 l 471 1090 l 657 896 l 536 896 l 417 1015 l 297 896 l 178 896 z "},"ệ":{"ha":833,"x_min":125,"x_max":708,"o":"m 181 896 l 367 1090 l 474 1090 l 661 896 l 542 896 l 421 1015 l 303 896 l 181 896 m 417 -14 q 263 22 328 -14 q 161 122 197 57 q 125 274 125 188 l 125 490 q 161 642 125 578 q 263 742 197 707 q 417 778 328 778 q 571 742 506 778 q 672 642 636 707 q 708 490 708 578 l 708 356 l 233 356 l 233 274 q 281 130 233 181 q 417 79 329 79 q 537 108 490 79 q 596 193 583 138 l 706 193 q 613 42 690 97 q 417 -14 535 -14 m 600 429 l 600 490 q 553 634 600 583 q 417 685 506 685 q 281 634 329 685 q 233 490 233 583 l 233 442 l 611 442 l 600 429 m 417 -293 q 348 -270 374 -293 q 322 -208 322 -247 q 348 -145 322 -168 q 417 -122 374 -122 q 485 -145 460 -122 q 511 -208 511 -168 q 485 -270 511 -247 q 417 -293 460 -293 z "},"ề":{"ha":833,"x_min":125,"x_max":742,"o":"m 417 -14 q 263 22 328 -14 q 161 122 197 57 q 125 274 125 188 l 125 490 q 161 642 125 578 q 263 742 197 707 q 417 778 328 778 q 571 742 506 778 q 672 642 636 707 q 708 490 708 578 l 708 356 l 233 356 l 233 274 q 281 130 233 181 q 417 79 329 79 q 537 108 490 79 q 596 193 583 138 l 706 193 q 613 42 690 97 q 417 -14 535 -14 m 600 429 l 600 490 q 553 634 600 583 q 417 685 506 685 q 281 634 329 685 q 233 490 233 583 l 233 442 l 611 442 l 600 429 m 626 1056 l 447 1250 l 571 1250 l 742 1056 l 626 1056 m 178 896 l 363 1090 l 471 1090 l 657 896 l 536 896 l 417 1015 l 297 896 l 178 896 z "},"ể":{"ha":833,"x_min":125,"x_max":757,"o":"m 417 -14 q 263 22 328 -14 q 161 122 197 57 q 125 274 125 188 l 125 490 q 161 642 125 578 q 263 742 197 707 q 417 778 328 778 q 571 742 506 778 q 672 642 636 707 q 708 490 708 578 l 708 356 l 233 356 l 233 274 q 281 130 233 181 q 417 79 329 79 q 537 108 490 79 q 596 193 583 138 l 706 193 q 613 42 690 97 q 417 -14 535 -14 m 600 429 l 600 490 q 553 634 600 583 q 417 685 506 685 q 281 634 329 685 q 233 490 233 583 l 233 442 l 611 442 l 600 429 m 588 1056 l 651 1142 q 668 1181 668 1165 q 656 1207 668 1197 q 622 1217 643 1217 l 543 1217 l 543 1290 l 626 1290 q 722 1264 686 1290 q 757 1193 757 1238 q 750 1160 757 1176 q 729 1124 743 1143 l 681 1056 l 588 1056 m 178 896 l 363 1090 l 471 1090 l 657 896 l 536 896 l 417 1015 l 297 896 l 178 896 z "},"ễ":{"ha":833,"x_min":125,"x_max":708,"o":"m 417 -14 q 263 22 328 -14 q 161 122 197 57 q 125 274 125 188 l 125 490 q 161 642 125 578 q 263 742 197 707 q 417 778 328 778 q 571 742 506 778 q 672 642 636 707 q 708 490 708 578 l 708 356 l 233 356 l 233 274 q 281 130 233 181 q 417 79 329 79 q 537 108 490 79 q 596 193 583 138 l 706 193 q 613 42 690 97 q 417 -14 535 -14 m 600 429 l 600 490 q 553 634 600 583 q 417 685 506 685 q 281 634 329 685 q 233 490 233 583 l 233 442 l 611 442 l 600 429 m 510 1129 q 442 1142 468 1129 q 400 1174 417 1156 q 367 1206 383 1192 q 326 1219 351 1219 q 292 1208 304 1219 q 281 1174 281 1196 l 281 1139 l 200 1139 l 200 1168 q 234 1256 200 1224 q 325 1288 268 1288 q 394 1274 368 1288 q 436 1243 419 1261 q 469 1211 453 1225 q 508 1197 485 1197 q 553 1243 553 1197 l 553 1278 l 633 1278 l 633 1249 q 600 1161 633 1193 q 510 1129 567 1129 m 178 896 l 363 1090 l 471 1090 l 657 896 l 536 896 l 417 1015 l 297 896 l 178 896 z "},"ë":{"ha":833,"x_min":125,"x_max":708,"o":"m 417 -14 q 263 22 328 -14 q 161 122 197 57 q 125 274 125 188 l 125 490 q 161 642 125 578 q 263 742 197 707 q 417 778 328 778 q 571 742 506 778 q 672 642 636 707 q 708 490 708 578 l 708 356 l 233 356 l 233 274 q 281 130 233 181 q 417 79 329 79 q 537 108 490 79 q 596 193 583 138 l 706 193 q 613 42 690 97 q 417 -14 535 -14 m 600 429 l 600 490 q 553 634 600 583 q 417 685 506 685 q 281 634 329 685 q 233 490 233 583 l 233 442 l 611 442 l 600 429 m 569 904 q 508 926 532 904 q 485 988 485 949 q 508 1051 485 1028 q 569 1075 532 1075 q 631 1051 608 1075 q 654 988 654 1028 q 631 927 654 950 q 569 904 608 904 m 264 904 q 203 926 226 904 q 179 988 179 949 q 203 1051 179 1028 q 264 1075 226 1075 q 325 1051 301 1075 q 349 988 349 1028 q 325 927 349 950 q 264 904 301 904 z "},"ė":{"ha":833,"x_min":125,"x_max":708,"o":"m 417 -14 q 263 22 328 -14 q 161 122 197 57 q 125 274 125 188 l 125 490 q 161 642 125 578 q 263 742 197 707 q 417 778 328 778 q 571 742 506 778 q 672 642 636 707 q 708 490 708 578 l 708 356 l 233 356 l 233 274 q 281 130 233 181 q 417 79 329 79 q 537 108 490 79 q 596 193 583 138 l 706 193 q 613 42 690 97 q 417 -14 535 -14 m 600 429 l 600 490 q 553 634 600 583 q 417 685 506 685 q 281 634 329 685 q 233 490 233 583 l 233 442 l 611 442 l 600 429 m 417 904 q 348 926 374 904 q 322 988 322 949 q 348 1051 322 1028 q 417 1075 374 1075 q 485 1051 460 1075 q 511 988 511 1028 q 485 927 511 950 q 417 904 460 904 z "},"ẹ":{"ha":833,"x_min":125,"x_max":708,"o":"m 417 -14 q 263 22 328 -14 q 161 122 197 57 q 125 274 125 188 l 125 490 q 161 642 125 578 q 263 742 197 707 q 417 778 328 778 q 571 742 506 778 q 672 642 636 707 q 708 490 708 578 l 708 356 l 233 356 l 233 274 q 281 130 233 181 q 417 79 329 79 q 537 108 490 79 q 596 193 583 138 l 706 193 q 613 42 690 97 q 417 -14 535 -14 m 600 429 l 600 490 q 553 634 600 583 q 417 685 506 685 q 281 634 329 685 q 233 490 233 583 l 233 442 l 611 442 l 600 429 m 417 -293 q 348 -270 374 -293 q 322 -208 322 -247 q 348 -145 322 -168 q 417 -122 374 -122 q 485 -145 460 -122 q 511 -208 511 -168 q 485 -270 511 -247 q 417 -293 460 -293 z "},"è":{"ha":833,"x_min":125,"x_max":708,"o":"m 417 -14 q 263 22 328 -14 q 161 122 197 57 q 125 274 125 188 l 125 490 q 161 642 125 578 q 263 742 197 707 q 417 778 328 778 q 571 742 506 778 q 672 642 636 707 q 708 490 708 578 l 708 356 l 233 356 l 233 274 q 281 130 233 181 q 417 79 329 79 q 537 108 490 79 q 596 193 583 138 l 706 193 q 613 42 690 97 q 417 -14 535 -14 m 600 429 l 600 490 q 553 634 600 583 q 417 685 506 685 q 281 634 329 685 q 233 490 233 583 l 233 442 l 611 442 l 600 429 m 376 896 l 218 1090 l 343 1090 l 494 896 l 376 896 z "},"ẻ":{"ha":833,"x_min":125,"x_max":708,"o":"m 417 -14 q 263 22 328 -14 q 161 122 197 57 q 125 274 125 188 l 125 490 q 161 642 125 578 q 263 742 197 707 q 417 778 328 778 q 571 742 506 778 q 672 642 636 707 q 708 490 708 578 l 708 356 l 233 356 l 233 274 q 281 130 233 181 q 417 79 329 79 q 537 108 490 79 q 596 193 583 138 l 706 193 q 613 42 690 97 q 417 -14 535 -14 m 600 429 l 600 490 q 553 634 600 583 q 417 685 506 685 q 281 634 329 685 q 233 490 233 583 l 233 442 l 611 442 l 600 429 m 364 896 l 436 988 q 457 1035 457 1017 q 410 1065 457 1065 l 296 1065 l 296 1144 l 436 1144 q 519 1119 488 1144 q 551 1047 551 1093 q 526 972 551 1004 l 469 896 l 364 896 z "},"ē":{"ha":833,"x_min":125,"x_max":708,"o":"m 417 -14 q 263 22 328 -14 q 161 122 197 57 q 125 274 125 188 l 125 490 q 161 642 125 578 q 263 742 197 707 q 417 778 328 778 q 571 742 506 778 q 672 642 636 707 q 708 490 708 578 l 708 356 l 233 356 l 233 274 q 281 130 233 181 q 417 79 329 79 q 537 108 490 79 q 596 193 583 138 l 706 193 q 613 42 690 97 q 417 -14 535 -14 m 600 429 l 600 490 q 553 634 600 583 q 417 685 506 685 q 281 634 329 685 q 233 490 233 583 l 233 442 l 611 442 l 600 429 m 201 936 l 201 1028 l 632 1028 l 632 936 l 201 936 z "},"ę":{"ha":833,"x_min":129,"x_max":704,"o":"m 519 -279 q 406 -244 449 -279 q 363 -154 363 -210 q 383 -86 363 -122 q 446 -12 403 -50 q 431 -13 439 -12 q 417 -14 424 -14 q 263 22 328 -14 q 164 122 199 57 q 129 274 129 188 l 129 490 q 164 642 129 578 q 263 742 199 707 q 417 778 328 778 q 570 742 506 778 q 669 642 635 707 q 704 490 704 578 l 704 356 l 236 356 l 236 274 q 283 130 236 181 q 417 79 329 79 q 535 108 490 79 q 592 193 581 138 l 703 193 q 663 93 694 136 q 581 24 631 50 l 554 1 q 487 -71 508 -37 q 465 -133 465 -104 q 486 -183 465 -164 q 540 -203 507 -203 l 625 -203 l 625 -279 l 519 -279 m 597 392 l 597 490 q 551 634 597 583 q 417 685 506 685 q 283 634 329 685 q 236 490 236 583 l 236 442 l 646 442 l 597 392 z "},"ẽ":{"ha":833,"x_min":125,"x_max":708,"o":"m 417 -14 q 263 22 328 -14 q 161 122 197 57 q 125 274 125 188 l 125 490 q 161 642 125 578 q 263 742 197 707 q 417 778 328 778 q 571 742 506 778 q 672 642 636 707 q 708 490 708 578 l 708 356 l 233 356 l 233 274 q 281 130 233 181 q 417 79 329 79 q 537 108 490 79 q 596 193 583 138 l 706 193 q 613 42 690 97 q 417 -14 535 -14 m 600 429 l 600 490 q 553 634 600 583 q 417 685 506 685 q 281 634 329 685 q 233 490 233 583 l 233 442 l 611 442 l 600 429 m 515 903 q 449 919 475 903 q 403 956 422 935 q 367 992 385 976 q 325 1008 349 1008 q 289 994 303 1008 q 275 953 275 981 l 275 910 l 194 910 l 194 953 q 228 1049 194 1015 q 319 1083 263 1083 q 387 1067 360 1083 q 433 1031 414 1051 q 469 994 451 1010 q 511 978 486 978 q 546 992 533 978 q 558 1033 558 1006 l 558 1076 l 639 1076 l 639 1033 q 606 937 639 971 q 515 903 572 903 z "},"ə":{"ha":833,"x_min":131,"x_max":703,"o":"m 417 -14 q 264 22 328 -14 q 165 122 200 57 q 131 274 131 188 l 131 408 l 594 408 l 594 490 q 550 634 594 583 q 417 685 506 685 q 300 656 343 685 q 243 571 257 626 l 133 571 q 223 722 147 667 q 417 778 299 778 q 569 742 506 778 q 668 642 633 707 q 703 490 703 578 l 703 274 q 668 122 703 188 q 569 22 633 57 q 417 -14 506 -14 m 417 79 q 550 130 506 79 q 594 274 594 181 l 594 322 l 228 322 l 239 335 l 239 274 q 284 130 239 181 q 417 79 329 79 z "},"f":{"ha":833,"x_min":88,"x_max":739,"o":"m 313 0 l 313 588 l 88 588 l 88 688 l 313 688 l 313 825 q 367 963 313 913 q 518 1014 422 1014 l 739 1014 l 739 914 l 518 914 q 448 891 472 914 q 424 825 424 868 l 424 688 l 739 688 l 739 588 l 424 588 l 424 0 l 313 0 z "},"g":{"ha":833,"x_min":129,"x_max":697,"o":"m 228 -250 l 228 -150 l 460 -150 q 556 -119 525 -150 q 588 -26 588 -89 l 588 63 l 590 207 l 565 207 l 592 239 q 535 101 592 153 q 382 50 478 50 q 197 127 265 50 q 129 333 129 204 l 129 496 q 197 701 129 625 q 382 778 265 778 q 535 727 478 778 q 592 590 592 676 l 567 622 l 589 622 l 589 764 l 697 764 l 697 -26 q 635 -191 697 -132 q 460 -250 574 -250 l 228 -250 m 414 146 q 542 197 496 146 q 589 338 589 247 l 589 490 q 542 631 589 581 q 414 682 496 682 q 285 632 331 682 q 239 490 239 582 l 239 338 q 285 196 239 246 q 414 146 331 146 z "},"ǵ":{"ha":833,"x_min":129,"x_max":697,"o":"m 228 -250 l 228 -150 l 460 -150 q 556 -119 525 -150 q 588 -26 588 -89 l 588 63 l 590 207 l 565 207 l 592 239 q 535 101 592 153 q 382 50 478 50 q 197 127 265 50 q 129 333 129 204 l 129 496 q 197 701 129 625 q 382 778 265 778 q 535 727 478 778 q 592 590 592 676 l 567 622 l 589 622 l 589 764 l 697 764 l 697 -26 q 635 -191 697 -132 q 460 -250 574 -250 l 228 -250 m 414 146 q 542 197 496 146 q 589 338 589 247 l 589 490 q 542 631 589 581 q 414 682 496 682 q 285 632 331 682 q 239 490 239 582 l 239 338 q 285 196 239 246 q 414 146 331 146 m 343 896 l 490 1090 l 611 1090 l 456 896 l 343 896 z "},"ğ":{"ha":833,"x_min":129,"x_max":697,"o":"m 228 -250 l 228 -150 l 460 -150 q 556 -119 525 -150 q 588 -26 588 -89 l 588 63 l 590 207 l 565 207 l 592 239 q 535 101 592 153 q 382 50 478 50 q 197 127 265 50 q 129 333 129 204 l 129 496 q 197 701 129 625 q 382 778 265 778 q 535 727 478 778 q 592 590 592 676 l 567 622 l 589 622 l 589 764 l 697 764 l 697 -26 q 635 -191 697 -132 q 460 -250 574 -250 l 228 -250 m 414 146 q 542 197 496 146 q 589 338 589 247 l 589 490 q 542 631 589 581 q 414 682 496 682 q 285 632 331 682 q 239 490 239 582 l 239 338 q 285 196 239 246 q 414 146 331 146 m 413 890 q 255 945 314 890 q 196 1090 196 1000 l 285 1090 q 319 999 285 1033 q 411 964 353 964 q 506 999 471 964 q 540 1090 540 1033 l 629 1090 q 570 945 629 1000 q 413 890 511 890 z "},"ǧ":{"ha":833,"x_min":129,"x_max":697,"o":"m 228 -250 l 228 -150 l 460 -150 q 556 -119 525 -150 q 588 -26 588 -89 l 588 63 l 590 207 l 565 207 l 592 239 q 535 101 592 153 q 382 50 478 50 q 197 127 265 50 q 129 333 129 204 l 129 496 q 197 701 129 625 q 382 778 265 778 q 535 727 478 778 q 592 590 592 676 l 567 622 l 589 622 l 589 764 l 697 764 l 697 -26 q 635 -191 697 -132 q 460 -250 574 -250 l 228 -250 m 414 146 q 542 197 496 146 q 589 338 589 247 l 589 490 q 542 631 589 581 q 414 682 496 682 q 285 632 331 682 q 239 490 239 582 l 239 338 q 285 196 239 246 q 414 146 331 146 m 360 896 l 172 1090 l 292 1090 l 414 971 l 532 1090 l 653 1090 l 467 896 l 360 896 z "},"ĝ":{"ha":833,"x_min":129,"x_max":697,"o":"m 228 -250 l 228 -150 l 460 -150 q 556 -119 525 -150 q 588 -26 588 -89 l 588 63 l 590 207 l 565 207 l 592 239 q 535 101 592 153 q 382 50 478 50 q 197 127 265 50 q 129 333 129 204 l 129 496 q 197 701 129 625 q 382 778 265 778 q 535 727 478 778 q 592 590 592 676 l 567 622 l 589 622 l 589 764 l 697 764 l 697 -26 q 635 -191 697 -132 q 460 -250 574 -250 l 228 -250 m 414 146 q 542 197 496 146 q 589 338 589 247 l 589 490 q 542 631 589 581 q 414 682 496 682 q 285 632 331 682 q 239 490 239 582 l 239 338 q 285 196 239 246 q 414 146 331 146 m 172 896 l 358 1090 l 465 1090 l 653 896 l 533 896 l 413 1015 l 294 896 l 172 896 z "},"ģ":{"ha":833,"x_min":129,"x_max":697,"o":"m 228 -250 l 228 -150 l 460 -150 q 556 -119 525 -150 q 588 -26 588 -89 l 588 63 l 590 207 l 565 207 l 592 239 q 535 101 592 153 q 382 50 478 50 q 197 127 265 50 q 129 333 129 204 l 129 496 q 197 701 129 625 q 382 778 265 778 q 535 727 478 778 q 592 590 592 676 l 567 622 l 589 622 l 589 764 l 697 764 l 697 -26 q 635 -191 697 -132 q 460 -250 574 -250 l 228 -250 m 414 146 q 542 197 496 146 q 589 338 589 247 l 589 490 q 542 631 589 581 q 414 682 496 682 q 285 632 331 682 q 239 490 239 582 l 239 338 q 285 196 239 246 q 414 146 331 146 m 567 1222 l 450 896 l 299 896 l 474 1222 l 567 1222 z "},"ġ":{"ha":833,"x_min":129,"x_max":697,"o":"m 228 -250 l 228 -150 l 460 -150 q 556 -119 525 -150 q 588 -26 588 -89 l 588 63 l 590 207 l 565 207 l 592 239 q 535 101 592 153 q 382 50 478 50 q 197 127 265 50 q 129 333 129 204 l 129 496 q 197 701 129 625 q 382 778 265 778 q 535 727 478 778 q 592 590 592 676 l 567 622 l 589 622 l 589 764 l 697 764 l 697 -26 q 635 -191 697 -132 q 460 -250 574 -250 l 228 -250 m 414 146 q 542 197 496 146 q 589 338 589 247 l 589 490 q 542 631 589 581 q 414 682 496 682 q 285 632 331 682 q 239 490 239 582 l 239 338 q 285 196 239 246 q 414 146 331 146 m 413 904 q 344 926 369 904 q 318 988 318 949 q 344 1051 318 1028 q 413 1075 369 1075 q 481 1051 456 1075 q 507 988 507 1028 q 481 927 507 950 q 413 904 456 904 z "},"h":{"ha":833,"x_min":135,"x_max":701,"o":"m 135 0 l 135 1014 l 244 1014 l 244 775 l 244 628 l 272 628 l 242 583 q 298 726 242 675 q 451 778 354 778 q 633 706 565 778 q 701 513 701 635 l 701 0 l 592 0 l 592 500 q 546 636 592 588 q 421 685 500 685 q 292 633 339 685 q 244 490 244 582 l 244 0 l 135 0 z "},"ħ":{"ha":833,"x_min":3,"x_max":701,"o":"m 3 797 l 3 890 l 135 890 l 135 1014 l 244 1014 l 244 890 l 482 890 l 482 797 l 244 797 l 244 681 l 244 544 l 247 544 q 314 655 261 615 q 451 694 367 694 q 633 624 565 694 q 701 429 701 553 l 701 0 l 592 0 l 592 417 q 546 553 592 504 q 421 601 500 601 q 292 550 339 601 q 244 407 244 499 l 244 0 l 135 0 l 135 797 l 3 797 z "},"ĥ":{"ha":833,"x_min":-32,"x_max":701,"o":"m 135 0 l 135 1014 l 244 1014 l 244 775 l 244 628 l 272 628 l 242 583 q 298 726 242 675 q 451 778 354 778 q 633 706 565 778 q 701 513 701 635 l 701 0 l 592 0 l 592 500 q 546 636 592 588 q 421 685 500 685 q 292 633 339 685 q 244 490 244 582 l 244 0 l 135 0 m -32 1118 l 154 1313 l 261 1313 l 449 1118 l 329 1118 l 208 1238 l 90 1118 l -32 1118 z "},"i":{"ha":833,"x_min":122,"x_max":764,"o":"m 122 0 l 122 100 l 394 100 l 394 664 l 157 664 l 157 764 l 506 764 l 506 100 l 764 100 l 764 0 l 122 0 m 438 904 q 369 926 394 904 q 343 988 343 949 q 369 1051 343 1028 q 438 1075 394 1075 q 506 1051 481 1075 q 532 988 532 1028 q 506 927 532 950 q 438 904 481 904 z "},"ı":{"ha":833,"x_min":122,"x_max":764,"o":"m 122 0 l 122 100 l 394 100 l 394 664 l 157 664 l 157 764 l 506 764 l 506 100 l 764 100 l 764 0 l 122 0 z "},"í":{"ha":833,"x_min":122,"x_max":764,"o":"m 122 0 l 122 100 l 394 100 l 394 664 l 157 664 l 157 764 l 506 764 l 506 100 l 764 100 l 764 0 l 122 0 m 369 896 l 517 1090 l 638 1090 l 482 896 l 369 896 z "},"ĭ":{"ha":833,"x_min":122,"x_max":764,"o":"m 122 0 l 122 100 l 394 100 l 394 664 l 157 664 l 157 764 l 506 764 l 506 100 l 764 100 l 764 0 l 122 0 m 438 890 q 280 945 339 890 q 221 1090 221 1000 l 310 1090 q 344 999 310 1033 q 436 964 378 964 q 531 999 496 964 q 565 1090 565 1033 l 654 1090 q 595 945 654 1000 q 438 890 536 890 z "},"î":{"ha":833,"x_min":122,"x_max":764,"o":"m 122 0 l 122 100 l 394 100 l 394 664 l 157 664 l 157 764 l 506 764 l 506 100 l 764 100 l 764 0 l 122 0 m 197 896 l 383 1090 l 490 1090 l 678 896 l 558 896 l 438 1015 l 319 896 l 197 896 z "},"ï":{"ha":833,"x_min":122,"x_max":764,"o":"m 122 0 l 122 100 l 394 100 l 394 664 l 157 664 l 157 764 l 506 764 l 506 100 l 764 100 l 764 0 l 122 0 m 590 904 q 529 926 553 904 q 506 988 506 949 q 529 1051 506 1028 q 590 1075 553 1075 q 652 1051 629 1075 q 675 988 675 1028 q 652 927 675 950 q 590 904 629 904 m 285 904 q 224 926 247 904 q 200 988 200 949 q 224 1051 200 1028 q 285 1075 247 1075 q 346 1051 322 1075 q 369 988 369 1028 q 346 927 369 950 q 285 904 322 904 z "},"ị":{"ha":833,"x_min":122,"x_max":764,"o":"m 122 0 l 122 100 l 394 100 l 394 664 l 157 664 l 157 764 l 506 764 l 506 100 l 764 100 l 764 0 l 122 0 m 438 904 q 369 926 394 904 q 343 988 343 949 q 369 1051 343 1028 q 438 1075 394 1075 q 506 1051 481 1075 q 532 988 532 1028 q 506 927 532 950 q 438 904 481 904 m 438 -293 q 369 -270 394 -293 q 343 -208 343 -247 q 369 -145 343 -168 q 438 -122 394 -122 q 506 -145 481 -122 q 532 -208 532 -168 q 506 -270 532 -247 q 438 -293 481 -293 z "},"ì":{"ha":833,"x_min":122,"x_max":764,"o":"m 122 0 l 122 100 l 394 100 l 394 664 l 157 664 l 157 764 l 506 764 l 506 100 l 764 100 l 764 0 l 122 0 m 397 896 l 239 1090 l 364 1090 l 515 896 l 397 896 z "},"ỉ":{"ha":833,"x_min":122,"x_max":764,"o":"m 122 0 l 122 100 l 394 100 l 394 664 l 157 664 l 157 764 l 506 764 l 506 100 l 764 100 l 764 0 l 122 0 m 389 896 l 461 988 q 482 1035 482 1017 q 435 1065 482 1065 l 321 1065 l 321 1144 l 461 1144 q 544 1119 513 1144 q 576 1047 576 1093 q 551 972 576 1004 l 494 896 l 389 896 z "},"ī":{"ha":833,"x_min":122,"x_max":764,"o":"m 122 0 l 122 100 l 394 100 l 394 664 l 157 664 l 157 764 l 506 764 l 506 100 l 764 100 l 764 0 l 122 0 m 222 936 l 222 1028 l 653 1028 l 653 936 l 222 936 z "},"į":{"ha":833,"x_min":122,"x_max":764,"o":"m 446 -279 q 331 -244 374 -279 q 288 -154 288 -210 q 315 -72 288 -114 q 406 14 343 -31 l 496 14 l 481 1 q 413 -71 435 -37 q 392 -133 392 -104 q 413 -183 392 -164 q 467 -203 433 -203 l 551 -203 l 551 -279 l 446 -279 m 122 0 l 122 100 l 394 100 l 394 664 l 157 664 l 157 764 l 506 764 l 506 100 l 764 100 l 764 0 l 122 0 m 438 904 q 369 926 394 904 q 343 988 343 949 q 369 1051 343 1028 q 438 1075 394 1075 q 506 1051 481 1075 q 532 988 532 1028 q 506 927 532 950 q 438 904 481 904 z "},"ĩ":{"ha":833,"x_min":122,"x_max":764,"o":"m 122 0 l 122 100 l 394 100 l 394 664 l 157 664 l 157 764 l 506 764 l 506 100 l 764 100 l 764 0 l 122 0 m 536 903 q 469 919 496 903 q 424 956 443 935 q 388 992 406 976 q 346 1008 369 1008 q 310 994 324 1008 q 296 953 296 981 l 296 910 l 215 910 l 215 953 q 249 1049 215 1015 q 340 1083 283 1083 q 408 1067 381 1083 q 453 1031 435 1051 q 490 994 472 1010 q 532 978 507 978 q 567 992 554 978 q 579 1033 579 1006 l 579 1076 l 660 1076 l 660 1033 q 626 937 660 971 q 536 903 593 903 z "},"j":{"ha":833,"x_min":122,"x_max":632,"o":"m 122 -250 l 122 -149 l 303 -149 q 442 -101 393 -149 q 490 35 490 -53 l 490 664 l 163 664 l 163 764 l 600 764 l 600 35 q 520 -173 600 -96 q 303 -250 440 -250 l 122 -250 m 538 904 q 469 926 494 904 q 443 988 443 949 q 469 1051 443 1028 q 538 1075 494 1075 q 606 1051 581 1075 q 632 988 632 1028 q 606 927 632 950 q 538 904 581 904 z "},"ȷ":{"ha":833,"x_min":122,"x_max":600,"o":"m 122 -250 l 122 -149 l 303 -149 q 442 -101 393 -149 q 490 35 490 -53 l 490 664 l 163 664 l 163 764 l 600 764 l 600 35 q 520 -173 600 -96 q 303 -250 440 -250 l 122 -250 z "},"ĵ":{"ha":833,"x_min":122,"x_max":694,"o":"m 122 -250 l 122 -149 l 303 -149 q 442 -101 393 -149 q 490 35 490 -53 l 490 664 l 163 664 l 163 764 l 600 764 l 600 35 q 520 -173 600 -96 q 303 -250 440 -250 l 122 -250 m 214 896 l 400 1090 l 507 1090 l 694 896 l 575 896 l 454 1015 l 336 896 l 214 896 z "},"k":{"ha":833,"x_min":139,"x_max":764,"o":"m 139 0 l 139 1014 l 249 1014 l 249 443 l 406 443 l 632 764 l 760 764 l 503 400 l 764 0 l 635 0 l 407 347 l 249 347 l 249 0 l 139 0 z "},"ķ":{"ha":833,"x_min":139,"x_max":764,"o":"m 139 0 l 139 1014 l 249 1014 l 249 443 l 406 443 l 632 764 l 760 764 l 503 400 l 764 0 l 635 0 l 407 347 l 249 347 l 249 0 l 139 0 m 274 -333 l 403 -132 l 535 -132 l 389 -333 l 274 -333 z "},"ĸ":{"ha":833,"x_min":140,"x_max":754,"o":"m 140 0 l 140 764 l 251 764 l 251 443 l 396 443 l 622 764 l 749 764 l 492 400 l 754 0 l 625 0 l 396 347 l 251 347 l 251 0 l 140 0 z "},"l":{"ha":833,"x_min":49,"x_max":760,"o":"m 517 0 q 403 25 451 0 q 329 97 356 50 q 303 208 303 144 l 303 914 l 49 914 l 49 1014 l 413 1014 l 413 208 q 440 128 413 157 q 517 100 468 100 l 760 100 l 760 0 l 517 0 z "},"ĺ":{"ha":833,"x_min":49,"x_max":760,"o":"m 517 0 q 403 25 451 0 q 329 97 356 50 q 303 208 303 144 l 303 914 l 49 914 l 49 1014 l 413 1014 l 413 208 q 440 128 413 157 q 517 100 468 100 l 760 100 l 760 0 l 517 0 m 275 1125 l 422 1319 l 543 1319 l 388 1125 l 275 1125 z "},"ľ":{"ha":833,"x_min":49,"x_max":760,"o":"m 517 0 q 403 25 451 0 q 329 97 356 50 q 303 208 303 144 l 303 914 l 49 914 l 49 1014 l 413 1014 l 413 208 q 440 128 413 157 q 517 100 468 100 l 760 100 l 760 0 l 517 0 m 625 764 l 639 1014 l 744 1014 l 717 764 l 625 764 z "},"ļ":{"ha":833,"x_min":49,"x_max":760,"o":"m 517 0 q 403 25 451 0 q 329 97 356 50 q 303 208 303 144 l 303 914 l 49 914 l 49 1014 l 413 1014 l 413 208 q 440 128 413 157 q 517 100 468 100 l 760 100 l 760 0 l 517 0 m 301 -333 l 431 -132 l 563 -132 l 417 -333 l 301 -333 z "},"ŀ":{"ha":833,"x_min":21,"x_max":874,"o":"m 489 0 q 376 25 424 0 q 301 97 328 50 q 275 208 275 144 l 275 914 l 21 914 l 21 1014 l 385 1014 l 385 208 q 413 128 385 157 q 489 100 440 100 l 732 100 l 732 0 l 489 0 z "},"ł":{"ha":833,"x_min":49,"x_max":760,"o":"m 139 324 l 139 425 l 653 774 l 653 672 l 139 324 m 517 0 q 403 25 451 0 q 329 97 356 50 q 303 208 303 144 l 303 914 l 49 914 l 49 1014 l 413 1014 l 413 208 q 440 128 413 157 q 517 100 468 100 l 760 100 l 760 0 l 517 0 z "},"m":{"ha":833,"x_min":96,"x_max":738,"o":"m 96 0 l 96 764 l 193 764 l 193 669 l 214 669 l 199 639 q 233 740 199 703 q 326 778 267 778 q 424 733 389 778 q 461 608 460 689 l 432 669 l 478 669 l 458 639 q 493 740 458 703 q 588 778 528 778 q 698 725 658 778 q 738 585 738 672 l 738 0 l 635 0 l 635 585 q 613 663 635 635 q 550 692 590 692 q 486 663 510 692 q 463 585 463 635 l 463 0 l 371 0 l 371 585 q 348 664 371 636 q 285 692 325 692 q 222 664 244 692 q 199 585 200 636 l 199 0 l 96 0 z "},"n":{"ha":833,"x_min":135,"x_max":701,"o":"m 135 0 l 135 764 l 244 764 l 244 622 l 272 622 l 242 582 q 298 726 242 674 q 451 778 354 778 q 633 706 565 778 q 701 513 701 635 l 701 0 l 592 0 l 592 500 q 546 635 592 588 q 421 682 500 682 q 292 632 339 682 q 244 490 244 582 l 244 0 l 135 0 z "},"ń":{"ha":833,"x_min":135,"x_max":701,"o":"m 135 0 l 135 764 l 244 764 l 244 622 l 272 622 l 242 582 q 298 726 242 674 q 451 778 354 778 q 633 706 565 778 q 701 513 701 635 l 701 0 l 592 0 l 592 500 q 546 635 592 588 q 421 682 500 682 q 292 632 339 682 q 244 490 244 582 l 244 0 l 135 0 m 356 896 l 503 1090 l 624 1090 l 468 896 l 356 896 z "},"ŉ":{"ha":833,"x_min":10,"x_max":701,"o":"m 135 0 l 135 764 l 244 764 l 244 622 l 272 622 l 242 582 q 298 726 242 674 q 451 778 354 778 q 633 706 565 778 q 701 513 701 635 l 701 0 l 592 0 l 592 500 q 546 635 592 588 q 421 682 500 682 q 292 632 339 682 q 244 490 244 582 l 244 0 l 135 0 m 10 896 l 139 1097 l 271 1097 l 125 896 l 10 896 z "},"ň":{"ha":833,"x_min":135,"x_max":701,"o":"m 135 0 l 135 764 l 244 764 l 244 622 l 272 622 l 242 582 q 298 726 242 674 q 451 778 354 778 q 633 706 565 778 q 701 513 701 635 l 701 0 l 592 0 l 592 500 q 546 635 592 588 q 421 682 500 682 q 292 632 339 682 q 244 490 244 582 l 244 0 l 135 0 m 371 896 l 183 1090 l 303 1090 l 425 971 l 543 1090 l 664 1090 l 478 896 l 371 896 z "},"ņ":{"ha":833,"x_min":135,"x_max":701,"o":"m 135 0 l 135 764 l 244 764 l 244 622 l 272 622 l 242 582 q 298 726 242 674 q 451 778 354 778 q 633 706 565 778 q 701 513 701 635 l 701 0 l 592 0 l 592 500 q 546 635 592 588 q 421 682 500 682 q 292 632 339 682 q 244 490 244 582 l 244 0 l 135 0 m 274 -333 l 403 -132 l 535 -132 l 389 -333 l 274 -333 z "},"ŋ":{"ha":833,"x_min":136,"x_max":700,"o":"m 335 -250 l 335 -150 l 414 -150 q 542 -104 496 -150 q 589 21 589 -58 l 589 500 q 544 636 589 588 q 421 685 500 685 q 293 633 339 685 q 247 490 247 582 l 247 0 l 136 0 l 136 764 l 247 764 l 247 622 l 275 622 l 244 582 q 299 726 244 674 q 451 778 354 778 q 633 706 565 778 q 700 513 700 635 l 700 21 q 665 -122 700 -61 q 565 -217 629 -183 q 414 -250 501 -250 l 335 -250 z "},"ñ":{"ha":833,"x_min":135,"x_max":701,"o":"m 135 0 l 135 764 l 244 764 l 244 622 l 272 622 l 242 582 q 298 726 242 674 q 451 778 354 778 q 633 706 565 778 q 701 513 701 635 l 701 0 l 592 0 l 592 500 q 546 635 592 588 q 421 682 500 682 q 292 632 339 682 q 244 490 244 582 l 244 0 l 135 0 m 522 903 q 456 919 482 903 q 410 956 429 935 q 374 992 392 976 q 332 1008 356 1008 q 296 994 310 1008 q 282 953 282 981 l 282 910 l 201 910 l 201 953 q 235 1049 201 1015 q 326 1083 269 1083 q 394 1067 367 1083 q 440 1031 421 1051 q 476 994 458 1010 q 518 978 493 978 q 553 992 540 978 q 565 1033 565 1006 l 565 1076 l 646 1076 l 646 1033 q 613 937 646 971 q 522 903 579 903 z "},"o":{"ha":833,"x_min":125,"x_max":708,"o":"m 417 -12 q 263 22 328 -12 q 161 122 197 57 q 125 276 125 188 l 125 488 q 161 642 125 578 q 263 742 197 707 q 417 776 328 776 q 571 742 506 776 q 672 642 636 707 q 708 489 708 578 l 708 276 q 672 122 708 188 q 571 22 636 57 q 417 -12 506 -12 m 417 86 q 550 135 503 86 q 597 276 597 183 l 597 488 q 549 629 597 581 q 417 678 501 678 q 284 629 332 678 q 236 488 236 581 l 236 276 q 284 135 236 183 q 417 86 332 86 z "},"ó":{"ha":833,"x_min":125,"x_max":708,"o":"m 417 -12 q 263 22 328 -12 q 161 122 197 57 q 125 276 125 188 l 125 488 q 161 642 125 578 q 263 742 197 707 q 417 776 328 776 q 571 742 506 776 q 672 642 636 707 q 708 489 708 578 l 708 276 q 672 122 708 188 q 571 22 636 57 q 417 -12 506 -12 m 417 86 q 550 135 503 86 q 597 276 597 183 l 597 488 q 549 629 597 581 q 417 678 501 678 q 284 629 332 678 q 236 488 236 581 l 236 276 q 284 135 236 183 q 417 86 332 86 m 349 896 l 496 1090 l 617 1090 l 461 896 l 349 896 z "},"ŏ":{"ha":833,"x_min":125,"x_max":708,"o":"m 417 -12 q 263 22 328 -12 q 161 122 197 57 q 125 276 125 188 l 125 488 q 161 642 125 578 q 263 742 197 707 q 417 776 328 776 q 571 742 506 776 q 672 642 636 707 q 708 489 708 578 l 708 276 q 672 122 708 188 q 571 22 636 57 q 417 -12 506 -12 m 417 86 q 550 135 503 86 q 597 276 597 183 l 597 488 q 549 629 597 581 q 417 678 501 678 q 284 629 332 678 q 236 488 236 581 l 236 276 q 284 135 236 183 q 417 86 332 86 m 417 890 q 259 945 318 890 q 200 1090 200 1000 l 289 1090 q 323 999 289 1033 q 415 964 357 964 q 510 999 475 964 q 544 1090 544 1033 l 633 1090 q 574 945 633 1000 q 417 890 515 890 z "},"ô":{"ha":833,"x_min":125,"x_max":708,"o":"m 417 -12 q 263 22 328 -12 q 161 122 197 57 q 125 276 125 188 l 125 488 q 161 642 125 578 q 263 742 197 707 q 417 776 328 776 q 571 742 506 776 q 672 642 636 707 q 708 489 708 578 l 708 276 q 672 122 708 188 q 571 22 636 57 q 417 -12 506 -12 m 417 86 q 550 135 503 86 q 597 276 597 183 l 597 488 q 549 629 597 581 q 417 678 501 678 q 284 629 332 678 q 236 488 236 581 l 236 276 q 284 135 236 183 q 417 86 332 86 m 176 896 l 363 1090 l 469 1090 l 657 896 l 538 896 l 417 1015 l 299 896 l 176 896 z "},"ố":{"ha":833,"x_min":125,"x_max":851,"o":"m 417 -12 q 263 22 328 -12 q 161 122 197 57 q 125 276 125 188 l 125 488 q 161 642 125 578 q 263 742 197 707 q 417 776 328 776 q 571 742 506 776 q 672 642 636 707 q 708 489 708 578 l 708 276 q 672 122 708 188 q 571 22 636 57 q 417 -12 506 -12 m 417 86 q 550 135 503 86 q 597 276 597 183 l 597 488 q 549 629 597 581 q 417 678 501 678 q 284 629 332 678 q 236 488 236 581 l 236 276 q 284 135 236 183 q 417 86 332 86 m 568 1056 l 728 1250 l 851 1250 l 683 1056 l 568 1056 m 178 896 l 363 1090 l 471 1090 l 657 896 l 536 896 l 417 1015 l 297 896 l 178 896 z "},"ộ":{"ha":833,"x_min":125,"x_max":708,"o":"m 176 896 l 363 1090 l 469 1090 l 657 896 l 538 896 l 417 1015 l 299 896 l 176 896 m 417 -12 q 263 22 328 -12 q 161 122 197 57 q 125 276 125 188 l 125 488 q 161 642 125 578 q 263 742 197 707 q 417 776 328 776 q 571 742 506 776 q 672 642 636 707 q 708 489 708 578 l 708 276 q 672 122 708 188 q 571 22 636 57 q 417 -12 506 -12 m 417 86 q 550 135 503 86 q 597 276 597 183 l 597 488 q 549 629 597 581 q 417 678 501 678 q 284 629 332 678 q 236 488 236 581 l 236 276 q 284 135 236 183 q 417 86 332 86 m 431 -293 q 362 -270 388 -293 q 336 -208 336 -247 q 362 -145 336 -168 q 431 -122 388 -122 q 499 -145 474 -122 q 525 -208 525 -168 q 499 -270 525 -247 q 431 -293 474 -293 z "},"ồ":{"ha":833,"x_min":125,"x_max":742,"o":"m 417 -12 q 263 22 328 -12 q 161 122 197 57 q 125 276 125 188 l 125 488 q 161 642 125 578 q 263 742 197 707 q 417 776 328 776 q 571 742 506 776 q 672 642 636 707 q 708 489 708 578 l 708 276 q 672 122 708 188 q 571 22 636 57 q 417 -12 506 -12 m 417 86 q 550 135 503 86 q 597 276 597 183 l 597 488 q 549 629 597 581 q 417 678 501 678 q 284 629 332 678 q 236 488 236 581 l 236 276 q 284 135 236 183 q 417 86 332 86 m 626 1056 l 447 1250 l 571 1250 l 742 1056 l 626 1056 m 178 896 l 363 1090 l 471 1090 l 657 896 l 536 896 l 417 1015 l 297 896 l 178 896 z "},"ổ":{"ha":833,"x_min":125,"x_max":757,"o":"m 417 -12 q 263 22 328 -12 q 161 122 197 57 q 125 276 125 188 l 125 488 q 161 642 125 578 q 263 742 197 707 q 417 776 328 776 q 571 742 506 776 q 672 642 636 707 q 708 489 708 578 l 708 276 q 672 122 708 188 q 571 22 636 57 q 417 -12 506 -12 m 417 86 q 550 135 503 86 q 597 276 597 183 l 597 488 q 549 629 597 581 q 417 678 501 678 q 284 629 332 678 q 236 488 236 581 l 236 276 q 284 135 236 183 q 417 86 332 86 m 588 1056 l 651 1142 q 668 1181 668 1165 q 656 1207 668 1197 q 622 1217 643 1217 l 543 1217 l 543 1290 l 626 1290 q 722 1264 686 1290 q 757 1193 757 1238 q 750 1160 757 1176 q 729 1124 743 1143 l 681 1056 l 588 1056 m 178 896 l 363 1090 l 471 1090 l 657 896 l 536 896 l 417 1015 l 297 896 l 178 896 z "},"ỗ":{"ha":833,"x_min":125,"x_max":708,"o":"m 417 -12 q 263 22 328 -12 q 161 122 197 57 q 125 276 125 188 l 125 488 q 161 642 125 578 q 263 742 197 707 q 417 776 328 776 q 571 742 506 776 q 672 642 636 707 q 708 489 708 578 l 708 276 q 672 122 708 188 q 571 22 636 57 q 417 -12 506 -12 m 417 86 q 550 135 503 86 q 597 276 597 183 l 597 488 q 549 629 597 581 q 417 678 501 678 q 284 629 332 678 q 236 488 236 581 l 236 276 q 284 135 236 183 q 417 86 332 86 m 510 1129 q 442 1142 468 1129 q 400 1174 417 1156 q 367 1206 383 1192 q 326 1219 351 1219 q 292 1208 304 1219 q 281 1174 281 1196 l 281 1139 l 200 1139 l 200 1168 q 234 1256 200 1224 q 325 1288 268 1288 q 394 1274 368 1288 q 436 1243 419 1261 q 469 1211 453 1225 q 508 1197 485 1197 q 553 1243 553 1197 l 553 1278 l 633 1278 l 633 1249 q 600 1161 633 1193 q 510 1129 567 1129 m 178 896 l 363 1090 l 471 1090 l 657 896 l 536 896 l 417 1015 l 297 896 l 178 896 z "},"ö":{"ha":833,"x_min":125,"x_max":708,"o":"m 417 -12 q 263 22 328 -12 q 161 122 197 57 q 125 276 125 188 l 125 488 q 161 642 125 578 q 263 742 197 707 q 417 776 328 776 q 571 742 506 776 q 672 642 636 707 q 708 489 708 578 l 708 276 q 672 122 708 188 q 571 22 636 57 q 417 -12 506 -12 m 417 86 q 550 135 503 86 q 597 276 597 183 l 597 488 q 549 629 597 581 q 417 678 501 678 q 284 629 332 678 q 236 488 236 581 l 236 276 q 284 135 236 183 q 417 86 332 86 m 569 904 q 508 926 532 904 q 485 988 485 949 q 508 1051 485 1028 q 569 1075 532 1075 q 631 1051 608 1075 q 654 988 654 1028 q 631 927 654 950 q 569 904 608 904 m 264 904 q 203 926 226 904 q 179 988 179 949 q 203 1051 179 1028 q 264 1075 226 1075 q 325 1051 301 1075 q 349 988 349 1028 q 325 927 349 950 q 264 904 301 904 z "},"ọ":{"ha":833,"x_min":125,"x_max":708,"o":"m 417 -12 q 263 22 328 -12 q 161 122 197 57 q 125 276 125 188 l 125 488 q 161 642 125 578 q 263 742 197 707 q 417 776 328 776 q 571 742 506 776 q 672 642 636 707 q 708 489 708 578 l 708 276 q 672 122 708 188 q 571 22 636 57 q 417 -12 506 -12 m 417 86 q 550 135 503 86 q 597 276 597 183 l 597 488 q 549 629 597 581 q 417 678 501 678 q 284 629 332 678 q 236 488 236 581 l 236 276 q 284 135 236 183 q 417 86 332 86 m 431 -293 q 362 -270 388 -293 q 336 -208 336 -247 q 362 -145 336 -168 q 431 -122 388 -122 q 499 -145 474 -122 q 525 -208 525 -168 q 499 -270 525 -247 q 431 -293 474 -293 z "},"ò":{"ha":833,"x_min":125,"x_max":708,"o":"m 417 -12 q 263 22 328 -12 q 161 122 197 57 q 125 276 125 188 l 125 488 q 161 642 125 578 q 263 742 197 707 q 417 776 328 776 q 571 742 506 776 q 672 642 636 707 q 708 489 708 578 l 708 276 q 672 122 708 188 q 571 22 636 57 q 417 -12 506 -12 m 417 86 q 550 135 503 86 q 597 276 597 183 l 597 488 q 549 629 597 581 q 417 678 501 678 q 284 629 332 678 q 236 488 236 581 l 236 276 q 284 135 236 183 q 417 86 332 86 m 376 896 l 218 1090 l 343 1090 l 494 896 l 376 896 z "},"ỏ":{"ha":833,"x_min":125,"x_max":708,"o":"m 417 -12 q 263 22 328 -12 q 161 122 197 57 q 125 276 125 188 l 125 488 q 161 642 125 578 q 263 742 197 707 q 417 776 328 776 q 571 742 506 776 q 672 642 636 707 q 708 489 708 578 l 708 276 q 672 122 708 188 q 571 22 636 57 q 417 -12 506 -12 m 417 86 q 550 135 503 86 q 597 276 597 183 l 597 488 q 549 629 597 581 q 417 678 501 678 q 284 629 332 678 q 236 488 236 581 l 236 276 q 284 135 236 183 q 417 86 332 86 m 364 896 l 436 988 q 457 1035 457 1017 q 410 1065 457 1065 l 296 1065 l 296 1144 l 436 1144 q 519 1119 488 1144 q 551 1047 551 1093 q 526 972 551 1004 l 469 896 l 364 896 z "},"ơ":{"ha":833,"x_min":125,"x_max":739,"o":"m 547 657 l 547 736 l 596 736 q 633 751 619 736 q 647 790 647 765 l 647 889 l 739 889 l 739 785 q 701 692 739 728 q 600 657 663 657 l 547 657 m 417 -12 q 263 22 328 -12 q 161 122 197 57 q 125 276 125 188 l 125 488 q 161 642 125 578 q 263 742 197 707 q 417 776 328 776 q 571 742 506 776 q 672 642 636 707 q 708 489 708 578 l 708 276 q 672 122 708 188 q 571 22 636 57 q 417 -12 506 -12 m 417 86 q 550 135 503 86 q 597 276 597 183 l 597 488 q 549 629 597 581 q 417 678 501 678 q 284 629 332 678 q 236 488 236 581 l 236 276 q 284 135 236 183 q 417 86 332 86 z "},"ớ":{"ha":833,"x_min":125,"x_max":739,"o":"m 547 657 l 547 736 l 596 736 q 633 751 619 736 q 647 790 647 765 l 647 889 l 739 889 l 739 785 q 701 692 739 728 q 600 657 663 657 l 547 657 m 417 -12 q 263 22 328 -12 q 161 122 197 57 q 125 276 125 188 l 125 488 q 161 642 125 578 q 263 742 197 707 q 417 776 328 776 q 571 742 506 776 q 672 642 636 707 q 708 489 708 578 l 708 276 q 672 122 708 188 q 571 22 636 57 q 417 -12 506 -12 m 417 86 q 550 135 503 86 q 597 276 597 183 l 597 488 q 549 629 597 581 q 417 678 501 678 q 284 629 332 678 q 236 488 236 581 l 236 276 q 284 135 236 183 q 417 86 332 86 m 335 896 l 482 1090 l 603 1090 l 447 896 l 335 896 z "},"ợ":{"ha":833,"x_min":125,"x_max":739,"o":"m 547 657 l 547 736 l 596 736 q 633 751 619 736 q 647 790 647 765 l 647 889 l 739 889 l 739 785 q 701 692 739 728 q 600 657 663 657 l 547 657 m 417 -12 q 263 22 328 -12 q 161 122 197 57 q 125 276 125 188 l 125 488 q 161 642 125 578 q 263 742 197 707 q 417 776 328 776 q 571 742 506 776 q 672 642 636 707 q 708 489 708 578 l 708 276 q 672 122 708 188 q 571 22 636 57 q 417 -12 506 -12 m 417 86 q 550 135 503 86 q 597 276 597 183 l 597 488 q 549 629 597 581 q 417 678 501 678 q 284 629 332 678 q 236 488 236 581 l 236 276 q 284 135 236 183 q 417 86 332 86 m 431 -293 q 362 -270 388 -293 q 336 -208 336 -247 q 362 -145 336 -168 q 431 -122 388 -122 q 499 -145 474 -122 q 525 -208 525 -168 q 499 -270 525 -247 q 431 -293 474 -293 z "},"ờ":{"ha":833,"x_min":125,"x_max":739,"o":"m 547 657 l 547 736 l 596 736 q 633 751 619 736 q 647 790 647 765 l 647 889 l 739 889 l 739 785 q 701 692 739 728 q 600 657 663 657 l 547 657 m 417 -12 q 263 22 328 -12 q 161 122 197 57 q 125 276 125 188 l 125 488 q 161 642 125 578 q 263 742 197 707 q 417 776 328 776 q 571 742 506 776 q 672 642 636 707 q 708 489 708 578 l 708 276 q 672 122 708 188 q 571 22 636 57 q 417 -12 506 -12 m 417 86 q 550 135 503 86 q 597 276 597 183 l 597 488 q 549 629 597 581 q 417 678 501 678 q 284 629 332 678 q 236 488 236 581 l 236 276 q 284 135 236 183 q 417 86 332 86 m 363 896 l 204 1090 l 329 1090 l 481 896 l 363 896 z "},"ở":{"ha":833,"x_min":125,"x_max":739,"o":"m 547 657 l 547 736 l 596 736 q 633 751 619 736 q 647 790 647 765 l 647 889 l 739 889 l 739 785 q 701 692 739 728 q 600 657 663 657 l 547 657 m 417 -12 q 263 22 328 -12 q 161 122 197 57 q 125 276 125 188 l 125 488 q 161 642 125 578 q 263 742 197 707 q 417 776 328 776 q 571 742 506 776 q 672 642 636 707 q 708 489 708 578 l 708 276 q 672 122 708 188 q 571 22 636 57 q 417 -12 506 -12 m 417 86 q 550 135 503 86 q 597 276 597 183 l 597 488 q 549 629 597 581 q 417 678 501 678 q 284 629 332 678 q 236 488 236 581 l 236 276 q 284 135 236 183 q 417 86 332 86 m 364 896 l 436 988 q 457 1035 457 1017 q 410 1065 457 1065 l 296 1065 l 296 1144 l 436 1144 q 519 1119 488 1144 q 551 1047 551 1093 q 526 972 551 1004 l 469 896 l 364 896 z "},"ỡ":{"ha":833,"x_min":125,"x_max":739,"o":"m 547 657 l 547 736 l 596 736 q 633 751 619 736 q 647 790 647 765 l 647 889 l 739 889 l 739 785 q 701 692 739 728 q 600 657 663 657 l 547 657 m 417 -12 q 263 22 328 -12 q 161 122 197 57 q 125 276 125 188 l 125 488 q 161 642 125 578 q 263 742 197 707 q 417 776 328 776 q 571 742 506 776 q 672 642 636 707 q 708 489 708 578 l 708 276 q 672 122 708 188 q 571 22 636 57 q 417 -12 506 -12 m 417 86 q 550 135 503 86 q 597 276 597 183 l 597 488 q 549 629 597 581 q 417 678 501 678 q 284 629 332 678 q 236 488 236 581 l 236 276 q 284 135 236 183 q 417 86 332 86 m 501 903 q 435 919 461 903 q 390 956 408 935 q 353 992 371 976 q 311 1008 335 1008 q 275 994 289 1008 q 261 953 261 981 l 261 910 l 181 910 l 181 953 q 215 1049 181 1015 q 306 1083 249 1083 q 373 1067 346 1083 q 419 1031 400 1051 q 455 994 438 1010 q 497 978 472 978 q 532 992 519 978 q 544 1033 544 1006 l 544 1076 l 625 1076 l 625 1033 q 592 937 625 971 q 501 903 558 903 z "},"ő":{"ha":833,"x_min":125,"x_max":722,"o":"m 417 -12 q 263 22 328 -12 q 161 122 197 57 q 125 276 125 188 l 125 488 q 161 642 125 578 q 263 742 197 707 q 417 776 328 776 q 571 742 506 776 q 672 642 636 707 q 708 489 708 578 l 708 276 q 672 122 708 188 q 571 22 636 57 q 417 -12 506 -12 m 417 86 q 550 135 503 86 q 597 276 597 183 l 597 488 q 549 629 597 581 q 417 678 501 678 q 284 629 332 678 q 236 488 236 581 l 236 276 q 284 135 236 183 q 417 86 332 86 m 456 896 l 607 1090 l 722 1090 l 564 896 l 456 896 m 215 896 l 367 1090 l 482 1090 l 322 896 l 215 896 z "},"ō":{"ha":833,"x_min":125,"x_max":708,"o":"m 417 -12 q 263 22 328 -12 q 161 122 197 57 q 125 276 125 188 l 125 488 q 161 642 125 578 q 263 742 197 707 q 417 776 328 776 q 571 742 506 776 q 672 642 636 707 q 708 489 708 578 l 708 276 q 672 122 708 188 q 571 22 636 57 q 417 -12 506 -12 m 417 86 q 550 135 503 86 q 597 276 597 183 l 597 488 q 549 629 597 581 q 417 678 501 678 q 284 629 332 678 q 236 488 236 581 l 236 276 q 284 135 236 183 q 417 86 332 86 m 201 936 l 201 1028 l 632 1028 l 632 936 l 201 936 z "},"ǫ":{"ha":833,"x_min":129,"x_max":704,"o":"m 517 -279 q 403 -244 446 -279 q 360 -154 360 -210 q 378 -90 360 -124 q 443 -12 396 -56 q 435 -13 439 -12 q 426 -14 431 -14 q 417 -14 422 -14 q 263 21 328 -14 q 164 120 199 56 q 129 274 129 185 l 129 490 q 164 644 129 579 q 263 743 199 708 q 417 778 328 778 q 570 743 506 778 q 669 644 635 708 q 704 490 704 579 l 704 274 q 674 128 704 190 q 586 31 643 67 l 551 1 q 485 -71 507 -37 q 464 -133 464 -104 q 484 -183 464 -164 q 539 -203 504 -203 l 624 -203 l 624 -279 l 517 -279 m 417 83 q 549 133 503 83 q 594 274 594 182 l 594 490 q 548 631 594 582 q 417 681 501 681 q 285 631 332 681 q 239 490 239 582 l 239 274 q 285 133 239 182 q 417 83 332 83 z "},"ø":{"ha":833,"x_min":57,"x_max":776,"o":"m 57 -42 l 665 819 l 776 819 l 167 -42 l 57 -42 m 417 -14 q 263 21 328 -14 q 164 120 199 56 q 129 274 129 185 l 129 490 q 164 644 129 579 q 263 743 199 708 q 417 778 328 778 q 570 743 506 778 q 669 644 635 708 q 704 490 704 579 l 704 274 q 669 120 704 185 q 570 21 635 56 q 417 -14 506 -14 m 417 83 q 551 134 503 83 q 600 274 600 185 l 600 490 q 551 631 600 581 q 417 681 503 681 q 282 631 331 681 q 233 490 233 581 l 233 274 q 282 134 233 185 q 417 83 331 83 z "},"ǿ":{"ha":833,"x_min":57,"x_max":776,"o":"m 57 -42 l 665 819 l 776 819 l 167 -42 l 57 -42 m 417 -14 q 263 21 328 -14 q 164 120 199 56 q 129 274 129 185 l 129 490 q 164 644 129 579 q 263 743 199 708 q 417 778 328 778 q 570 743 506 778 q 669 644 635 708 q 704 490 704 579 l 704 274 q 669 120 704 185 q 570 21 635 56 q 417 -14 506 -14 m 417 83 q 551 134 503 83 q 600 274 600 185 l 600 490 q 551 631 600 581 q 417 681 503 681 q 282 631 331 681 q 233 490 233 581 l 233 274 q 282 134 233 185 q 417 83 331 83 m 349 896 l 496 1090 l 617 1090 l 461 896 l 349 896 z "},"õ":{"ha":833,"x_min":125,"x_max":708,"o":"m 417 -12 q 263 22 328 -12 q 161 122 197 57 q 125 276 125 188 l 125 488 q 161 642 125 578 q 263 742 197 707 q 417 776 328 776 q 571 742 506 776 q 672 642 636 707 q 708 489 708 578 l 708 276 q 672 122 708 188 q 571 22 636 57 q 417 -12 506 -12 m 417 86 q 550 135 503 86 q 597 276 597 183 l 597 488 q 549 629 597 581 q 417 678 501 678 q 284 629 332 678 q 236 488 236 581 l 236 276 q 284 135 236 183 q 417 86 332 86 m 515 903 q 449 919 475 903 q 403 956 422 935 q 367 992 385 976 q 325 1008 349 1008 q 289 994 303 1008 q 275 953 275 981 l 275 910 l 194 910 l 194 953 q 228 1049 194 1015 q 319 1083 263 1083 q 387 1067 360 1083 q 433 1031 414 1051 q 469 994 451 1010 q 511 978 486 978 q 546 992 533 978 q 558 1033 558 1006 l 558 1076 l 639 1076 l 639 1033 q 606 937 639 971 q 515 903 572 903 z "},"œ":{"ha":833,"x_min":49,"x_max":785,"o":"m 247 -14 q 102 45 156 -14 q 49 204 49 104 l 49 558 q 103 719 49 660 q 250 778 157 778 q 341 759 306 778 q 395 715 376 740 q 415 664 414 689 l 421 664 q 442 715 424 689 q 495 759 460 740 q 585 778 531 778 q 731 719 676 778 q 785 560 785 660 l 785 351 l 471 351 l 471 204 q 499 115 471 149 q 574 81 526 81 q 644 106 615 81 q 679 174 674 132 l 783 174 q 719 37 772 88 q 586 -14 665 -14 q 495 4 531 -14 q 442 49 460 22 q 421 99 424 75 l 415 99 q 394 49 413 75 q 340 4 375 22 q 247 -14 304 -14 m 261 81 q 337 115 308 81 q 365 204 365 149 l 365 560 q 337 649 365 615 q 261 683 308 683 q 183 649 213 683 q 154 558 154 615 l 154 204 q 183 115 154 149 q 261 81 213 81 m 471 444 l 679 444 l 679 560 q 651 649 679 615 q 574 683 622 683 q 499 649 526 683 q 471 560 471 615 l 471 444 z "},"p":{"ha":833,"x_min":135,"x_max":708,"o":"m 135 -250 l 135 764 l 244 764 l 244 629 l 274 629 l 240 583 q 299 726 240 674 q 456 778 358 778 q 640 702 571 778 q 708 496 708 626 l 708 269 q 676 119 708 182 q 588 21 644 56 q 456 -14 532 -14 q 300 39 360 -14 q 240 181 240 92 l 269 135 l 243 135 l 244 -21 l 244 -250 l 135 -250 m 421 82 q 551 132 504 82 q 597 274 597 182 l 597 490 q 551 633 597 583 q 421 682 504 682 q 292 631 340 682 q 244 490 244 581 l 244 274 q 292 133 244 183 q 421 82 340 82 z "},"þ":{"ha":833,"x_min":129,"x_max":703,"o":"m 129 -240 l 129 82 l 239 82 l 239 -240 l 129 -240 m 449 -14 q 294 38 353 -14 q 236 181 236 90 l 268 135 l 239 135 l 239 0 l 129 0 l 129 1014 l 239 1014 l 239 796 l 238 629 l 264 629 l 236 583 q 295 725 236 672 q 449 778 354 778 q 633 701 564 778 q 703 494 703 625 l 703 268 q 633 63 703 139 q 449 -14 564 -14 m 415 82 q 545 132 497 82 q 593 274 593 182 l 593 490 q 545 632 593 582 q 415 682 497 682 q 286 631 333 682 q 239 490 239 581 l 239 274 q 286 133 239 183 q 415 82 333 82 z "},"q":{"ha":833,"x_min":129,"x_max":699,"o":"m 589 -250 l 589 -32 l 590 135 l 564 135 l 593 181 q 534 39 593 92 q 379 -14 475 -14 q 197 63 264 -14 q 129 269 129 139 l 129 496 q 197 702 129 626 q 379 778 265 778 q 534 726 475 778 q 593 583 593 674 l 560 629 l 589 629 l 589 764 l 699 764 l 699 -250 l 589 -250 m 414 82 q 542 133 496 82 q 589 274 589 183 l 589 490 q 542 631 589 581 q 414 682 496 682 q 285 633 331 682 q 239 490 239 583 l 239 274 q 285 132 239 182 q 414 82 331 82 z "},"r":{"ha":833,"x_min":160,"x_max":736,"o":"m 160 0 l 160 764 l 268 764 l 268 622 l 294 622 l 256 535 q 313 715 257 651 q 472 778 368 778 q 665 702 593 778 q 736 499 736 626 l 736 453 l 624 453 l 624 490 q 578 634 624 583 q 447 685 532 685 q 318 633 365 685 q 271 490 271 582 l 271 0 l 160 0 z "},"ŕ":{"ha":833,"x_min":160,"x_max":736,"o":"m 160 0 l 160 764 l 268 764 l 268 622 l 294 622 l 256 535 q 313 715 257 651 q 472 778 368 778 q 665 702 593 778 q 736 499 736 626 l 736 453 l 624 453 l 624 490 q 578 634 624 583 q 447 685 532 685 q 318 633 365 685 q 271 490 271 582 l 271 0 l 160 0 m 376 896 l 524 1090 l 644 1090 l 489 896 l 376 896 z "},"ř":{"ha":833,"x_min":160,"x_max":736,"o":"m 160 0 l 160 764 l 268 764 l 268 622 l 294 622 l 256 535 q 313 715 257 651 q 472 778 368 778 q 665 702 593 778 q 736 499 736 626 l 736 453 l 624 453 l 624 490 q 578 634 624 583 q 447 685 532 685 q 318 633 365 685 q 271 490 271 582 l 271 0 l 160 0 m 392 896 l 204 1090 l 324 1090 l 446 971 l 564 1090 l 685 1090 l 499 896 l 392 896 z "},"ŗ":{"ha":833,"x_min":44,"x_max":736,"o":"m 160 0 l 160 764 l 268 764 l 268 622 l 294 622 l 256 535 q 313 715 257 651 q 472 778 368 778 q 665 702 593 778 q 736 499 736 626 l 736 453 l 624 453 l 624 490 q 578 634 624 583 q 447 685 532 685 q 318 633 365 685 q 271 490 271 582 l 271 0 l 160 0 m 44 -333 l 174 -132 l 306 -132 l 160 -333 l 44 -333 z "},"s":{"ha":833,"x_min":126,"x_max":718,"o":"m 389 -12 q 257 13 314 -12 q 167 83 200 38 q 126 188 133 128 l 236 188 q 285 114 246 142 q 389 86 325 86 l 457 86 q 569 119 531 86 q 607 206 607 151 q 574 289 607 257 q 478 331 540 321 l 363 349 q 199 418 254 367 q 144 563 144 469 q 210 720 144 664 q 401 776 276 776 l 456 776 q 630 725 564 776 q 710 586 696 674 l 599 586 q 553 653 590 628 q 456 678 517 678 l 401 678 q 292 648 328 678 q 256 563 256 618 q 286 487 256 513 q 379 451 317 461 l 493 433 q 663 362 607 415 q 718 213 718 308 q 651 48 718 108 q 457 -12 585 -12 l 389 -12 z "},"ś":{"ha":833,"x_min":126,"x_max":718,"o":"m 389 -12 q 257 13 314 -12 q 167 83 200 38 q 126 188 133 128 l 236 188 q 285 114 246 142 q 389 86 325 86 l 457 86 q 569 119 531 86 q 607 206 607 151 q 574 289 607 257 q 478 331 540 321 l 363 349 q 199 418 254 367 q 144 563 144 469 q 210 720 144 664 q 401 776 276 776 l 456 776 q 630 725 564 776 q 710 586 696 674 l 599 586 q 553 653 590 628 q 456 678 517 678 l 401 678 q 292 648 328 678 q 256 563 256 618 q 286 487 256 513 q 379 451 317 461 l 493 433 q 663 362 607 415 q 718 213 718 308 q 651 48 718 108 q 457 -12 585 -12 l 389 -12 m 363 896 l 510 1090 l 631 1090 l 475 896 l 363 896 z "},"š":{"ha":833,"x_min":126,"x_max":718,"o":"m 389 -12 q 257 13 314 -12 q 167 83 200 38 q 126 188 133 128 l 236 188 q 285 114 246 142 q 389 86 325 86 l 457 86 q 569 119 531 86 q 607 206 607 151 q 574 289 607 257 q 478 331 540 321 l 363 349 q 199 418 254 367 q 144 563 144 469 q 210 720 144 664 q 401 776 276 776 l 456 776 q 630 725 564 776 q 710 586 696 674 l 599 586 q 553 653 590 628 q 456 678 517 678 l 401 678 q 292 648 328 678 q 256 563 256 618 q 286 487 256 513 q 379 451 317 461 l 493 433 q 663 362 607 415 q 718 213 718 308 q 651 48 718 108 q 457 -12 585 -12 l 389 -12 m 378 896 l 190 1090 l 310 1090 l 432 971 l 550 1090 l 671 1090 l 485 896 l 378 896 z "},"ş":{"ha":833,"x_min":126,"x_max":718,"o":"m 300 -279 l 300 -210 l 401 -210 q 452 -193 433 -210 q 471 -158 471 -176 q 431 -113 471 -132 q 321 -94 392 -94 l 369 36 l 443 36 l 413 -49 q 486 -65 449 -51 q 550 -104 524 -79 q 576 -165 576 -129 q 533 -246 576 -212 q 417 -279 489 -279 l 300 -279 m 389 -12 q 257 13 314 -12 q 167 83 200 38 q 126 188 133 128 l 236 188 q 285 114 246 142 q 389 86 325 86 l 457 86 q 569 119 531 86 q 607 206 607 151 q 574 289 607 257 q 478 331 540 321 l 363 349 q 199 418 254 367 q 144 563 144 469 q 210 720 144 664 q 401 776 276 776 l 456 776 q 630 725 564 776 q 710 586 696 674 l 599 586 q 553 653 590 628 q 456 678 517 678 l 401 678 q 292 648 328 678 q 256 563 256 618 q 286 487 256 513 q 379 451 317 461 l 493 433 q 663 362 607 415 q 718 213 718 308 q 651 48 718 108 q 457 -12 585 -12 l 389 -12 z "},"ŝ":{"ha":833,"x_min":126,"x_max":718,"o":"m 389 -12 q 257 13 314 -12 q 167 83 200 38 q 126 188 133 128 l 236 188 q 285 114 246 142 q 389 86 325 86 l 457 86 q 569 119 531 86 q 607 206 607 151 q 574 289 607 257 q 478 331 540 321 l 363 349 q 199 418 254 367 q 144 563 144 469 q 210 720 144 664 q 401 776 276 776 l 456 776 q 630 725 564 776 q 710 586 696 674 l 599 586 q 553 653 590 628 q 456 678 517 678 l 401 678 q 292 648 328 678 q 256 563 256 618 q 286 487 256 513 q 379 451 317 461 l 493 433 q 663 362 607 415 q 718 213 718 308 q 651 48 718 108 q 457 -12 585 -12 l 389 -12 m 190 896 l 376 1090 l 483 1090 l 671 896 l 551 896 l 431 1015 l 313 896 l 190 896 z "},"ș":{"ha":833,"x_min":126,"x_max":718,"o":"m 389 -12 q 257 13 314 -12 q 167 83 200 38 q 126 188 133 128 l 236 188 q 285 114 246 142 q 389 86 325 86 l 457 86 q 569 119 531 86 q 607 206 607 151 q 574 289 607 257 q 478 331 540 321 l 363 349 q 199 418 254 367 q 144 563 144 469 q 210 720 144 664 q 401 776 276 776 l 456 776 q 630 725 564 776 q 710 586 696 674 l 599 586 q 553 653 590 628 q 456 678 517 678 l 401 678 q 292 648 328 678 q 256 563 256 618 q 286 487 256 513 q 379 451 317 461 l 493 433 q 663 362 607 415 q 718 213 718 308 q 651 48 718 108 q 457 -12 585 -12 l 389 -12 m 263 -333 l 392 -132 l 524 -132 l 378 -333 l 263 -333 z "},"ß":{"ha":833,"x_min":135,"x_max":731,"o":"m 135 0 l 135 744 q 170 894 135 831 q 270 993 206 958 q 422 1028 335 1028 q 574 997 510 1028 q 675 908 639 967 q 711 768 711 850 q 681 642 711 697 q 598 557 651 588 q 472 528 544 526 l 472 546 q 609 516 551 547 q 699 426 667 485 q 731 289 731 368 q 694 138 731 203 q 591 36 657 72 q 433 0 525 0 l 343 0 l 343 100 l 424 100 q 565 151 514 100 q 615 289 615 203 q 565 424 615 375 q 424 472 515 472 l 364 472 l 364 568 l 422 568 q 549 619 503 568 q 596 747 596 669 q 549 880 596 832 q 422 928 503 928 q 293 878 342 928 q 244 744 244 829 l 244 0 l 135 0 z "},"ſ":{"ha":833,"x_min":235,"x_max":703,"o":"m 235 0 l 235 801 q 296 956 235 897 q 457 1014 357 1014 l 703 1014 l 703 915 l 457 915 q 376 884 407 915 q 344 801 344 853 l 344 0 l 235 0 z "},"t":{"ha":833,"x_min":82,"x_max":717,"o":"m 500 0 q 351 51 404 0 q 299 194 299 101 l 299 664 l 82 664 l 82 764 l 299 764 l 299 979 l 410 979 l 410 764 l 717 764 l 717 664 l 410 664 l 410 194 q 500 100 410 100 l 703 100 l 703 0 l 500 0 z "},"ŧ":{"ha":833,"x_min":82,"x_max":717,"o":"m 121 340 l 121 432 l 656 432 l 656 340 l 121 340 m 500 0 q 351 51 404 0 q 299 194 299 101 l 299 664 l 82 664 l 82 764 l 299 764 l 299 979 l 410 979 l 410 764 l 717 764 l 717 664 l 410 664 l 410 194 q 500 100 410 100 l 703 100 l 703 0 l 500 0 z "},"ť":{"ha":833,"x_min":82,"x_max":760,"o":"m 524 861 l 644 1078 l 760 1078 l 621 861 l 524 861 m 500 0 q 351 51 404 0 q 299 194 299 101 l 299 664 l 82 664 l 82 764 l 299 764 l 299 979 l 410 979 l 410 764 l 717 764 l 717 664 l 410 664 l 410 194 q 500 100 410 100 l 703 100 l 703 0 l 500 0 z "},"ţ":{"ha":833,"x_min":82,"x_max":717,"o":"m 369 -279 l 369 -210 l 471 -210 q 522 -193 503 -210 q 540 -158 540 -176 q 501 -113 540 -132 q 390 -94 461 -94 l 439 36 l 513 36 l 482 -49 q 556 -65 518 -51 q 619 -104 593 -79 q 646 -165 646 -129 q 602 -246 646 -212 q 486 -279 558 -279 l 369 -279 m 500 0 q 351 51 404 0 q 299 194 299 101 l 299 664 l 82 664 l 82 764 l 299 764 l 299 979 l 410 979 l 410 764 l 717 764 l 717 664 l 410 664 l 410 194 q 500 100 410 100 l 703 100 l 703 0 l 500 0 z "},"ț":{"ha":833,"x_min":82,"x_max":717,"o":"m 500 0 q 351 51 404 0 q 299 194 299 101 l 299 664 l 82 664 l 82 764 l 299 764 l 299 979 l 410 979 l 410 764 l 717 764 l 717 664 l 410 664 l 410 194 q 500 100 410 100 l 703 100 l 703 0 l 500 0 m 274 -333 l 403 -132 l 535 -132 l 389 -333 l 274 -333 z "},"u":{"ha":833,"x_min":132,"x_max":701,"o":"m 415 -14 q 209 64 286 -14 q 132 275 132 142 l 132 764 l 242 764 l 242 275 q 288 134 242 185 q 415 83 335 83 q 544 134 497 83 q 592 275 592 185 l 592 764 l 701 764 l 701 275 q 624 64 701 142 q 415 -14 546 -14 z "},"ú":{"ha":833,"x_min":132,"x_max":701,"o":"m 415 -14 q 209 64 286 -14 q 132 275 132 142 l 132 764 l 242 764 l 242 275 q 288 134 242 185 q 415 83 335 83 q 544 134 497 83 q 592 275 592 185 l 592 764 l 701 764 l 701 275 q 624 64 701 142 q 415 -14 546 -14 m 349 896 l 496 1090 l 617 1090 l 461 896 l 349 896 z "},"ŭ":{"ha":833,"x_min":132,"x_max":701,"o":"m 415 -14 q 209 64 286 -14 q 132 275 132 142 l 132 764 l 242 764 l 242 275 q 288 134 242 185 q 415 83 335 83 q 544 134 497 83 q 592 275 592 185 l 592 764 l 701 764 l 701 275 q 624 64 701 142 q 415 -14 546 -14 m 417 890 q 259 945 318 890 q 200 1090 200 1000 l 289 1090 q 323 999 289 1033 q 415 964 357 964 q 510 999 475 964 q 544 1090 544 1033 l 633 1090 q 574 945 633 1000 q 417 890 515 890 z "},"û":{"ha":833,"x_min":132,"x_max":701,"o":"m 415 -14 q 209 64 286 -14 q 132 275 132 142 l 132 764 l 242 764 l 242 275 q 288 134 242 185 q 415 83 335 83 q 544 134 497 83 q 592 275 592 185 l 592 764 l 701 764 l 701 275 q 624 64 701 142 q 415 -14 546 -14 m 176 896 l 363 1090 l 469 1090 l 657 896 l 538 896 l 417 1015 l 299 896 l 176 896 z "},"ü":{"ha":833,"x_min":132,"x_max":701,"o":"m 415 -14 q 209 64 286 -14 q 132 275 132 142 l 132 764 l 242 764 l 242 275 q 288 134 242 185 q 415 83 335 83 q 544 134 497 83 q 592 275 592 185 l 592 764 l 701 764 l 701 275 q 624 64 701 142 q 415 -14 546 -14 m 569 904 q 508 926 532 904 q 485 988 485 949 q 508 1051 485 1028 q 569 1075 532 1075 q 631 1051 608 1075 q 654 988 654 1028 q 631 927 654 950 q 569 904 608 904 m 264 904 q 203 926 226 904 q 179 988 179 949 q 203 1051 179 1028 q 264 1075 226 1075 q 325 1051 301 1075 q 349 988 349 1028 q 325 927 349 950 q 264 904 301 904 z "},"ụ":{"ha":833,"x_min":132,"x_max":701,"o":"m 415 -14 q 209 64 286 -14 q 132 275 132 142 l 132 764 l 242 764 l 242 275 q 288 134 242 185 q 415 83 335 83 q 544 134 497 83 q 592 275 592 185 l 592 764 l 701 764 l 701 275 q 624 64 701 142 q 415 -14 546 -14 m 417 -293 q 348 -270 374 -293 q 322 -208 322 -247 q 348 -145 322 -168 q 417 -122 374 -122 q 485 -145 460 -122 q 511 -208 511 -168 q 485 -270 511 -247 q 417 -293 460 -293 z "},"ù":{"ha":833,"x_min":132,"x_max":701,"o":"m 415 -14 q 209 64 286 -14 q 132 275 132 142 l 132 764 l 242 764 l 242 275 q 288 134 242 185 q 415 83 335 83 q 544 134 497 83 q 592 275 592 185 l 592 764 l 701 764 l 701 275 q 624 64 701 142 q 415 -14 546 -14 m 376 896 l 218 1090 l 343 1090 l 494 896 l 376 896 z "},"ủ":{"ha":833,"x_min":132,"x_max":701,"o":"m 415 -14 q 209 64 286 -14 q 132 275 132 142 l 132 764 l 242 764 l 242 275 q 288 134 242 185 q 415 83 335 83 q 544 134 497 83 q 592 275 592 185 l 592 764 l 701 764 l 701 275 q 624 64 701 142 q 415 -14 546 -14 m 364 896 l 436 988 q 457 1035 457 1017 q 410 1065 457 1065 l 296 1065 l 296 1144 l 436 1144 q 519 1119 488 1144 q 551 1047 551 1093 q 526 972 551 1004 l 469 896 l 364 896 z "},"ư":{"ha":833,"x_min":132,"x_max":825,"o":"m 132 275 l 132 764 l 242 764 l 242 275 q 288 134 242 185 q 415 83 335 83 q 544 134 497 83 q 592 275 592 185 l 592 764 l 681 764 q 719 778 706 764 q 733 818 733 793 l 733 917 l 825 917 l 825 813 q 794 720 825 756 q 701 685 764 685 l 701 275 q 624 64 701 142 q 415 -14 546 -14 q 209 64 286 -14 q 132 275 132 142 z "},"ứ":{"ha":833,"x_min":132,"x_max":825,"o":"m 132 275 l 132 764 l 242 764 l 242 275 q 288 134 242 185 q 415 83 335 83 q 544 134 497 83 q 592 275 592 185 l 592 764 l 681 764 q 719 778 706 764 q 733 818 733 793 l 733 917 l 825 917 l 825 813 q 794 720 825 756 q 701 685 764 685 l 701 275 q 624 64 701 142 q 415 -14 546 -14 q 209 64 286 -14 q 132 275 132 142 m 349 896 l 496 1090 l 617 1090 l 461 896 l 349 896 z "},"ự":{"ha":833,"x_min":132,"x_max":825,"o":"m 132 275 l 132 764 l 242 764 l 242 275 q 288 134 242 185 q 415 83 335 83 q 544 134 497 83 q 592 275 592 185 l 592 764 l 681 764 q 719 778 706 764 q 733 818 733 793 l 733 917 l 825 917 l 825 813 q 794 720 825 756 q 701 685 764 685 l 701 275 q 624 64 701 142 q 415 -14 546 -14 q 209 64 286 -14 q 132 275 132 142 m 415 -293 q 347 -270 372 -293 q 321 -208 321 -247 q 347 -145 321 -168 q 415 -122 372 -122 q 484 -145 458 -122 q 510 -208 510 -168 q 484 -270 510 -247 q 415 -293 458 -293 z "},"ừ":{"ha":833,"x_min":132,"x_max":825,"o":"m 132 275 l 132 764 l 242 764 l 242 275 q 288 134 242 185 q 415 83 335 83 q 544 134 497 83 q 592 275 592 185 l 592 764 l 681 764 q 719 778 706 764 q 733 818 733 793 l 733 917 l 825 917 l 825 813 q 794 720 825 756 q 701 685 764 685 l 701 275 q 624 64 701 142 q 415 -14 546 -14 q 209 64 286 -14 q 132 275 132 142 m 376 896 l 218 1090 l 343 1090 l 494 896 l 376 896 z "},"ử":{"ha":833,"x_min":132,"x_max":825,"o":"m 132 275 l 132 764 l 242 764 l 242 275 q 288 134 242 185 q 415 83 335 83 q 544 134 497 83 q 592 275 592 185 l 592 764 l 681 764 q 719 778 706 764 q 733 818 733 793 l 733 917 l 825 917 l 825 813 q 794 720 825 756 q 701 685 764 685 l 701 275 q 624 64 701 142 q 415 -14 546 -14 q 209 64 286 -14 q 132 275 132 142 m 364 896 l 436 988 q 457 1035 457 1017 q 410 1065 457 1065 l 296 1065 l 296 1144 l 436 1144 q 519 1119 488 1144 q 551 1047 551 1093 q 526 972 551 1004 l 469 896 l 364 896 z "},"ữ":{"ha":833,"x_min":132,"x_max":825,"o":"m 132 275 l 132 764 l 242 764 l 242 275 q 288 134 242 185 q 415 83 335 83 q 544 134 497 83 q 592 275 592 185 l 592 764 l 681 764 q 719 778 706 764 q 733 818 733 793 l 733 917 l 825 917 l 825 813 q 794 720 825 756 q 701 685 764 685 l 701 275 q 624 64 701 142 q 415 -14 546 -14 q 209 64 286 -14 q 132 275 132 142 m 515 903 q 449 919 475 903 q 403 956 422 935 q 367 992 385 976 q 325 1008 349 1008 q 289 994 303 1008 q 275 953 275 981 l 275 910 l 194 910 l 194 953 q 228 1049 194 1015 q 319 1083 263 1083 q 387 1067 360 1083 q 433 1031 414 1051 q 469 994 451 1010 q 511 978 486 978 q 546 992 533 978 q 558 1033 558 1006 l 558 1076 l 639 1076 l 639 1033 q 606 937 639 971 q 515 903 572 903 z "},"ű":{"ha":833,"x_min":132,"x_max":722,"o":"m 415 -14 q 209 64 286 -14 q 132 275 132 142 l 132 764 l 242 764 l 242 275 q 288 134 242 185 q 415 83 335 83 q 544 134 497 83 q 592 275 592 185 l 592 764 l 701 764 l 701 275 q 624 64 701 142 q 415 -14 546 -14 m 456 896 l 607 1090 l 722 1090 l 564 896 l 456 896 m 215 896 l 367 1090 l 482 1090 l 322 896 l 215 896 z "},"ū":{"ha":833,"x_min":132,"x_max":701,"o":"m 415 -14 q 209 64 286 -14 q 132 275 132 142 l 132 764 l 242 764 l 242 275 q 288 134 242 185 q 415 83 335 83 q 544 134 497 83 q 592 275 592 185 l 592 764 l 701 764 l 701 275 q 624 64 701 142 q 415 -14 546 -14 m 201 936 l 201 1028 l 632 1028 l 632 936 l 201 936 z "},"ų":{"ha":833,"x_min":132,"x_max":701,"o":"m 517 -279 q 403 -244 446 -279 q 360 -154 360 -210 q 378 -90 360 -124 q 443 -12 396 -56 q 435 -13 439 -12 q 426 -14 431 -14 q 417 -14 422 -14 q 208 63 285 -14 q 132 274 132 140 l 132 764 l 242 764 l 242 274 q 287 133 242 182 q 417 83 332 83 q 547 133 503 83 q 592 274 592 182 l 592 764 l 701 764 l 701 274 q 672 128 701 190 q 586 31 643 67 l 551 1 q 485 -71 507 -37 q 464 -133 464 -104 q 484 -183 464 -164 q 539 -203 504 -203 l 624 -203 l 624 -279 l 517 -279 z "},"ů":{"ha":833,"x_min":132,"x_max":701,"o":"m 415 -14 q 209 64 286 -14 q 132 275 132 142 l 132 764 l 242 764 l 242 275 q 288 134 242 185 q 415 83 335 83 q 544 134 497 83 q 592 275 592 185 l 592 764 l 701 764 l 701 275 q 624 64 701 142 q 415 -14 546 -14 m 417 847 q 300 890 344 847 q 256 1000 256 932 q 300 1111 256 1069 q 417 1153 344 1153 q 533 1110 489 1153 q 578 1000 578 1068 q 533 890 578 932 q 417 847 489 847 m 417 914 q 478 938 456 914 q 501 1000 501 961 q 478 1064 501 1040 q 417 1088 456 1088 q 355 1064 378 1088 q 332 1000 332 1040 q 355 938 332 961 q 417 914 378 914 z "},"ũ":{"ha":833,"x_min":132,"x_max":701,"o":"m 415 -14 q 209 64 286 -14 q 132 275 132 142 l 132 764 l 242 764 l 242 275 q 288 134 242 185 q 415 83 335 83 q 544 134 497 83 q 592 275 592 185 l 592 764 l 701 764 l 701 275 q 624 64 701 142 q 415 -14 546 -14 m 515 903 q 449 919 475 903 q 403 956 422 935 q 367 992 385 976 q 325 1008 349 1008 q 289 994 303 1008 q 275 953 275 981 l 275 910 l 194 910 l 194 953 q 228 1049 194 1015 q 319 1083 263 1083 q 387 1067 360 1083 q 433 1031 414 1051 q 469 994 451 1010 q 511 978 486 978 q 546 992 533 978 q 558 1033 558 1006 l 558 1076 l 639 1076 l 639 1033 q 606 937 639 971 q 515 903 572 903 z "},"v":{"ha":833,"x_min":85,"x_max":749,"o":"m 343 0 l 85 764 l 197 764 l 374 235 q 400 149 388 192 q 419 83 413 107 q 439 149 426 107 q 465 235 451 192 l 638 764 l 749 764 l 490 0 l 343 0 z "},"w":{"ha":833,"x_min":54,"x_max":779,"o":"m 178 0 l 54 764 l 153 764 l 235 215 q 244 147 239 185 q 251 85 249 110 q 261 147 254 110 q 272 215 268 185 l 364 764 l 469 764 l 563 215 q 573 147 567 185 q 582 85 579 110 q 591 147 585 110 q 601 215 597 185 l 685 764 l 779 764 l 650 0 l 525 0 l 440 532 q 427 612 435 571 q 417 676 419 653 q 406 612 413 653 q 393 532 400 571 l 304 0 l 178 0 z "},"ẃ":{"ha":833,"x_min":54,"x_max":779,"o":"m 178 0 l 54 764 l 153 764 l 235 215 q 244 147 239 185 q 251 85 249 110 q 261 147 254 110 q 272 215 268 185 l 364 764 l 469 764 l 563 215 q 573 147 567 185 q 582 85 579 110 q 591 147 585 110 q 601 215 597 185 l 685 764 l 779 764 l 650 0 l 525 0 l 440 532 q 427 612 435 571 q 417 676 419 653 q 406 612 413 653 q 393 532 400 571 l 304 0 l 178 0 m 349 896 l 496 1090 l 617 1090 l 461 896 l 349 896 z "},"ŵ":{"ha":833,"x_min":54,"x_max":779,"o":"m 178 0 l 54 764 l 153 764 l 235 215 q 244 147 239 185 q 251 85 249 110 q 261 147 254 110 q 272 215 268 185 l 364 764 l 469 764 l 563 215 q 573 147 567 185 q 582 85 579 110 q 591 147 585 110 q 601 215 597 185 l 685 764 l 779 764 l 650 0 l 525 0 l 440 532 q 427 612 435 571 q 417 676 419 653 q 406 612 413 653 q 393 532 400 571 l 304 0 l 178 0 m 176 896 l 363 1090 l 469 1090 l 657 896 l 538 896 l 417 1015 l 299 896 l 176 896 z "},"ẅ":{"ha":833,"x_min":54,"x_max":779,"o":"m 178 0 l 54 764 l 153 764 l 235 215 q 244 147 239 185 q 251 85 249 110 q 261 147 254 110 q 272 215 268 185 l 364 764 l 469 764 l 563 215 q 573 147 567 185 q 582 85 579 110 q 591 147 585 110 q 601 215 597 185 l 685 764 l 779 764 l 650 0 l 525 0 l 440 532 q 427 612 435 571 q 417 676 419 653 q 406 612 413 653 q 393 532 400 571 l 304 0 l 178 0 m 569 904 q 508 926 532 904 q 485 988 485 949 q 508 1051 485 1028 q 569 1075 532 1075 q 631 1051 608 1075 q 654 988 654 1028 q 631 927 654 950 q 569 904 608 904 m 264 904 q 203 926 226 904 q 179 988 179 949 q 203 1051 179 1028 q 264 1075 226 1075 q 325 1051 301 1075 q 349 988 349 1028 q 325 927 349 950 q 264 904 301 904 z "},"ẁ":{"ha":833,"x_min":54,"x_max":779,"o":"m 178 0 l 54 764 l 153 764 l 235 215 q 244 147 239 185 q 251 85 249 110 q 261 147 254 110 q 272 215 268 185 l 364 764 l 469 764 l 563 215 q 573 147 567 185 q 582 85 579 110 q 591 147 585 110 q 601 215 597 185 l 685 764 l 779 764 l 650 0 l 525 0 l 440 532 q 427 612 435 571 q 417 676 419 653 q 406 612 413 653 q 393 532 400 571 l 304 0 l 178 0 m 376 896 l 218 1090 l 343 1090 l 494 896 l 376 896 z "},"x":{"ha":833,"x_min":79,"x_max":754,"o":"m 79 0 l 350 393 l 96 764 l 225 764 l 386 517 q 403 485 394 503 q 418 458 413 468 q 433 485 424 468 q 450 517 442 503 l 611 764 l 739 764 l 485 392 l 754 0 l 625 0 l 453 261 q 434 294 443 275 q 418 325 425 314 q 401 294 413 314 q 381 261 390 275 l 207 0 l 79 0 z "},"y":{"ha":833,"x_min":85,"x_max":749,"o":"m 256 -250 l 368 49 l 85 764 l 207 764 l 388 288 q 409 226 399 260 q 425 169 419 192 q 442 226 432 192 q 461 289 451 261 l 631 764 l 749 764 l 372 -250 l 256 -250 z "},"ý":{"ha":833,"x_min":85,"x_max":749,"o":"m 256 -250 l 368 49 l 85 764 l 207 764 l 388 288 q 409 226 399 260 q 425 169 419 192 q 442 226 432 192 q 461 289 451 261 l 631 764 l 749 764 l 372 -250 l 256 -250 m 349 896 l 496 1090 l 617 1090 l 461 896 l 349 896 z "},"ŷ":{"ha":833,"x_min":85,"x_max":749,"o":"m 256 -250 l 368 49 l 85 764 l 207 764 l 388 288 q 409 226 399 260 q 425 169 419 192 q 442 226 432 192 q 461 289 451 261 l 631 764 l 749 764 l 372 -250 l 256 -250 m 176 896 l 363 1090 l 469 1090 l 657 896 l 538 896 l 417 1015 l 299 896 l 176 896 z "},"ÿ":{"ha":833,"x_min":85,"x_max":749,"o":"m 256 -250 l 368 49 l 85 764 l 207 764 l 388 288 q 409 226 399 260 q 425 169 419 192 q 442 226 432 192 q 461 289 451 261 l 631 764 l 749 764 l 372 -250 l 256 -250 m 569 904 q 508 926 532 904 q 485 988 485 949 q 508 1051 485 1028 q 569 1075 532 1075 q 631 1051 608 1075 q 654 988 654 1028 q 631 927 654 950 q 569 904 608 904 m 264 904 q 203 926 226 904 q 179 988 179 949 q 203 1051 179 1028 q 264 1075 226 1075 q 325 1051 301 1075 q 349 988 349 1028 q 325 927 349 950 q 264 904 301 904 z "},"ỵ":{"ha":833,"x_min":85,"x_max":749,"o":"m 256 -250 l 368 49 l 85 764 l 207 764 l 388 288 q 409 226 399 260 q 425 169 419 192 q 442 226 432 192 q 461 289 451 261 l 631 764 l 749 764 l 372 -250 l 256 -250 m 639 -293 q 570 -270 596 -293 q 544 -208 544 -247 q 570 -145 544 -168 q 639 -122 596 -122 q 708 -145 682 -122 q 733 -208 733 -168 q 708 -270 733 -247 q 639 -293 682 -293 z "},"ỳ":{"ha":833,"x_min":85,"x_max":749,"o":"m 256 -250 l 368 49 l 85 764 l 207 764 l 388 288 q 409 226 399 260 q 425 169 419 192 q 442 226 432 192 q 461 289 451 261 l 631 764 l 749 764 l 372 -250 l 256 -250 m 376 896 l 218 1090 l 343 1090 l 494 896 l 376 896 z "},"ỷ":{"ha":833,"x_min":85,"x_max":749,"o":"m 256 -250 l 368 49 l 85 764 l 207 764 l 388 288 q 409 226 399 260 q 425 169 419 192 q 442 226 432 192 q 461 289 451 261 l 631 764 l 749 764 l 372 -250 l 256 -250 m 364 896 l 436 988 q 457 1035 457 1017 q 410 1065 457 1065 l 296 1065 l 296 1144 l 436 1144 q 519 1119 488 1144 q 551 1047 551 1093 q 526 972 551 1004 l 469 896 l 364 896 z "},"ȳ":{"ha":833,"x_min":85,"x_max":749,"o":"m 256 -250 l 368 49 l 85 764 l 207 764 l 388 288 q 409 226 399 260 q 425 169 419 192 q 442 226 432 192 q 461 289 451 261 l 631 764 l 749 764 l 372 -250 l 256 -250 m 201 936 l 201 1028 l 632 1028 l 632 936 l 201 936 z "},"ỹ":{"ha":833,"x_min":85,"x_max":749,"o":"m 256 -250 l 368 49 l 85 764 l 207 764 l 388 288 q 409 226 399 260 q 425 169 419 192 q 442 226 432 192 q 461 289 451 261 l 631 764 l 749 764 l 372 -250 l 256 -250 m 515 903 q 449 919 475 903 q 403 956 422 935 q 367 992 385 976 q 325 1008 349 1008 q 289 994 303 1008 q 275 953 275 981 l 275 910 l 194 910 l 194 953 q 228 1049 194 1015 q 319 1083 263 1083 q 387 1067 360 1083 q 433 1031 414 1051 q 469 994 451 1010 q 511 978 486 978 q 546 992 533 978 q 558 1033 558 1006 l 558 1076 l 639 1076 l 639 1033 q 606 937 639 971 q 515 903 572 903 z "},"z":{"ha":833,"x_min":129,"x_max":704,"o":"m 129 0 l 129 108 l 564 664 l 142 664 l 142 764 l 688 764 l 688 654 l 247 100 l 704 100 l 704 0 l 129 0 z "},"ź":{"ha":833,"x_min":129,"x_max":704,"o":"m 129 0 l 129 108 l 564 664 l 142 664 l 142 764 l 688 764 l 688 654 l 247 100 l 704 100 l 704 0 l 129 0 m 349 896 l 496 1090 l 617 1090 l 461 896 l 349 896 z "},"ž":{"ha":833,"x_min":129,"x_max":704,"o":"m 129 0 l 129 108 l 564 664 l 142 664 l 142 764 l 688 764 l 688 654 l 247 100 l 704 100 l 704 0 l 129 0 m 364 896 l 176 1090 l 296 1090 l 418 971 l 536 1090 l 657 1090 l 471 896 l 364 896 z "},"ż":{"ha":833,"x_min":129,"x_max":704,"o":"m 129 0 l 129 108 l 564 664 l 142 664 l 142 764 l 688 764 l 688 654 l 247 100 l 704 100 l 704 0 l 129 0 m 417 904 q 348 926 374 904 q 322 988 322 949 q 348 1051 322 1028 q 417 1075 374 1075 q 485 1051 460 1075 q 511 988 511 1028 q 485 927 511 950 q 417 904 460 904 z "},"ª":{"ha":833,"x_min":244,"x_max":582,"o":"m 522 632 l 522 708 l 518 708 l 518 903 q 492 956 518 936 q 424 976 467 976 q 360 960 386 976 q 329 917 335 943 l 265 917 q 316 998 274 968 q 424 1028 358 1028 q 539 994 496 1028 q 582 903 582 961 l 582 632 l 522 632 m 381 625 q 282 658 319 625 q 244 744 244 690 q 283 830 244 797 q 388 863 321 863 l 533 863 l 533 810 l 388 810 q 329 792 350 810 q 308 744 308 775 q 333 693 308 713 q 399 674 358 674 q 486 700 454 674 q 518 771 518 726 l 533 771 l 533 708 l 518 708 q 467 647 504 669 q 381 625 431 625 z "},"º":{"ha":833,"x_min":260,"x_max":574,"o":"m 417 618 q 303 658 346 618 q 260 760 260 697 l 260 881 q 303 983 260 944 q 417 1022 346 1022 q 531 983 488 1022 q 574 881 574 944 l 574 760 q 531 658 574 697 q 417 618 488 618 m 417 669 q 485 694 458 669 q 511 760 511 719 l 511 881 q 485 946 511 921 q 417 971 458 971 q 349 946 375 971 q 322 881 322 921 l 322 760 q 349 694 322 719 q 417 669 375 669 z "},"А":{"ha":833,"x_min":76,"x_max":757,"o":"m 76 0 l 344 1014 l 490 1014 l 757 0 l 646 0 l 575 275 l 258 275 l 189 0 l 76 0 m 281 369 l 551 369 l 465 708 q 432 851 444 793 q 417 925 419 908 q 401 851 414 908 q 368 708 389 793 l 281 369 z "},"Б":{"ha":833,"x_min":136,"x_max":731,"o":"m 136 0 l 136 1014 l 689 1014 l 689 914 l 247 914 l 247 586 l 424 586 q 588 550 519 586 q 693 449 656 514 q 731 293 731 383 q 693 138 731 204 q 588 36 656 72 q 424 0 519 0 l 136 0 m 247 100 l 424 100 q 567 152 515 100 q 618 293 618 204 q 567 435 618 383 q 424 486 515 486 l 247 486 l 247 100 z "},"В":{"ha":833,"x_min":136,"x_max":731,"o":"m 136 0 l 136 1014 l 415 1014 q 629 944 551 1014 q 707 751 707 874 q 678 630 707 682 q 598 549 650 578 q 472 522 546 521 l 472 542 q 609 510 551 542 q 699 420 667 479 q 731 281 731 361 q 694 131 731 194 q 592 34 658 68 q 432 0 525 0 l 136 0 m 243 100 l 422 100 q 569 149 515 100 q 622 283 622 199 q 569 424 622 371 q 422 478 515 478 l 243 478 l 243 100 m 243 574 l 415 574 q 549 619 500 574 q 597 744 597 665 q 549 869 597 824 q 415 914 501 914 l 243 914 l 243 574 z "},"Г":{"ha":833,"x_min":157,"x_max":739,"o":"m 157 0 l 157 1014 l 739 1014 l 739 914 l 267 914 l 267 0 l 157 0 z "},"Ѓ":{"ha":833,"x_min":157,"x_max":739,"o":"m 157 0 l 157 1014 l 739 1014 l 739 914 l 267 914 l 267 0 l 157 0 m 351 1125 l 499 1319 l 619 1319 l 464 1125 l 351 1125 z "},"Ґ":{"ha":833,"x_min":157,"x_max":739,"o":"m 157 0 l 157 1014 l 635 1014 l 635 1146 l 739 1146 l 739 914 l 267 914 l 267 0 l 157 0 z "},"Д":{"ha":833,"x_min":43,"x_max":789,"o":"m 43 -194 l 43 94 l 101 94 q 136 169 118 122 q 167 277 154 217 q 182 406 181 338 l 193 1014 l 692 1014 l 692 94 l 789 94 l 789 -194 l 692 -194 l 692 0 l 142 0 l 142 -194 l 43 -194 m 217 94 l 581 94 l 581 915 l 299 915 l 290 406 q 265 215 289 297 q 217 94 240 132 z "},"Е":{"ha":833,"x_min":146,"x_max":718,"o":"m 146 0 l 146 1014 l 718 1014 l 718 914 l 256 914 l 256 579 l 669 579 l 669 481 l 256 481 l 256 100 l 718 100 l 718 0 l 146 0 z "},"Ё":{"ha":833,"x_min":146,"x_max":718,"o":"m 146 0 l 146 1014 l 718 1014 l 718 914 l 256 914 l 256 579 l 669 579 l 669 481 l 256 481 l 256 100 l 718 100 l 718 0 l 146 0 m 599 1138 q 538 1160 561 1138 q 514 1222 514 1183 q 538 1285 514 1263 q 599 1308 561 1308 q 660 1285 638 1308 q 683 1222 683 1263 q 660 1160 683 1183 q 599 1138 638 1138 m 293 1138 q 232 1160 256 1138 q 208 1222 208 1183 q 232 1285 208 1263 q 293 1308 256 1308 q 354 1285 331 1308 q 378 1222 378 1263 q 354 1160 378 1183 q 293 1138 331 1138 z "},"Ж":{"ha":833,"x_min":24,"x_max":810,"o":"m 24 0 l 207 524 l 36 1014 l 151 1014 l 300 560 l 369 560 l 369 1014 l 463 1014 l 463 560 l 533 560 l 682 1014 l 796 1014 l 628 522 l 810 0 l 696 0 l 535 479 l 463 479 l 463 0 l 369 0 l 369 479 l 297 479 l 136 0 l 24 0 z "},"З":{"ha":833,"x_min":85,"x_max":733,"o":"m 407 -14 q 242 20 313 -14 q 130 115 171 54 q 85 258 89 176 l 196 258 q 258 131 201 178 q 407 85 315 85 q 561 137 504 85 q 618 275 618 189 q 561 415 618 364 q 407 467 504 467 l 283 467 l 283 567 l 406 567 q 547 620 494 567 q 599 756 599 674 q 547 885 599 839 q 406 931 494 931 q 261 880 315 931 q 207 747 207 829 l 96 747 q 135 895 96 832 q 242 993 174 958 q 406 1028 311 1028 q 629 960 546 1028 q 713 768 713 892 q 683 642 713 697 q 601 557 654 588 q 474 528 547 526 l 474 546 q 611 515 553 547 q 701 423 669 482 q 733 283 733 364 q 693 129 733 196 q 580 24 653 63 q 407 -14 507 -14 z "},"И":{"ha":833,"x_min":132,"x_max":701,"o":"m 132 0 l 132 1014 l 239 1014 l 239 389 q 237 293 239 343 q 233 200 235 243 q 229 128 231 157 l 553 1014 l 701 1014 l 701 0 l 594 0 l 594 625 q 597 714 594 665 q 601 808 599 763 q 607 886 604 854 l 279 0 l 132 0 z "},"Й":{"ha":833,"x_min":132,"x_max":701,"o":"m 132 0 l 132 1014 l 239 1014 l 239 389 q 237 293 239 343 q 233 200 235 243 q 229 128 231 157 l 553 1014 l 701 1014 l 701 0 l 594 0 l 594 625 q 597 714 594 665 q 601 808 599 763 q 607 886 604 854 l 279 0 l 132 0 m 417 1119 q 259 1174 318 1119 q 200 1319 200 1229 l 289 1319 q 323 1228 289 1263 q 415 1193 357 1193 q 510 1228 475 1193 q 544 1319 544 1263 l 633 1319 q 574 1174 633 1229 q 417 1119 515 1119 z "},"К":{"ha":833,"x_min":135,"x_max":771,"o":"m 135 0 l 135 1014 l 244 1014 l 244 574 l 411 574 l 636 1014 l 757 1014 l 508 528 l 771 0 l 643 0 l 408 476 l 244 476 l 244 0 l 135 0 z "},"Ќ":{"ha":833,"x_min":135,"x_max":771,"o":"m 344 1125 l 492 1319 l 613 1319 l 457 1125 l 344 1125 m 135 0 l 135 1014 l 244 1014 l 244 574 l 411 574 l 636 1014 l 757 1014 l 508 528 l 771 0 l 643 0 l 408 476 l 244 476 l 244 0 l 135 0 z "},"Л":{"ha":833,"x_min":29,"x_max":697,"o":"m 29 -7 l 29 97 l 60 97 q 147 149 118 97 q 176 319 175 201 l 188 1014 l 697 1014 l 697 0 l 586 0 l 586 914 l 296 914 l 286 319 q 229 74 283 154 q 64 -7 175 -7 l 29 -7 z "},"М":{"ha":833,"x_min":111,"x_max":722,"o":"m 111 0 l 111 1014 l 260 1014 l 375 669 q 401 588 389 629 q 419 522 414 546 q 438 588 426 546 q 464 671 450 629 l 574 1014 l 722 1014 l 722 0 l 614 0 l 614 433 q 617 563 614 492 q 626 707 621 635 q 638 845 632 779 q 647 958 643 911 l 476 446 l 360 446 l 188 958 q 199 848 193 911 q 208 713 204 785 q 216 569 213 642 q 219 433 219 497 l 219 0 l 111 0 z "},"Н":{"ha":833,"x_min":136,"x_max":697,"o":"m 136 0 l 136 1014 l 246 1014 l 246 575 l 588 575 l 588 1014 l 697 1014 l 697 0 l 588 0 l 588 474 l 246 474 l 246 0 l 136 0 z "},"О":{"ha":833,"x_min":129,"x_max":704,"o":"m 417 -14 q 263 21 328 -14 q 164 120 199 56 q 129 274 129 185 l 129 740 q 164 894 129 829 q 263 993 199 958 q 417 1028 328 1028 q 570 993 506 1028 q 669 894 635 958 q 704 740 704 829 l 704 274 q 669 120 704 185 q 570 21 635 56 q 417 -14 506 -14 m 417 85 q 549 134 503 85 q 594 274 594 183 l 594 740 q 548 880 594 831 q 417 929 501 929 q 285 880 332 929 q 239 740 239 831 l 239 274 q 285 134 239 183 q 417 85 332 85 z "},"П":{"ha":833,"x_min":136,"x_max":697,"o":"m 136 0 l 136 1014 l 697 1014 l 697 0 l 586 0 l 586 914 l 247 914 l 247 0 l 136 0 z "},"Р":{"ha":833,"x_min":135,"x_max":758,"o":"m 135 0 l 135 1014 l 453 1014 q 615 978 546 1014 q 721 876 683 942 q 758 719 758 810 q 721 565 758 631 q 615 462 683 499 q 453 425 546 425 l 244 425 l 244 0 l 135 0 m 244 525 l 453 525 q 592 578 540 525 q 644 719 644 631 q 592 862 644 810 q 453 914 540 914 l 244 914 l 244 525 z "},"С":{"ha":833,"x_min":129,"x_max":717,"o":"m 424 -14 q 267 21 333 -14 q 165 121 201 56 q 129 274 129 186 l 129 740 q 165 894 129 829 q 267 993 201 958 q 424 1028 333 1028 q 578 992 513 1028 q 681 892 644 957 q 717 736 717 826 l 607 736 q 558 878 607 828 q 424 929 510 929 q 288 880 338 929 q 239 740 239 831 l 239 274 q 288 135 239 185 q 424 85 338 85 q 558 135 510 85 q 607 278 607 186 l 717 278 q 681 123 717 189 q 578 22 644 57 q 424 -14 513 -14 z "},"Т":{"ha":833,"x_min":78,"x_max":756,"o":"m 363 0 l 363 914 l 78 914 l 78 1015 l 756 1015 l 756 914 l 472 914 l 472 0 l 363 0 z "},"У":{"ha":833,"x_min":76,"x_max":757,"o":"m 272 0 l 375 264 l 76 1014 l 197 1014 l 382 518 q 413 426 400 471 q 429 360 425 382 q 446 426 435 382 q 472 518 457 471 l 638 1014 l 757 1014 l 390 0 l 272 0 z "},"Ў":{"ha":833,"x_min":76,"x_max":757,"o":"m 272 0 l 375 264 l 76 1014 l 197 1014 l 382 518 q 413 426 400 471 q 429 360 425 382 q 446 426 435 382 q 472 518 457 471 l 638 1014 l 757 1014 l 390 0 l 272 0 m 417 1119 q 259 1174 318 1119 q 200 1319 200 1229 l 289 1319 q 323 1228 289 1263 q 415 1193 357 1193 q 510 1228 475 1193 q 544 1319 544 1263 l 633 1319 q 574 1174 633 1229 q 417 1119 515 1119 z "},"Ф":{"ha":833,"x_min":79,"x_max":754,"o":"m 365 -35 l 365 63 q 215 98 279 63 q 115 198 150 133 q 79 349 79 263 l 79 681 q 114 835 79 769 q 213 936 149 900 q 365 972 278 972 l 365 1069 l 468 1069 l 468 972 q 620 936 556 972 q 719 835 685 900 q 754 681 754 769 l 754 349 q 719 198 754 263 q 619 98 683 133 q 468 63 556 63 l 468 -35 l 365 -35 m 365 157 l 365 878 q 269 853 310 878 q 206 785 228 829 q 183 681 183 742 l 183 349 q 206 247 183 290 q 269 181 228 204 q 365 157 310 157 m 468 157 q 565 181 525 157 q 628 247 606 204 q 650 349 650 290 l 650 681 q 628 785 650 742 q 565 853 606 829 q 468 878 525 878 l 468 157 z "},"Х":{"ha":833,"x_min":60,"x_max":774,"o":"m 60 0 l 354 518 l 78 1014 l 204 1014 l 364 711 q 392 658 376 688 q 418 608 408 628 q 444 658 428 628 q 472 711 460 688 l 635 1014 l 756 1014 l 479 525 l 774 0 l 647 0 l 469 329 q 441 383 457 353 q 417 433 425 414 q 391 384 407 414 q 363 331 375 354 l 182 0 l 60 0 z "},"Ч":{"ha":833,"x_min":110,"x_max":696,"o":"m 586 0 l 586 401 q 515 392 565 397 q 396 388 465 388 q 186 465 263 388 q 110 672 110 542 l 110 1014 l 219 1014 l 219 672 q 272 536 219 588 q 415 485 324 485 q 524 490 479 485 q 586 499 569 494 l 586 1014 l 696 1014 l 696 0 l 586 0 z "},"Ц":{"ha":833,"x_min":136,"x_max":779,"o":"m 679 -194 l 679 0 l 136 0 l 136 1014 l 247 1014 l 247 99 l 564 99 l 564 1014 l 674 1014 l 674 99 l 779 99 l 779 -194 l 679 -194 z "},"Ш":{"ha":833,"x_min":93,"x_max":740,"o":"m 96 0 l 93 1014 l 197 1014 l 197 85 l 372 85 l 372 1014 l 464 1014 l 464 85 l 638 85 l 638 1014 l 740 1014 l 740 0 l 96 0 z "},"Щ":{"ha":833,"x_min":93,"x_max":794,"o":"m 694 -194 l 694 0 l 93 0 l 93 1014 l 193 1014 l 193 93 l 367 93 l 367 1014 l 456 1014 l 456 93 l 629 93 l 629 1014 l 729 1014 l 729 93 l 794 93 l 794 -194 l 694 -194 z "},"Џ":{"ha":833,"x_min":136,"x_max":697,"o":"m 361 -174 l 361 0 l 136 0 l 136 1014 l 249 1014 l 249 101 l 585 101 l 585 1014 l 697 1014 l 697 0 l 472 0 l 472 -174 l 361 -174 z "},"Ь":{"ha":833,"x_min":136,"x_max":754,"o":"m 136 0 l 136 1014 l 247 1014 l 247 593 l 451 593 q 611 556 543 593 q 717 453 679 519 q 754 297 754 386 q 717 141 754 208 q 611 37 679 74 q 451 0 543 0 l 136 0 m 247 100 l 446 100 q 588 154 533 100 q 642 297 642 208 q 588 440 642 386 q 446 493 533 493 l 247 493 l 247 100 z "},"Ъ":{"ha":833,"x_min":-1,"x_max":754,"o":"m 189 0 l 189 913 l -1 913 l -1 1014 l 300 1014 l 300 593 l 451 593 q 611 556 543 593 q 717 453 679 519 q 754 297 754 386 q 717 141 754 208 q 611 37 679 74 q 451 0 543 0 l 189 0 m 300 100 l 446 100 q 588 154 533 100 q 642 297 642 208 q 588 440 642 386 q 446 493 533 493 l 300 493 l 300 100 z "},"Ы":{"ha":833,"x_min":96,"x_max":738,"o":"m 96 0 l 96 1014 l 200 1014 l 200 593 l 263 593 q 460 522 388 593 q 533 329 533 451 l 533 263 q 461 71 533 142 q 263 0 389 0 l 96 0 m 200 97 l 263 97 q 385 142 342 97 q 428 264 428 186 l 428 329 q 385 452 428 408 q 263 496 342 496 l 200 496 l 200 97 m 633 0 l 633 1014 l 738 1014 l 738 0 l 633 0 z "},"Љ":{"ha":833,"x_min":-7,"x_max":800,"o":"m -7 -7 l -7 93 l 21 93 q 81 137 60 93 q 104 256 103 181 l 113 1014 l 496 1014 l 496 593 l 582 593 q 740 535 681 593 q 800 381 800 476 l 800 214 q 740 58 800 117 q 582 0 681 0 l 396 0 l 396 921 l 211 921 l 203 256 q 151 64 201 135 q 18 -7 101 -7 l -7 -7 m 496 93 l 582 93 q 668 126 636 93 q 700 214 700 158 l 700 381 q 668 467 700 435 q 582 500 636 500 l 496 500 l 496 93 z "},"Њ":{"ha":833,"x_min":76,"x_max":800,"o":"m 76 0 l 76 1014 l 176 1014 l 176 593 l 396 593 l 396 1014 l 496 1014 l 496 593 l 579 593 q 741 535 682 593 q 800 381 800 478 l 800 214 q 741 58 800 115 q 579 0 682 0 l 396 0 l 396 500 l 176 500 l 176 0 l 76 0 m 496 93 l 579 93 q 668 125 636 93 q 700 214 700 157 l 700 381 q 668 469 700 438 q 579 500 636 500 l 496 500 l 496 93 z "},"Ѕ":{"ha":833,"x_min":104,"x_max":729,"o":"m 422 -14 q 254 19 325 -14 q 144 115 183 53 q 104 263 106 176 l 215 263 q 271 133 215 181 q 422 85 326 85 q 566 131 514 85 q 618 257 618 176 q 582 373 618 324 q 481 442 546 422 l 349 483 q 188 588 244 514 q 132 763 132 663 q 168 903 132 844 q 270 996 204 963 q 425 1029 336 1029 q 636 956 557 1029 q 715 758 715 882 l 606 758 q 557 883 606 838 q 424 929 508 929 q 291 888 339 929 q 243 772 243 847 q 279 658 243 707 q 381 589 315 610 l 513 547 q 672 439 615 515 q 729 260 729 363 q 691 116 729 178 q 584 20 653 54 q 422 -14 515 -14 z "},"Є":{"ha":833,"x_min":131,"x_max":714,"o":"m 424 -14 q 267 21 333 -14 q 166 121 201 56 q 131 274 131 186 l 131 740 q 166 894 131 829 q 267 993 201 958 q 424 1028 333 1028 q 578 992 513 1028 q 679 892 644 957 q 714 736 714 826 l 604 736 q 557 878 604 828 q 424 929 510 929 q 289 880 338 929 q 240 740 240 831 l 240 561 l 557 561 l 557 461 l 240 461 l 240 274 q 289 135 240 185 q 424 85 338 85 q 557 135 510 85 q 604 278 604 186 l 714 278 q 679 123 714 189 q 578 22 644 57 q 424 -14 513 -14 z "},"Э":{"ha":833,"x_min":121,"x_max":704,"o":"m 413 -14 q 258 22 324 -14 q 156 123 192 57 q 121 278 121 189 l 231 278 q 278 135 231 186 q 413 85 326 85 q 547 135 499 85 q 594 274 594 185 l 594 461 l 278 461 l 278 561 l 594 561 l 594 740 q 547 880 594 831 q 413 929 499 929 q 278 878 326 929 q 231 736 231 828 l 121 736 q 156 892 121 826 q 258 992 192 957 q 413 1028 324 1028 q 568 993 503 1028 q 669 894 633 958 q 704 740 704 829 l 704 274 q 669 121 704 186 q 568 21 633 56 q 413 -14 503 -14 z "},"І":{"ha":833,"x_min":151,"x_max":682,"o":"m 151 0 l 151 100 l 361 100 l 361 914 l 151 914 l 151 1014 l 682 1014 l 682 914 l 474 914 l 474 100 l 682 100 l 682 0 l 151 0 z "},"Ї":{"ha":833,"x_min":151,"x_max":682,"o":"m 151 0 l 151 100 l 361 100 l 361 914 l 151 914 l 151 1014 l 682 1014 l 682 914 l 474 914 l 474 100 l 682 100 l 682 0 l 151 0 m 569 1138 q 508 1160 532 1138 q 485 1222 485 1183 q 508 1285 485 1263 q 569 1308 532 1308 q 631 1285 608 1308 q 654 1222 654 1263 q 631 1160 654 1183 q 569 1138 608 1138 m 264 1138 q 203 1160 226 1138 q 179 1222 179 1183 q 203 1285 179 1263 q 264 1308 226 1308 q 325 1285 301 1308 q 349 1222 349 1263 q 325 1160 349 1183 q 264 1138 301 1138 z "},"Ј":{"ha":833,"x_min":72,"x_max":682,"o":"m 376 -14 q 153 67 235 -14 q 72 288 72 147 l 182 288 q 233 138 182 192 q 376 85 285 85 q 520 138 468 85 q 572 288 572 192 l 572 913 l 324 913 l 324 1014 l 682 1014 l 682 288 q 600 67 682 147 q 376 -14 518 -14 z "},"Ћ":{"ha":833,"x_min":0,"x_max":736,"o":"m 160 0 l 160 917 l 0 917 l 0 1014 l 439 1014 l 439 917 l 271 917 l 271 539 l 304 575 q 529 688 408 688 q 679 623 622 688 q 736 450 736 558 l 736 0 l 625 0 l 625 426 q 594 551 625 508 q 504 594 563 594 q 343 507 425 594 l 271 431 l 271 0 l 160 0 z "},"Ю":{"ha":833,"x_min":89,"x_max":769,"o":"m 539 -14 q 374 55 435 -14 q 313 243 313 124 l 313 474 l 192 474 l 192 0 l 89 0 l 89 1014 l 192 1014 l 192 569 l 313 569 l 313 771 q 373 960 313 892 q 539 1028 433 1028 q 708 959 647 1028 q 769 771 769 890 l 769 243 q 708 55 769 124 q 539 -14 647 -14 m 539 82 q 634 124 601 82 q 667 243 667 167 l 667 771 q 634 890 667 847 q 539 932 601 932 q 444 890 478 932 q 411 771 411 847 l 411 243 q 444 124 411 167 q 539 82 478 82 z "},"Я":{"ha":833,"x_min":83,"x_max":696,"o":"m 83 0 l 299 449 q 148 547 203 474 q 93 725 93 621 q 130 877 93 813 q 234 978 167 942 q 392 1014 301 1014 l 696 1014 l 696 0 l 586 0 l 586 438 l 414 438 l 211 0 l 83 0 m 392 536 l 586 536 l 586 915 l 392 915 q 257 864 308 915 q 206 726 206 813 q 257 588 206 640 q 392 536 308 536 z "},"Ђ":{"ha":833,"x_min":0,"x_max":736,"o":"m 364 -250 l 364 -150 l 450 -150 q 578 -104 532 -150 q 625 21 625 -58 l 625 426 q 594 551 625 508 q 504 594 563 594 q 343 507 425 594 l 271 431 l 271 0 l 160 0 l 160 917 l 0 917 l 0 1014 l 439 1014 l 439 917 l 271 917 l 271 539 l 304 575 q 528 688 408 688 q 679 623 622 688 q 736 450 736 558 l 736 21 q 701 -122 736 -61 q 601 -217 665 -183 q 450 -250 538 -250 l 364 -250 z "},"Ү":{"ha":833,"x_min":54,"x_max":779,"o":"m 361 0 l 361 382 l 54 1014 l 168 1014 l 376 586 q 403 528 393 553 q 418 490 414 503 q 433 528 422 503 q 460 586 444 553 l 665 1014 l 779 1014 l 472 382 l 472 0 l 361 0 z "},"Ө":{"ha":833,"x_min":131,"x_max":703,"o":"m 417 -14 q 208 64 285 -14 q 131 275 131 142 l 131 740 q 208 951 131 874 q 417 1028 285 1028 q 626 951 550 1028 q 703 740 703 874 l 703 275 q 668 121 703 186 q 569 21 633 56 q 417 -14 506 -14 m 417 83 q 548 133 503 83 q 593 275 593 182 l 593 469 l 240 469 l 240 275 q 286 133 240 182 q 417 83 332 83 m 240 568 l 593 568 l 593 740 q 547 881 593 832 q 417 931 501 931 q 286 881 332 931 q 240 740 240 832 l 240 568 z "},"а":{"ha":833,"x_min":97,"x_max":701,"o":"m 357 -14 q 167 48 236 -14 q 97 215 97 110 q 165 380 97 319 q 349 440 233 440 l 592 440 l 592 521 q 547 639 592 597 q 421 681 503 681 q 301 649 349 681 q 246 563 253 617 l 135 563 q 227 719 149 661 q 424 778 306 778 q 626 709 551 778 q 701 524 701 640 l 701 0 l 593 0 l 593 149 l 575 149 l 596 171 q 531 36 596 86 q 357 -14 465 -14 m 383 75 q 533 121 475 75 q 592 240 592 167 l 592 356 l 350 356 q 246 319 285 356 q 207 221 207 283 q 254 115 207 154 q 383 75 301 75 z "},"б":{"ha":833,"x_min":131,"x_max":703,"o":"m 417 -14 q 207 65 283 -14 q 131 283 131 144 l 131 639 q 221 917 131 819 q 479 1014 311 1014 l 668 1014 l 668 904 l 479 904 q 301 835 363 904 q 240 639 240 767 l 240 543 l 260 543 l 240 510 q 297 640 242 593 q 447 688 351 688 q 636 610 569 688 q 703 396 703 533 l 703 283 q 669 124 703 190 q 571 22 635 57 q 417 -14 507 -14 m 417 85 q 547 136 501 85 q 593 283 593 188 l 593 396 q 547 543 593 490 q 417 596 501 596 q 286 543 332 596 q 240 396 240 490 l 240 283 q 287 136 240 188 q 417 85 333 85 z "},"в":{"ha":833,"x_min":136,"x_max":725,"o":"m 136 0 l 136 764 l 464 764 q 643 710 578 764 q 708 563 708 657 q 655 435 708 483 q 513 388 601 388 l 513 397 q 667 348 608 397 q 725 217 725 299 q 656 58 725 115 q 467 0 588 0 l 136 0 m 244 97 l 467 97 q 575 130 535 97 q 615 218 615 163 q 575 309 615 276 q 467 342 535 342 l 244 342 l 244 97 m 244 438 l 464 438 q 562 468 525 438 q 599 551 599 499 q 562 635 599 604 q 464 667 525 667 l 244 667 l 244 438 z "},"г":{"ha":833,"x_min":186,"x_max":728,"o":"m 186 0 l 186 764 l 728 764 l 728 664 l 296 664 l 296 0 l 186 0 z "},"ѓ":{"ha":833,"x_min":186,"x_max":728,"o":"m 186 0 l 186 764 l 728 764 l 728 664 l 296 664 l 296 0 l 186 0 m 390 896 l 538 1090 l 658 1090 l 503 896 l 390 896 z "},"ґ":{"ha":833,"x_min":186,"x_max":728,"o":"m 186 0 l 186 764 l 622 764 l 622 910 l 728 910 l 728 664 l 296 664 l 296 0 l 186 0 z "},"д":{"ha":833,"x_min":47,"x_max":779,"o":"m 47 -194 l 47 94 l 110 94 q 159 190 133 121 q 186 357 185 258 l 194 764 l 681 764 l 681 94 l 779 94 l 779 -194 l 681 -194 l 681 0 l 146 0 l 146 -194 l 47 -194 m 228 94 l 571 94 l 571 665 l 299 665 l 293 356 q 269 185 292 251 q 228 94 247 118 z "},"е":{"ha":833,"x_min":125,"x_max":708,"o":"m 417 -14 q 263 22 328 -14 q 161 122 197 57 q 125 274 125 188 l 125 490 q 161 642 125 578 q 263 742 197 707 q 417 778 328 778 q 571 742 506 778 q 672 642 636 707 q 708 490 708 578 l 708 356 l 233 356 l 233 274 q 281 130 233 181 q 417 79 329 79 q 537 108 490 79 q 596 193 583 138 l 706 193 q 613 42 690 97 q 417 -14 535 -14 m 600 429 l 600 490 q 553 634 600 583 q 417 685 506 685 q 281 634 329 685 q 233 490 233 583 l 233 442 l 611 442 l 600 429 z "},"ё":{"ha":833,"x_min":125,"x_max":708,"o":"m 569 904 q 508 926 532 904 q 485 988 485 949 q 508 1051 485 1028 q 569 1075 532 1075 q 631 1051 608 1075 q 654 988 654 1028 q 631 927 654 950 q 569 904 608 904 m 264 904 q 203 926 226 904 q 179 988 179 949 q 203 1051 179 1028 q 264 1075 226 1075 q 325 1051 301 1075 q 349 988 349 1028 q 325 927 349 950 q 264 904 301 904 m 417 -14 q 263 22 328 -14 q 161 122 197 57 q 125 274 125 188 l 125 490 q 161 642 125 578 q 263 742 197 707 q 417 778 328 778 q 571 742 506 778 q 672 642 636 707 q 708 490 708 578 l 708 356 l 233 356 l 233 274 q 281 130 233 181 q 417 79 329 79 q 537 108 490 79 q 596 193 583 138 l 706 193 q 613 42 690 97 q 417 -14 535 -14 m 600 429 l 600 490 q 553 634 600 583 q 417 685 506 685 q 281 634 329 685 q 233 490 233 583 l 233 442 l 611 442 l 600 429 z "},"ж":{"ha":833,"x_min":32,"x_max":801,"o":"m 32 0 l 199 392 l 43 764 l 150 764 l 288 426 l 369 426 l 369 764 l 464 764 l 464 426 l 543 426 l 685 764 l 790 764 l 635 396 l 801 0 l 690 0 l 547 351 l 464 351 l 464 0 l 369 0 l 369 351 l 286 351 l 140 0 l 32 0 z "}}}
